<svg width="133" height="29" viewBox="0 0 133 29" fill="none" xmlns="http://www.w3.org/2000/svg">
<g filter="url(#filter0_di_3_3201)">
<mask id="path-1-inside-1_3_3201" fill="white">
<path d="M4 6C4 2.68629 6.68629 0 10 0H45V28H10C6.68629 28 4 25.3137 4 22V6Z"/>
</mask>
<path d="M4 6C4 2.68629 6.68629 0 10 0H45V28H10C6.68629 28 4 25.3137 4 22V6Z" fill="#F6F8FA" shape-rendering="crispEdges"/>
<path fill-rule="evenodd" clip-rule="evenodd" d="M28.013 8.42701C28.3412 8.09909 28.7861 7.91489 29.25 7.91489C29.7139 7.91489 30.1589 8.09909 30.487 8.42701L31.573 9.51301C31.9009 9.84117 32.0851 10.2861 32.0851 10.75C32.0851 11.2139 31.9009 11.6589 31.573 11.987L22.963 20.597C22.753 20.807 22.493 20.961 22.207 21.042L18.956 21.972C18.8273 22.0088 18.6912 22.0105 18.5616 21.9769C18.4321 21.9433 18.3139 21.8756 18.2193 21.7809C18.1247 21.6862 18.0572 21.568 18.0237 21.4384C17.9903 21.3088 17.9921 21.1726 18.029 21.044L18.958 17.794C19.0394 17.5076 19.1926 17.2467 19.403 17.036L28.013 8.42601V8.42701ZM29.427 9.48701C29.4038 9.46373 29.3762 9.44526 29.3458 9.43266C29.3154 9.42005 29.2829 9.41357 29.25 9.41357C29.2171 9.41357 29.1846 9.42005 29.1542 9.43266C29.1238 9.44526 29.0962 9.46373 29.073 9.48701L27.811 10.75L29.25 12.19L30.513 10.927C30.5363 10.9038 30.5548 10.8762 30.5674 10.8458C30.58 10.8155 30.5865 10.7829 30.5865 10.75C30.5865 10.7171 30.58 10.6846 30.5674 10.6542C30.5548 10.6238 30.5363 10.5962 30.513 10.573L29.427 9.48701V9.48701ZM28.189 13.25L26.75 11.81L20.464 18.097C20.4338 18.127 20.4118 18.1642 20.4 18.205L19.842 20.158L21.795 19.6C21.8359 19.5883 21.8731 19.5662 21.903 19.536L28.189 13.25Z" fill="#8C959F"/>
<path d="M3 6C3 2.13401 6.13401 -1 10 -1H45V1H10C7.23858 1 5 3.23858 5 6H3ZM45 29H10C6.13401 29 3 25.866 3 22H5C5 24.7614 7.23858 27 10 27H45V29ZM10 29C6.13401 29 3 25.866 3 22V6C3 2.13401 6.13401 -1 10 -1V1C7.23858 1 5 3.23858 5 6V22C5 24.7614 7.23858 27 10 27V29ZM45 0V28V0Z" fill="#1B1F24" fill-opacity="0.15" mask="url(#path-1-inside-1_3_3201)"/>
</g>
<g filter="url(#filter1_di_3_3201)">
<path d="M45 0H65C68.3137 0 71 2.68629 71 6V22C71 25.3137 68.3137 28 65 28H45V0Z" fill="#F6F8FA" shape-rendering="crispEdges"/>
<rect x="56" y="14" width="4" height="4" stroke="#24292F" stroke-width="4"/>
<path d="M45.5 0.5H65C68.0376 0.5 70.5 2.96243 70.5 6V22C70.5 25.0376 68.0376 27.5 65 27.5H45.5V0.5Z" stroke="#1B1F24" stroke-opacity="0.15" shape-rendering="crispEdges"/>
</g>
<path fill-rule="evenodd" clip-rule="evenodd" d="M81 11.75C81 10.784 81.784 10 82.75 10H84.25C84.4489 10 84.6397 10.079 84.7803 10.2197C84.921 10.3603 85 10.5511 85 10.75C85 10.9489 84.921 11.1397 84.7803 11.2803C84.6397 11.421 84.4489 11.5 84.25 11.5H82.75C82.6837 11.5 82.6201 11.5263 82.5732 11.5732C82.5263 11.6201 82.5 11.6837 82.5 11.75V19.25C82.5 19.388 82.612 19.5 82.75 19.5H90.25C90.3163 19.5 90.3799 19.4737 90.4268 19.4268C90.4737 19.3799 90.5 19.3163 90.5 19.25V17.75C90.5 17.5511 90.579 17.3603 90.7197 17.2197C90.8603 17.079 91.0511 17 91.25 17C91.4489 17 91.6397 17.079 91.7803 17.2197C91.921 17.3603 92 17.5511 92 17.75V19.25C92 19.7141 91.8156 20.1592 91.4874 20.4874C91.1592 20.8156 90.7141 21 90.25 21H82.75C82.2859 21 81.8408 20.8156 81.5126 20.4874C81.1844 20.1592 81 19.7141 81 19.25V11.75Z" fill="#57606A"/>
<path fill-rule="evenodd" clip-rule="evenodd" d="M86 6.75C86 5.784 86.784 5 87.75 5H95.25C96.216 5 97 5.784 97 6.75V14.25C97 14.7141 96.8156 15.1592 96.4874 15.4874C96.1592 15.8156 95.7141 16 95.25 16H87.75C87.2859 16 86.8408 15.8156 86.5126 15.4874C86.1844 15.1592 86 14.7141 86 14.25V6.75ZM87.75 6.5C87.6837 6.5 87.6201 6.52634 87.5732 6.57322C87.5263 6.62011 87.5 6.6837 87.5 6.75V14.25C87.5 14.388 87.612 14.5 87.75 14.5H95.25C95.3163 14.5 95.3799 14.4737 95.4268 14.4268C95.4737 14.3799 95.5 14.3163 95.5 14.25V6.75C95.5 6.6837 95.4737 6.62011 95.4268 6.57322C95.3799 6.52634 95.3163 6.5 95.25 6.5H87.75Z" fill="#57606A"/>
<path fill-rule="evenodd" clip-rule="evenodd" d="M118.5 7.75C118.5 7.6837 118.526 7.62011 118.573 7.57322C118.62 7.52634 118.684 7.5 118.75 7.5H121.25C121.316 7.5 121.38 7.52634 121.427 7.57322C121.474 7.62011 121.5 7.6837 121.5 7.75V9H118.5V7.75ZM123 7.75V9H125.25C125.449 9 125.64 9.07902 125.78 9.21967C125.921 9.36032 126 9.55109 126 9.75C126 9.94891 125.921 10.1397 125.78 10.2803C125.64 10.421 125.449 10.5 125.25 10.5H114.75C114.551 10.5 114.36 10.421 114.22 10.2803C114.079 10.1397 114 9.94891 114 9.75C114 9.55109 114.079 9.36032 114.22 9.21967C114.36 9.07902 114.551 9 114.75 9H117V7.75C117 6.784 117.784 6 118.75 6H121.25C122.216 6 123 6.784 123 7.75ZM116.496 12.675C116.489 12.5752 116.461 12.4779 116.415 12.3888C116.37 12.2998 116.307 12.2208 116.23 12.1565C116.153 12.0922 116.065 12.0438 115.969 12.0144C115.873 11.9849 115.773 11.9749 115.673 11.9849C115.573 11.9949 115.477 12.0248 115.389 12.0727C115.301 12.1206 115.224 12.1856 115.161 12.2639C115.099 12.3422 115.053 12.4322 115.026 12.5285C114.999 12.6249 114.991 12.7257 115.004 12.825L115.664 19.425C115.707 19.8566 115.91 20.2567 116.231 20.5478C116.553 20.8388 116.971 20.9999 117.405 21H122.595C123.495 21 124.247 20.319 124.336 19.424L124.996 12.824C125.01 12.6292 124.947 12.4366 124.822 12.2872C124.696 12.1378 124.517 12.0433 124.322 12.0239C124.128 12.0045 123.934 12.0617 123.781 12.1833C123.628 12.3049 123.529 12.4813 123.504 12.675L122.844 19.275C122.838 19.3367 122.809 19.3939 122.763 19.4355C122.717 19.4771 122.657 19.5001 122.595 19.5H117.405C117.343 19.5001 117.283 19.4771 117.237 19.4355C117.191 19.3939 117.162 19.3367 117.156 19.275L116.496 12.675V12.675Z" fill="#8C959F"/>
<defs>
<filter id="filter0_di_3_3201" x="4" y="0" width="41" height="29" filterUnits="userSpaceOnUse" color-interpolation-filters="sRGB">
<feFlood flood-opacity="0" result="BackgroundImageFix"/>
<feColorMatrix in="SourceAlpha" type="matrix" values="0 0 0 0 0 0 0 0 0 0 0 0 0 0 0 0 0 0 127 0" result="hardAlpha"/>
<feOffset dy="1"/>
<feComposite in2="hardAlpha" operator="out"/>
<feColorMatrix type="matrix" values="0 0 0 0 0.105882 0 0 0 0 0.121569 0 0 0 0 0.141176 0 0 0 0.04 0"/>
<feBlend mode="normal" in2="BackgroundImageFix" result="effect1_dropShadow_3_3201"/>
<feBlend mode="normal" in="SourceGraphic" in2="effect1_dropShadow_3_3201" result="shape"/>
<feColorMatrix in="SourceAlpha" type="matrix" values="0 0 0 0 0 0 0 0 0 0 0 0 0 0 0 0 0 0 127 0" result="hardAlpha"/>
<feOffset dy="1"/>
<feComposite in2="hardAlpha" operator="arithmetic" k2="-1" k3="1"/>
<feColorMatrix type="matrix" values="0 0 0 0 1 0 0 0 0 1 0 0 0 0 1 0 0 0 0.25 0"/>
<feBlend mode="normal" in2="shape" result="effect2_innerShadow_3_3201"/>
</filter>
<filter id="filter1_di_3_3201" x="45" y="0" width="26" height="29" filterUnits="userSpaceOnUse" color-interpolation-filters="sRGB">
<feFlood flood-opacity="0" result="BackgroundImageFix"/>
<feColorMatrix in="SourceAlpha" type="matrix" values="0 0 0 0 0 0 0 0 0 0 0 0 0 0 0 0 0 0 127 0" result="hardAlpha"/>
<feOffset dy="1"/>
<feComposite in2="hardAlpha" operator="out"/>
<feColorMatrix type="matrix" values="0 0 0 0 0.105882 0 0 0 0 0.121569 0 0 0 0 0.141176 0 0 0 0.04 0"/>
<feBlend mode="normal" in2="BackgroundImageFix" result="effect1_dropShadow_3_3201"/>
<feBlend mode="normal" in="SourceGraphic" in2="effect1_dropShadow_3_3201" result="shape"/>
<feColorMatrix in="SourceAlpha" type="matrix" values="0 0 0 0 0 0 0 0 0 0 0 0 0 0 0 0 0 0 127 0" result="hardAlpha"/>
<feOffset dy="1"/>
<feComposite in2="hardAlpha" operator="arithmetic" k2="-1" k3="1"/>
<feColorMatrix type="matrix" values="0 0 0 0 1 0 0 0 0 1 0 0 0 0 1 0 0 0 0.25 0"/>
<feBlend mode="normal" in2="shape" result="effect2_innerShadow_3_3201"/>
</filter>
</defs>
</svg>
