<svg width="32" height="33" viewBox="0 0 32 33" fill="none" xmlns="http://www.w3.org/2000/svg">
<rect x="1" y="1.34375" width="30" height="30" rx="15" fill="#EAEEF2"/>
<path fill-rule="evenodd" clip-rule="evenodd" d="M9 10.8438C9 10.1807 9.26339 9.54482 9.73223 9.07598C10.2011 8.60714 10.837 8.34375 11.5 8.34375H20.25C20.4489 8.34375 20.6397 8.42277 20.7803 8.56342C20.921 8.70407 21 8.89484 21 9.09375V12.5938C21 12.7927 20.921 12.9834 20.7803 13.1241C20.6397 13.2647 20.4489 13.3438 20.25 13.3438C20.0511 13.3438 19.8603 13.2647 19.7197 13.1241C19.579 12.9834 19.5 12.7927 19.5 12.5938V9.84375H11.5C11.2348 9.84375 10.9804 9.94911 10.7929 10.1366C10.6054 10.3242 10.5 10.5785 10.5 10.8438V17.5518C10.8154 17.4141 11.1559 17.3433 11.5 17.3438H14.75C14.9489 17.3438 15.1397 17.4228 15.2803 17.5634C15.421 17.7041 15.5 17.8948 15.5 18.0938C15.5 18.2927 15.421 18.4834 15.2803 18.6241C15.1397 18.7647 14.9489 18.8438 14.75 18.8438H11.5C11.2348 18.8438 10.9804 18.9491 10.7929 19.1366C10.6054 19.3242 10.5 19.5785 10.5 19.8438C10.5 20.109 10.6054 20.3633 10.7929 20.5509C10.9804 20.7384 11.2348 20.8438 11.5 20.8438H17.25C17.4489 20.8438 17.6397 20.9228 17.7803 21.0634C17.921 21.2041 18 21.3948 18 21.5938C18 21.7927 17.921 21.9834 17.7803 22.1241C17.6397 22.2647 17.4489 22.3438 17.25 22.3438H11.5C10.837 22.3438 10.2011 22.0804 9.73223 21.6115C9.26339 21.1427 9 20.5068 9 19.8438V10.8438ZM22.23 18.6337C22.3722 18.7662 22.5602 18.8384 22.7545 18.8349C22.9488 18.8315 23.1342 18.7528 23.2716 18.6154C23.409 18.478 23.4877 18.2926 23.4912 18.0983C23.4946 17.904 23.4225 17.7159 23.29 17.5737L20.785 15.0687C20.6444 14.9283 20.4538 14.8494 20.255 14.8494C20.0562 14.8494 19.8656 14.9283 19.725 15.0687L17.22 17.5728C17.0833 17.7141 17.0076 17.9036 17.0092 18.1002C17.0109 18.2969 17.0896 18.485 17.2286 18.6241C17.3676 18.7632 17.5557 18.8422 17.7523 18.844C17.949 18.8458 18.1385 18.7703 18.28 18.6337L19.505 17.4097V23.5938C19.505 23.7927 19.584 23.9834 19.7247 24.1241C19.8653 24.2647 20.0561 24.3438 20.255 24.3438C20.4539 24.3438 20.6447 24.2647 20.7853 24.1241C20.926 23.9834 21.005 23.7927 21.005 23.5938V17.4097L22.229 18.6337H22.23Z" fill="#57606A"/>
<rect x="1" y="1.34375" width="30" height="30" rx="15" stroke="white" stroke-width="2"/>
</svg>
