<svg width="32" height="33" viewBox="0 0 32 33" fill="none" xmlns="http://www.w3.org/2000/svg">
<rect x="1" y="1.84375" width="30" height="30" rx="15" fill="#EAEEF2"/>
<path fill-rule="evenodd" clip-rule="evenodd" d="M10 11.3438C10 10.6807 10.2634 10.0448 10.7322 9.57598C11.2011 9.10714 11.837 8.84375 12.5 8.84375H21.25C21.4489 8.84375 21.6397 8.92277 21.7803 9.06342C21.921 9.20407 22 9.39484 22 9.59375V22.0938C22 22.2927 21.921 22.4834 21.7803 22.6241C21.6397 22.7647 21.4489 22.8438 21.25 22.8438H18.75C18.5511 22.8438 18.3603 22.7647 18.2197 22.6241C18.079 22.4834 18 22.2927 18 22.0938C18 21.8948 18.079 21.7041 18.2197 21.5634C18.3603 21.4228 18.5511 21.3438 18.75 21.3438H20.5V19.3438H12.5C12.3031 19.3438 12.1106 19.4019 11.9466 19.511C11.7826 19.62 11.6544 19.775 11.5782 19.9565C11.5019 20.1381 11.481 20.3381 11.5179 20.5315C11.5549 20.7249 11.6482 20.9031 11.786 21.0437C11.9252 21.1859 12.0023 21.3776 12.0002 21.5765C11.9982 21.7755 11.9172 21.9655 11.775 22.1047C11.6328 22.244 11.4412 22.3211 11.2422 22.319C11.0432 22.3169 10.8532 22.2359 10.714 22.0938C10.2557 21.6266 9.99929 20.9981 10 20.3438V11.3438ZM20.5 10.3438V17.8438H12.5C12.144 17.8438 11.806 17.9178 11.5 18.0518V11.3438C11.5 11.0785 11.6054 10.8242 11.7929 10.6366C11.9804 10.4491 12.2348 10.3438 12.5 10.3438H20.5ZM13 21.0938V24.3438C13 24.3902 13.0129 24.4357 13.0373 24.4752C13.0617 24.5147 13.0967 24.5466 13.1382 24.5674C13.1797 24.5881 13.2262 24.5969 13.2725 24.5927C13.3187 24.5886 13.3629 24.5716 13.4 24.5437L14.85 23.4567C14.8933 23.4243 14.9459 23.4067 15 23.4067C15.0541 23.4067 15.1067 23.4243 15.15 23.4567L16.6 24.5437C16.6371 24.5716 16.6813 24.5886 16.7276 24.5927C16.7738 24.5969 16.8203 24.5881 16.8618 24.5674C16.9033 24.5466 16.9383 24.5147 16.9627 24.4752C16.9871 24.4357 17 24.3902 17 24.3438V21.0938C17 21.0274 16.9737 20.9639 16.9268 20.917C16.8799 20.8701 16.8163 20.8438 16.75 20.8438H13.25C13.1837 20.8438 13.1201 20.8701 13.0732 20.917C13.0263 20.9639 13 21.0274 13 21.0938Z" fill="#57606A"/>
<rect x="1" y="1.84375" width="30" height="30" rx="15" stroke="white" stroke-width="2"/>
</svg>
