<svg width="17" height="17" viewBox="0 0 17 17" fill="none" xmlns="http://www.w3.org/2000/svg">
<path fill-rule="evenodd" clip-rule="evenodd" d="M5.07813 3.5938C5.07813 3.79272 4.99911 3.98348 4.85846 4.12413C4.71781 4.26479 4.52704 4.3438 4.32813 4.3438C4.12922 4.3438 3.93845 4.26479 3.7978 4.12413C3.65715 3.98348 3.57813 3.79272 3.57813 3.5938C3.57813 3.39489 3.65715 3.20412 3.7978 3.06347C3.93845 2.92282 4.12922 2.8438 4.32813 2.8438C4.52704 2.8438 4.71781 2.92282 4.85846 3.06347C4.99911 3.20412 5.07813 3.39489 5.07813 3.5938V3.5938ZM5.07813 5.7158C5.57854 5.53888 6.0003 5.19075 6.26885 4.73294C6.53741 4.27513 6.63548 3.73712 6.54573 3.214C6.45597 2.69088 6.18418 2.21633 5.77837 1.87422C5.37257 1.53212 4.8589 1.34448 4.32813 1.34448C3.79736 1.34448 3.28369 1.53212 2.87788 1.87422C2.47208 2.21633 2.20029 2.69088 2.11053 3.214C2.02078 3.73712 2.11885 4.27513 2.38741 4.73294C2.65596 5.19075 3.07772 5.53888 3.57813 5.7158V6.5938C3.57813 7.19054 3.81518 7.76284 4.23714 8.18479C4.6591 8.60675 5.23139 8.8438 5.82813 8.8438H7.32813V10.9718C6.82744 11.1487 6.40542 11.497 6.13668 11.955C5.86793 12.413 5.76976 12.9513 5.85952 13.4747C5.94927 13.998 6.22118 14.4729 6.62717 14.8151C7.03316 15.1574 7.5471 15.3452 8.07813 15.3452C8.60916 15.3452 9.1231 15.1574 9.52909 14.8151C9.93508 14.4729 10.207 13.998 10.2967 13.4747C10.3865 12.9513 10.2883 12.413 10.0196 11.955C9.75084 11.497 9.32882 11.1487 8.82813 10.9718V8.8438H10.3281C10.9249 8.8438 11.4972 8.60675 11.9191 8.18479C12.3411 7.76284 12.5781 7.19054 12.5781 6.5938V5.7158C13.0785 5.53888 13.5003 5.19075 13.7689 4.73294C14.0374 4.27513 14.1355 3.73712 14.0457 3.214C13.956 2.69088 13.6842 2.21633 13.2784 1.87422C12.8726 1.53212 12.3589 1.34448 11.8281 1.34448C11.2974 1.34448 10.7837 1.53212 10.3779 1.87422C9.97208 2.21633 9.70029 2.69088 9.61053 3.214C9.52078 3.73712 9.61885 4.27513 9.88741 4.73294C10.156 5.19075 10.5777 5.53888 11.0781 5.7158V6.5938C11.0781 6.79272 10.9991 6.98348 10.8585 7.12413C10.7178 7.26479 10.527 7.3438 10.3281 7.3438H5.82813C5.62922 7.3438 5.43845 7.26479 5.2978 7.12413C5.15715 6.98348 5.07813 6.79272 5.07813 6.5938V5.7158ZM8.82813 13.0938C8.82813 13.2927 8.74911 13.4835 8.60846 13.6241C8.46781 13.7648 8.27704 13.8438 8.07813 13.8438C7.87922 13.8438 7.68845 13.7648 7.5478 13.6241C7.40715 13.4835 7.32813 13.2927 7.32813 13.0938C7.32813 12.8949 7.40715 12.7041 7.5478 12.5635C7.68845 12.4228 7.87922 12.3438 8.07813 12.3438C8.27704 12.3438 8.46781 12.4228 8.60846 12.5635C8.74911 12.7041 8.82813 12.8949 8.82813 13.0938ZM11.8281 4.3438C12.027 4.3438 12.2178 4.26479 12.3585 4.12413C12.4991 3.98348 12.5781 3.79272 12.5781 3.5938C12.5781 3.39489 12.4991 3.20412 12.3585 3.06347C12.2178 2.92282 12.027 2.8438 11.8281 2.8438C11.6292 2.8438 11.4385 2.92282 11.2978 3.06347C11.1571 3.20412 11.0781 3.39489 11.0781 3.5938C11.0781 3.79272 11.1571 3.98348 11.2978 4.12413C11.4385 4.26479 11.6292 4.3438 11.8281 4.3438Z" fill="#57606A"/>
</svg>
