<svg width="16" height="17" viewBox="0 0 16 17" fill="none" xmlns="http://www.w3.org/2000/svg">
<g clip-path="url(#clip0_3_344)">
<path fill-rule="evenodd" clip-rule="evenodd" d="M2 3.15625C2 2.49321 2.26339 1.85732 2.73223 1.38848C3.20108 0.919642 3.83696 0.65625 4.5 0.65625L13.25 0.65625C13.4489 0.65625 13.6397 0.735268 13.7803 0.87592C13.921 1.01657 14 1.20734 14 1.40625V13.9062C14 14.1052 13.921 14.2959 13.7803 14.4366C13.6397 14.5772 13.4489 14.6562 13.25 14.6562H10.75C10.5511 14.6562 10.3603 14.5772 10.2197 14.4366C10.079 14.2959 10 14.1052 10 13.9062C10 13.7073 10.079 13.5166 10.2197 13.3759C10.3603 13.2353 10.5511 13.1562 10.75 13.1562H12.5V11.1562H4.5C4.30308 11.1563 4.11056 11.2144 3.94657 11.3235C3.78257 11.4325 3.65442 11.5875 3.57816 11.769C3.50191 11.9506 3.48096 12.1506 3.51793 12.344C3.5549 12.5374 3.64816 12.7156 3.786 12.8562C3.92524 12.9984 4.0023 13.1901 4.00024 13.389C3.99818 13.588 3.91716 13.778 3.775 13.9172C3.63285 14.0565 3.4412 14.1336 3.24222 14.1315C3.04325 14.1294 2.85324 14.0484 2.714 13.9062C2.25571 13.4391 1.99929 12.8106 2 12.1562V3.15625ZM12.5 2.15625V9.65625H4.5C4.144 9.65625 3.806 9.73025 3.5 9.86425V3.15625C3.5 2.89103 3.60536 2.63668 3.79289 2.44914C3.98043 2.26161 4.23478 2.15625 4.5 2.15625H12.5ZM5 12.9062V16.1562C5 16.2027 5.01293 16.2482 5.03734 16.2877C5.06175 16.3272 5.09667 16.3591 5.1382 16.3799C5.17972 16.4006 5.22621 16.4094 5.27245 16.4052C5.31869 16.4011 5.36286 16.3841 5.4 16.3562L6.85 15.2692C6.89328 15.2368 6.94591 15.2192 7 15.2192C7.05409 15.2192 7.10673 15.2368 7.15 15.2692L8.6 16.3562C8.63714 16.3841 8.68131 16.4011 8.72755 16.4052C8.77379 16.4094 8.82028 16.4006 8.8618 16.3799C8.90333 16.3591 8.93826 16.3272 8.96266 16.2877C8.98707 16.2482 9 16.2027 9 16.1562V12.9062C9 12.8399 8.97366 12.7764 8.92678 12.7295C8.87989 12.6826 8.81631 12.6562 8.75 12.6562H5.25C5.1837 12.6562 5.12011 12.6826 5.07322 12.7295C5.02634 12.7764 5 12.8399 5 12.9062Z" fill="#2BBC8A"/>
</g>
<defs>
<clipPath id="clip0_3_344">
<rect width="16" height="16" fill="white" transform="translate(0 0.65625)"/>
</clipPath>
</defs>
</svg>
