<svg width="791" height="448" viewBox="0 0 791 448" fill="none" xmlns="http://www.w3.org/2000/svg">
<path d="M91.4281 0.450195H79.5312V12.3471H91.4281V0.450195Z" fill="#EFEFEF"/>
<path d="M91.4281 0.450195H79.5312V2.16863H91.4281V0.450195Z" fill="#C8C8C8"/>
<path d="M103.325 7.31738H91.4281V9.03582H103.325V7.31738Z" fill="#A7A7A7"/>
<path d="M78.2094 8.08398H66.3125V19.9809H78.2094V8.08398Z" fill="#EFEFEF"/>
<path d="M78.2094 8.08398H66.3125V9.80242H78.2094V8.08398Z" fill="#C8C8C8"/>
<path d="M90.1063 14.9512H78.2094V16.6696H90.1063V14.9512Z" fill="#A7A7A7"/>
<path d="M64.9906 15.7113H53.0938V27.6082H64.9906V15.7113Z" fill="#EFEFEF"/>
<path d="M64.9906 15.7113H53.0938V17.4297H64.9906V15.7113Z" fill="#C8C8C8"/>
<path d="M76.8875 22.5785H64.9906V24.2969H76.8875V22.5785Z" fill="#A7A7A7"/>
<path d="M51.7719 23.3451H39.875V35.242H51.7719V23.3451Z" fill="#EFEFEF"/>
<path d="M51.7719 23.3451H39.875V25.0635H51.7719V23.3451Z" fill="#C8C8C8"/>
<path d="M63.6688 30.2123H51.7719V31.9307H63.6688V30.2123Z" fill="#A7A7A7"/>
<path d="M38.5531 30.9789H26.6562V42.8758H38.5531V30.9789Z" fill="#EFEFEF"/>
<path d="M38.5531 30.9789H26.6562V32.6973H38.5531V30.9789Z" fill="#C8C8C8"/>
<path d="M50.45 37.8461H38.5531V39.5645H50.45V37.8461Z" fill="#A7A7A7"/>
<path d="M25.3344 38.6061H13.4375V50.503H25.3344V38.6061Z" fill="#EFEFEF"/>
<path d="M25.3344 38.6061H13.4375V40.3245H25.3344V38.6061Z" fill="#C8C8C8"/>
<path d="M37.2313 45.4733H25.3344V47.1917H37.2313V45.4733Z" fill="#A7A7A7"/>
<path d="M12.1156 46.24H0.21875V58.1369H12.1156V46.24Z" fill="#EFEFEF"/>
<path d="M12.1156 46.24H0.21875V47.9584H12.1156V46.24Z" fill="#C8C8C8"/>
<path d="M24.0125 53.1072H12.1156V54.8256H24.0125V53.1072Z" fill="#A7A7A7"/>
<path d="M104.647 8.08398H92.75V19.9809H104.647V8.08398Z" fill="#EFEFEF"/>
<path d="M104.647 8.08398H92.75V9.80242H104.647V8.08398Z" fill="#C8C8C8"/>
<path d="M116.544 14.9512H104.647V16.6696H116.544V14.9512Z" fill="#A7A7A7"/>
<path d="M91.4281 15.7113H79.5312V27.6082H91.4281V15.7113Z" fill="#EFEFEF"/>
<path d="M91.4281 15.7113H79.5312V17.4297H91.4281V15.7113Z" fill="#C8C8C8"/>
<path d="M103.325 22.5785H91.4281V24.2969H103.325V22.5785Z" fill="#A7A7A7"/>
<path d="M78.2094 23.3451H66.3125V35.242H78.2094V23.3451Z" fill="#EFEFEF"/>
<path d="M78.2094 23.3451H66.3125V25.0635H78.2094V23.3451Z" fill="#C8C8C8"/>
<path d="M90.1063 30.2123H78.2094V31.9307H90.1063V30.2123Z" fill="#A7A7A7"/>
<path d="M64.9906 30.9789H53.0938V42.8758H64.9906V30.9789Z" fill="#EFEFEF"/>
<path d="M64.9906 30.9789H53.0938V32.6973H64.9906V30.9789Z" fill="#C8C8C8"/>
<path d="M76.8875 37.8461H64.9906V39.5645H76.8875V37.8461Z" fill="#A7A7A7"/>
<path d="M51.7719 38.6061H39.875V50.503H51.7719V38.6061Z" fill="#EFEFEF"/>
<path d="M51.7719 38.6061H39.875V40.3245H51.7719V38.6061Z" fill="#C8C8C8"/>
<path d="M63.6688 45.4733H51.7719V47.1917H63.6688V45.4733Z" fill="#A7A7A7"/>
<path d="M38.5531 46.24H26.6562V58.1369H38.5531V46.24Z" fill="#EFEFEF"/>
<path d="M38.5531 46.24H26.6562V47.9584H38.5531V46.24Z" fill="#C8C8C8"/>
<path d="M50.45 53.1072H38.5531V54.8256H50.45V53.1072Z" fill="#A7A7A7"/>
<path d="M25.3344 53.8738H13.4375V65.7707H25.3344V53.8738Z" fill="#EFEFEF"/>
<path d="M25.3344 53.8738H13.4375V55.5922H25.3344V53.8738Z" fill="#C8C8C8"/>
<path d="M37.2313 60.741H25.3344V62.4594H37.2313V60.741Z" fill="#A7A7A7"/>
<path d="M117.866 15.7113H105.969V27.6082H117.866V15.7113Z" fill="#EFEFEF"/>
<path d="M117.866 15.7113H105.969V17.4297H117.866V15.7113Z" fill="#C8C8C8"/>
<path d="M129.763 22.5785H117.866V24.2969H129.763V22.5785Z" fill="#A7A7A7"/>
<path d="M104.647 21.3292H92.75V33.2261H104.647V21.3292Z" fill="#D8E887"/>
<path d="M104.647 21.3292H92.75V24.7925H104.647V21.3292Z" fill="#B5C271"/>
<path d="M116.544 28.1964H104.647V31.6597H116.544V28.1964Z" fill="#97A25F"/>
<path d="M91.4281 21.7522H79.5312V33.6491H91.4281V21.7522Z" fill="#8CC569"/>
<path d="M91.4281 21.7522H79.5312V31.4548H91.4281V21.7522Z" fill="#75A558"/>
<path d="M103.325 28.6194H91.4281V38.3219H103.325V28.6194Z" fill="#628A4A"/>
<path d="M78.2094 38.6061H66.3125V50.503H78.2094V38.6061Z" fill="#EFEFEF"/>
<path d="M78.2094 38.6061H66.3125V40.3245H78.2094V38.6061Z" fill="#C8C8C8"/>
<path d="M90.1063 45.4733H78.2094V47.1917H90.1063V45.4733Z" fill="#A7A7A7"/>
<path d="M64.9906 44.2241H53.0938V56.121H64.9906V44.2241Z" fill="#D8E887"/>
<path d="M64.9906 44.2241H53.0938V47.6874H64.9906V44.2241Z" fill="#B5C271"/>
<path d="M76.8875 51.0913H64.9906V54.5546H76.8875V51.0913Z" fill="#97A25F"/>
<path d="M51.7719 46.3391H39.875V58.236H51.7719V46.3391Z" fill="#8CC569"/>
<path d="M51.7719 46.3391H39.875V54.581H51.7719V46.3391Z" fill="#75A558"/>
<path d="M63.6688 53.2063H51.7719V61.4482H63.6688V53.2063Z" fill="#628A4A"/>
<path d="M38.5531 61.5076H26.6562V73.4044H38.5531V61.5076Z" fill="#EFEFEF"/>
<path d="M38.5531 61.5076H26.6562V63.226H38.5531V61.5076Z" fill="#C8C8C8"/>
<path d="M50.45 68.3748H38.5531V70.0932H50.45V68.3748Z" fill="#A7A7A7"/>
<path d="M131.084 23.3451H119.188V35.242H131.084V23.3451Z" fill="#EFEFEF"/>
<path d="M131.084 23.3451H119.188V25.0635H131.084V23.3451Z" fill="#C8C8C8"/>
<path d="M142.981 30.2123H131.084V31.9307H142.981V30.2123Z" fill="#A7A7A7"/>
<path d="M117.866 30.9789H105.969V42.8758H117.866V30.9789Z" fill="#EFEFEF"/>
<path d="M117.866 30.9789H105.969V32.6973H117.866V30.9789Z" fill="#C8C8C8"/>
<path d="M129.763 37.8461H117.866V39.5645H129.763V37.8461Z" fill="#A7A7A7"/>
<path d="M104.647 38.6061H92.75V50.503H104.647V38.6061Z" fill="#EFEFEF"/>
<path d="M104.647 38.6061H92.75V40.3245H104.647V38.6061Z" fill="#C8C8C8"/>
<path d="M116.544 45.4733H104.647V47.1917H116.544V45.4733Z" fill="#A7A7A7"/>
<path d="M91.4281 46.24H79.5312V58.1369H91.4281V46.24Z" fill="#EFEFEF"/>
<path d="M91.4281 46.24H79.5312V47.9584H91.4281V46.24Z" fill="#C8C8C8"/>
<path d="M103.325 53.1072H91.4281V54.8256H103.325V53.1072Z" fill="#A7A7A7"/>
<path d="M78.2094 53.8738H66.3125V65.7707H78.2094V53.8738Z" fill="#EFEFEF"/>
<path d="M78.2094 53.8738H66.3125V55.5922H78.2094V53.8738Z" fill="#C8C8C8"/>
<path d="M90.1063 60.741H78.2094V62.4594H90.1063V60.741Z" fill="#A7A7A7"/>
<path d="M64.9906 61.5076H53.0938V73.4044H64.9906V61.5076Z" fill="#EFEFEF"/>
<path d="M64.9906 61.5076H53.0938V63.226H64.9906V61.5076Z" fill="#C8C8C8"/>
<path d="M76.8875 68.3748H64.9906V70.0932H76.8875V68.3748Z" fill="#A7A7A7"/>
<path d="M51.7719 69.1349H39.875V81.0318H51.7719V69.1349Z" fill="#EFEFEF"/>
<path d="M51.7719 69.1349H39.875V70.8533H51.7719V69.1349Z" fill="#C8C8C8"/>
<path d="M63.6688 76.0021H51.7719V77.7205H63.6688V76.0021Z" fill="#A7A7A7"/>
<path d="M144.303 30.9789H132.406V42.8758H144.303V30.9789Z" fill="#EFEFEF"/>
<path d="M144.303 30.9789H132.406V32.6973H144.303V30.9789Z" fill="#C8C8C8"/>
<path d="M156.2 37.8461H144.303V39.5645H156.2V37.8461Z" fill="#A7A7A7"/>
<path d="M131.084 38.6061H119.188V50.503H131.084V38.6061Z" fill="#EFEFEF"/>
<path d="M131.084 38.6061H119.188V40.3245H131.084V38.6061Z" fill="#C8C8C8"/>
<path d="M142.981 45.4733H131.084V47.1917H142.981V45.4733Z" fill="#A7A7A7"/>
<path d="M117.866 46.24H105.969V58.1369H117.866V46.24Z" fill="#EFEFEF"/>
<path d="M117.866 46.24H105.969V47.9584H117.866V46.24Z" fill="#C8C8C8"/>
<path d="M129.763 53.1072H117.866V54.8256H129.763V53.1072Z" fill="#A7A7A7"/>
<path d="M104.647 53.8738H92.75V65.7707H104.647V53.8738Z" fill="#EFEFEF"/>
<path d="M104.647 53.8738H92.75V55.5922H104.647V53.8738Z" fill="#C8C8C8"/>
<path d="M116.544 60.741H104.647V62.4594H116.544V60.741Z" fill="#A7A7A7"/>
<path d="M91.4281 61.5076H79.5312V73.4044H91.4281V61.5076Z" fill="#EFEFEF"/>
<path d="M91.4281 61.5076H79.5312V63.226H91.4281V61.5076Z" fill="#C8C8C8"/>
<path d="M103.325 68.3748H91.4281V70.0932H103.325V68.3748Z" fill="#A7A7A7"/>
<path d="M78.2094 69.1349H66.3125V81.0318H78.2094V69.1349Z" fill="#EFEFEF"/>
<path d="M78.2094 69.1349H66.3125V70.8533H78.2094V69.1349Z" fill="#C8C8C8"/>
<path d="M90.1063 76.0021H78.2094V77.7205H90.1063V76.0021Z" fill="#A7A7A7"/>
<path d="M64.9906 76.7687H53.0938V88.6656H64.9906V76.7687Z" fill="#EFEFEF"/>
<path d="M64.9906 76.7687H53.0938V78.4871H64.9906V76.7687Z" fill="#C8C8C8"/>
<path d="M76.8875 83.6359H64.9906V85.3543H76.8875V83.6359Z" fill="#A7A7A7"/>
<path d="M157.522 38.6061H145.625V50.503H157.522V38.6061Z" fill="#EFEFEF"/>
<path d="M157.522 38.6061H145.625V40.3245H157.522V38.6061Z" fill="#C8C8C8"/>
<path d="M169.419 45.4733H157.522V47.1917H169.419V45.4733Z" fill="#A7A7A7"/>
<path d="M144.303 46.24H132.406V58.1369H144.303V46.24Z" fill="#EFEFEF"/>
<path d="M144.303 46.24H132.406V47.9584H144.303V46.24Z" fill="#C8C8C8"/>
<path d="M156.2 53.1072H144.303V54.8256H156.2V53.1072Z" fill="#A7A7A7"/>
<path d="M131.084 53.8738H119.188V65.7707H131.084V53.8738Z" fill="#EFEFEF"/>
<path d="M131.084 53.8738H119.188V55.5922H131.084V53.8738Z" fill="#C8C8C8"/>
<path d="M142.981 60.741H131.084V62.4594H142.981V60.741Z" fill="#A7A7A7"/>
<path d="M117.866 61.5076H105.969V73.4044H117.866V61.5076Z" fill="#EFEFEF"/>
<path d="M117.866 61.5076H105.969V63.226H117.866V61.5076Z" fill="#C8C8C8"/>
<path d="M129.763 68.3748H117.866V70.0932H129.763V68.3748Z" fill="#A7A7A7"/>
<path d="M104.647 69.1349H92.75V81.0318H104.647V69.1349Z" fill="#EFEFEF"/>
<path d="M104.647 69.1349H92.75V70.8533H104.647V69.1349Z" fill="#C8C8C8"/>
<path d="M116.544 76.0021H104.647V77.7205H116.544V76.0021Z" fill="#A7A7A7"/>
<path d="M91.4281 76.7687H79.5312V88.6656H91.4281V76.7687Z" fill="#EFEFEF"/>
<path d="M91.4281 76.7687H79.5312V78.4871H91.4281V76.7687Z" fill="#C8C8C8"/>
<path d="M103.325 83.6359H91.4281V85.3543H103.325V83.6359Z" fill="#A7A7A7"/>
<path d="M78.2094 84.4025H66.3125V96.2993H78.2094V84.4025Z" fill="#EFEFEF"/>
<path d="M78.2094 84.4025H66.3125V86.1209H78.2094V84.4025Z" fill="#C8C8C8"/>
<path d="M90.1063 91.2697H78.2094V92.9881H90.1063V91.2697Z" fill="#A7A7A7"/>
<path d="M170.741 46.24H158.844V58.1369H170.741V46.24Z" fill="#EFEFEF"/>
<path d="M170.741 46.24H158.844V47.9584H170.741V46.24Z" fill="#C8C8C8"/>
<path d="M182.638 53.1072H170.741V54.8256H182.638V53.1072Z" fill="#A7A7A7"/>
<path d="M157.522 53.8738H145.625V65.7707H157.522V53.8738Z" fill="#EFEFEF"/>
<path d="M157.522 53.8738H145.625V55.5922H157.522V53.8738Z" fill="#C8C8C8"/>
<path d="M169.419 60.741H157.522V62.4594H169.419V60.741Z" fill="#A7A7A7"/>
<path d="M144.303 61.5076H132.406V73.4044H144.303V61.5076Z" fill="#EFEFEF"/>
<path d="M144.303 61.5076H132.406V63.226H144.303V61.5076Z" fill="#C8C8C8"/>
<path d="M156.2 68.3748H144.303V70.0932H156.2V68.3748Z" fill="#A7A7A7"/>
<path d="M131.084 69.1349H119.188V81.0318H131.084V69.1349Z" fill="#EFEFEF"/>
<path d="M131.084 69.1349H119.188V70.8533H131.084V69.1349Z" fill="#C8C8C8"/>
<path d="M142.981 76.0021H131.084V77.7205H142.981V76.0021Z" fill="#A7A7A7"/>
<path d="M117.866 76.7687H105.969V88.6656H117.866V76.7687Z" fill="#EFEFEF"/>
<path d="M117.866 76.7687H105.969V78.4871H117.866V76.7687Z" fill="#C8C8C8"/>
<path d="M129.763 83.6359H117.866V85.3543H129.763V83.6359Z" fill="#A7A7A7"/>
<path d="M104.647 84.4025H92.75V96.2993H104.647V84.4025Z" fill="#EFEFEF"/>
<path d="M104.647 84.4025H92.75V86.1209H104.647V84.4025Z" fill="#C8C8C8"/>
<path d="M116.544 91.2697H104.647V92.9881H116.544V91.2697Z" fill="#A7A7A7"/>
<path d="M91.4281 92.0297H79.5312V103.927H91.4281V92.0297Z" fill="#EFEFEF"/>
<path d="M91.4281 92.0297H79.5312V93.7481H91.4281V92.0297Z" fill="#C8C8C8"/>
<path d="M103.325 98.8969H91.4281V100.615H103.325V98.8969Z" fill="#A7A7A7"/>
<path d="M183.959 53.8738H172.062V65.7707H183.959V53.8738Z" fill="#EFEFEF"/>
<path d="M183.959 53.8738H172.062V55.5922H183.959V53.8738Z" fill="#C8C8C8"/>
<path d="M195.856 60.741H183.959V62.4594H195.856V60.741Z" fill="#A7A7A7"/>
<path d="M170.741 61.5076H158.844V73.4044H170.741V61.5076Z" fill="#EFEFEF"/>
<path d="M170.741 61.5076H158.844V63.226H170.741V61.5076Z" fill="#C8C8C8"/>
<path d="M182.638 68.3748H170.741V70.0932H182.638V68.3748Z" fill="#A7A7A7"/>
<path d="M157.522 69.1349H145.625V81.0318H157.522V69.1349Z" fill="#EFEFEF"/>
<path d="M157.522 69.1349H145.625V70.8533H157.522V69.1349Z" fill="#C8C8C8"/>
<path d="M169.419 76.0021H157.522V77.7205H169.419V76.0021Z" fill="#A7A7A7"/>
<path d="M144.303 76.7687H132.406V88.6656H144.303V76.7687Z" fill="#EFEFEF"/>
<path d="M144.303 76.7687H132.406V78.4871H144.303V76.7687Z" fill="#C8C8C8"/>
<path d="M156.2 83.6359H144.303V85.3543H156.2V83.6359Z" fill="#A7A7A7"/>
<path d="M131.084 84.4025H119.188V96.2993H131.084V84.4025Z" fill="#EFEFEF"/>
<path d="M131.084 84.4025H119.188V86.1209H131.084V84.4025Z" fill="#C8C8C8"/>
<path d="M142.981 91.2697H131.084V92.9881H142.981V91.2697Z" fill="#A7A7A7"/>
<path d="M117.866 92.0297H105.969V103.927H117.866V92.0297Z" fill="#EFEFEF"/>
<path d="M117.866 92.0297H105.969V93.7481H117.866V92.0297Z" fill="#C8C8C8"/>
<path d="M129.763 98.8969H117.866V100.615H129.763V98.8969Z" fill="#A7A7A7"/>
<path d="M104.647 99.6636H92.75V111.56H104.647V99.6636Z" fill="#EFEFEF"/>
<path d="M104.647 99.6636H92.75V101.382H104.647V99.6636Z" fill="#C8C8C8"/>
<path d="M116.544 106.531H104.647V108.249H116.544V106.531Z" fill="#A7A7A7"/>
<path d="M197.178 61.5076H185.281V73.4044H197.178V61.5076Z" fill="#EFEFEF"/>
<path d="M197.178 61.5076H185.281V63.226H197.178V61.5076Z" fill="#C8C8C8"/>
<path d="M209.075 68.3748H197.178V70.0932H209.075V68.3748Z" fill="#A7A7A7"/>
<path d="M183.959 69.1349H172.062V81.0318H183.959V69.1349Z" fill="#EFEFEF"/>
<path d="M183.959 69.1349H172.062V70.8533H183.959V69.1349Z" fill="#C8C8C8"/>
<path d="M195.856 76.0021H183.959V77.7205H195.856V76.0021Z" fill="#A7A7A7"/>
<path d="M170.741 76.7687H158.844V88.6656H170.741V76.7687Z" fill="#EFEFEF"/>
<path d="M170.741 76.7687H158.844V78.4871H170.741V76.7687Z" fill="#C8C8C8"/>
<path d="M182.638 83.6359H170.741V85.3543H182.638V83.6359Z" fill="#A7A7A7"/>
<path d="M157.522 84.4025H145.625V96.2993H157.522V84.4025Z" fill="#EFEFEF"/>
<path d="M157.522 84.4025H145.625V86.1209H157.522V84.4025Z" fill="#C8C8C8"/>
<path d="M169.419 91.2697H157.522V92.9881H169.419V91.2697Z" fill="#A7A7A7"/>
<path d="M144.303 92.0297H132.406V103.927H144.303V92.0297Z" fill="#EFEFEF"/>
<path d="M144.303 92.0297H132.406V93.7481H144.303V92.0297Z" fill="#C8C8C8"/>
<path d="M156.2 98.8969H144.303V100.615H156.2V98.8969Z" fill="#A7A7A7"/>
<path d="M131.084 99.6636H119.188V111.56H131.084V99.6636Z" fill="#EFEFEF"/>
<path d="M131.084 99.6636H119.188V101.382H131.084V99.6636Z" fill="#C8C8C8"/>
<path d="M142.981 106.531H131.084V108.249H142.981V106.531Z" fill="#A7A7A7"/>
<path d="M117.866 107.297H105.969V119.194H117.866V107.297Z" fill="#EFEFEF"/>
<path d="M117.866 107.297H105.969V109.016H117.866V107.297Z" fill="#C8C8C8"/>
<path d="M129.763 114.165H117.866V115.883H129.763V114.165Z" fill="#A7A7A7"/>
<path d="M210.397 67.119H198.5V79.0159H210.397V67.119Z" fill="#D8E887"/>
<path d="M210.397 67.119H198.5V70.5823H210.397V67.119Z" fill="#B5C271"/>
<path d="M222.294 73.9862H210.397V77.4495H222.294V73.9862Z" fill="#97A25F"/>
<path d="M197.178 76.7687H185.281V88.6656H197.178V76.7687Z" fill="#EFEFEF"/>
<path d="M197.178 76.7687H185.281V78.4871H197.178V76.7687Z" fill="#C8C8C8"/>
<path d="M209.075 83.6359H197.178V85.3543H209.075V83.6359Z" fill="#A7A7A7"/>
<path d="M183.959 84.4025H172.062V96.2993H183.959V84.4025Z" fill="#EFEFEF"/>
<path d="M183.959 84.4025H172.062V86.1209H183.959V84.4025Z" fill="#C8C8C8"/>
<path d="M195.856 91.2697H183.959V92.9881H195.856V91.2697Z" fill="#A7A7A7"/>
<path d="M170.741 92.0297H158.844V103.927H170.741V92.0297Z" fill="#EFEFEF"/>
<path d="M170.741 92.0297H158.844V93.7481H170.741V92.0297Z" fill="#C8C8C8"/>
<path d="M182.638 98.8969H170.741V100.615H182.638V98.8969Z" fill="#A7A7A7"/>
<path d="M157.522 99.6636H145.625V111.56H157.522V99.6636Z" fill="#EFEFEF"/>
<path d="M157.522 99.6636H145.625V101.382H157.522V99.6636Z" fill="#C8C8C8"/>
<path d="M169.419 106.531H157.522V108.249H169.419V106.531Z" fill="#A7A7A7"/>
<path d="M144.303 107.297H132.406V119.194H144.303V107.297Z" fill="#EFEFEF"/>
<path d="M144.303 107.297H132.406V109.016H144.303V107.297Z" fill="#C8C8C8"/>
<path d="M156.2 114.165H144.303V115.883H156.2V114.165Z" fill="#A7A7A7"/>
<path d="M131.084 114.925H119.188V126.821H131.084V114.925Z" fill="#EFEFEF"/>
<path d="M131.084 114.925H119.188V116.643H131.084V114.925Z" fill="#C8C8C8"/>
<path d="M142.981 121.792H131.084V123.51H142.981V121.792Z" fill="#A7A7A7"/>
<path d="M223.616 76.7687H211.719V88.6656H223.616V76.7687Z" fill="#EFEFEF"/>
<path d="M223.616 76.7687H211.719V78.4871H223.616V76.7687Z" fill="#C8C8C8"/>
<path d="M235.512 83.6359H223.616V85.3543H235.512V83.6359Z" fill="#A7A7A7"/>
<path d="M210.397 84.4025H198.5V96.2993H210.397V84.4025Z" fill="#EFEFEF"/>
<path d="M210.397 84.4025H198.5V86.1209H210.397V84.4025Z" fill="#C8C8C8"/>
<path d="M222.294 91.2697H210.397V92.9881H222.294V91.2697Z" fill="#A7A7A7"/>
<path d="M197.178 92.0297H185.281V103.927H197.178V92.0297Z" fill="#EFEFEF"/>
<path d="M197.178 92.0297H185.281V93.7481H197.178V92.0297Z" fill="#C8C8C8"/>
<path d="M209.075 98.8969H197.178V100.615H209.075V98.8969Z" fill="#A7A7A7"/>
<path d="M183.959 99.6636H172.062V111.56H183.959V99.6636Z" fill="#EFEFEF"/>
<path d="M183.959 99.6636H172.062V101.382H183.959V99.6636Z" fill="#C8C8C8"/>
<path d="M195.856 106.531H183.959V108.249H195.856V106.531Z" fill="#A7A7A7"/>
<path d="M170.741 107.297H158.844V119.194H170.741V107.297Z" fill="#EFEFEF"/>
<path d="M170.741 107.297H158.844V109.016H170.741V107.297Z" fill="#C8C8C8"/>
<path d="M182.638 114.165H170.741V115.883H182.638V114.165Z" fill="#A7A7A7"/>
<path d="M157.522 114.925H145.625V126.821H157.522V114.925Z" fill="#EFEFEF"/>
<path d="M157.522 114.925H145.625V116.643H157.522V114.925Z" fill="#C8C8C8"/>
<path d="M169.419 121.792H157.522V123.51H169.419V121.792Z" fill="#A7A7A7"/>
<path d="M144.303 122.558H132.406V134.455H144.303V122.558Z" fill="#EFEFEF"/>
<path d="M144.303 122.558H132.406V124.277H144.303V122.558Z" fill="#C8C8C8"/>
<path d="M156.2 129.426H144.303V131.144H156.2V129.426Z" fill="#A7A7A7"/>
<path d="M236.834 84.4025H224.938V96.2993H236.834V84.4025Z" fill="#EFEFEF"/>
<path d="M236.834 84.4025H224.938V86.1209H236.834V84.4025Z" fill="#C8C8C8"/>
<path d="M248.731 91.2697H236.834V92.9881H248.731V91.2697Z" fill="#A7A7A7"/>
<path d="M223.616 92.0297H211.719V103.927H223.616V92.0297Z" fill="#EFEFEF"/>
<path d="M223.616 92.0297H211.719V93.7481H223.616V92.0297Z" fill="#C8C8C8"/>
<path d="M235.512 98.8969H223.616V100.615H235.512V98.8969Z" fill="#A7A7A7"/>
<path d="M210.397 99.6636H198.5V111.56H210.397V99.6636Z" fill="#EFEFEF"/>
<path d="M210.397 99.6636H198.5V101.382H210.397V99.6636Z" fill="#C8C8C8"/>
<path d="M222.294 106.531H210.397V108.249H222.294V106.531Z" fill="#A7A7A7"/>
<path d="M197.178 107.297H185.281V119.194H197.178V107.297Z" fill="#EFEFEF"/>
<path d="M197.178 107.297H185.281V109.016H197.178V107.297Z" fill="#C8C8C8"/>
<path d="M209.075 114.165H197.178V115.883H209.075V114.165Z" fill="#A7A7A7"/>
<path d="M183.959 114.925H172.062V126.821H183.959V114.925Z" fill="#EFEFEF"/>
<path d="M183.959 114.925H172.062V116.643H183.959V114.925Z" fill="#C8C8C8"/>
<path d="M195.856 121.792H183.959V123.51H195.856V121.792Z" fill="#A7A7A7"/>
<path d="M170.741 122.558H158.844V134.455H170.741V122.558Z" fill="#EFEFEF"/>
<path d="M170.741 122.558H158.844V124.277H170.741V122.558Z" fill="#C8C8C8"/>
<path d="M182.638 129.426H170.741V131.144H182.638V129.426Z" fill="#A7A7A7"/>
<path d="M157.522 130.192H145.625V142.089H157.522V130.192Z" fill="#EFEFEF"/>
<path d="M157.522 130.192H145.625V131.911H157.522V130.192Z" fill="#C8C8C8"/>
<path d="M169.419 137.059H157.522V138.778H169.419V137.059Z" fill="#A7A7A7"/>
<path d="M250.053 92.0297H238.156V103.927H250.053V92.0297Z" fill="#EFEFEF"/>
<path d="M250.053 92.0297H238.156V93.7481H250.053V92.0297Z" fill="#C8C8C8"/>
<path d="M261.95 98.8969H250.053V100.615H261.95V98.8969Z" fill="#A7A7A7"/>
<path d="M236.834 99.6636H224.938V111.56H236.834V99.6636Z" fill="#EFEFEF"/>
<path d="M236.834 99.6636H224.938V101.382H236.834V99.6636Z" fill="#C8C8C8"/>
<path d="M248.731 106.531H236.834V108.249H248.731V106.531Z" fill="#A7A7A7"/>
<path d="M223.616 107.297H211.719V119.194H223.616V107.297Z" fill="#EFEFEF"/>
<path d="M223.616 107.297H211.719V109.016H223.616V107.297Z" fill="#C8C8C8"/>
<path d="M235.512 114.165H223.616V115.883H235.512V114.165Z" fill="#A7A7A7"/>
<path d="M210.397 114.925H198.5V126.821H210.397V114.925Z" fill="#EFEFEF"/>
<path d="M210.397 114.925H198.5V116.643H210.397V114.925Z" fill="#C8C8C8"/>
<path d="M222.294 121.792H210.397V123.51H222.294V121.792Z" fill="#A7A7A7"/>
<path d="M197.178 122.558H185.281V134.455H197.178V122.558Z" fill="#EFEFEF"/>
<path d="M197.178 122.558H185.281V124.277H197.178V122.558Z" fill="#C8C8C8"/>
<path d="M209.075 129.426H197.178V131.144H209.075V129.426Z" fill="#A7A7A7"/>
<path d="M183.959 130.192H172.062V142.089H183.959V130.192Z" fill="#EFEFEF"/>
<path d="M183.959 130.192H172.062V131.911H183.959V130.192Z" fill="#C8C8C8"/>
<path d="M195.856 137.059H183.959V138.778H195.856V137.059Z" fill="#A7A7A7"/>
<path d="M170.741 137.826H158.844V149.723H170.741V137.826Z" fill="#EFEFEF"/>
<path d="M170.741 137.826H158.844V139.544H170.741V137.826Z" fill="#C8C8C8"/>
<path d="M182.638 144.693H170.741V146.412H182.638V144.693Z" fill="#A7A7A7"/>
<path d="M263.272 99.6636H251.375V111.56H263.272V99.6636Z" fill="#EFEFEF"/>
<path d="M263.272 99.6636H251.375V101.382H263.272V99.6636Z" fill="#C8C8C8"/>
<path d="M275.169 106.531H263.272V108.249H275.169V106.531Z" fill="#A7A7A7"/>
<path d="M250.053 107.297H238.156V119.194H250.053V107.297Z" fill="#EFEFEF"/>
<path d="M250.053 107.297H238.156V109.016H250.053V107.297Z" fill="#C8C8C8"/>
<path d="M261.95 114.165H250.053V115.883H261.95V114.165Z" fill="#A7A7A7"/>
<path d="M236.834 114.925H224.938V126.821H236.834V114.925Z" fill="#EFEFEF"/>
<path d="M236.834 114.925H224.938V116.643H236.834V114.925Z" fill="#C8C8C8"/>
<path d="M248.731 121.792H236.834V123.51H248.731V121.792Z" fill="#A7A7A7"/>
<path d="M223.616 122.558H211.719V134.455H223.616V122.558Z" fill="#EFEFEF"/>
<path d="M223.616 122.558H211.719V124.277H223.616V122.558Z" fill="#C8C8C8"/>
<path d="M235.512 129.426H223.616V131.144H235.512V129.426Z" fill="#A7A7A7"/>
<path d="M210.397 130.192H198.5V142.089H210.397V130.192Z" fill="#EFEFEF"/>
<path d="M210.397 130.192H198.5V131.911H210.397V130.192Z" fill="#C8C8C8"/>
<path d="M222.294 137.059H210.397V138.778H222.294V137.059Z" fill="#A7A7A7"/>
<path d="M197.178 137.826H185.281V149.723H197.178V137.826Z" fill="#EFEFEF"/>
<path d="M197.178 137.826H185.281V139.544H197.178V137.826Z" fill="#C8C8C8"/>
<path d="M209.075 144.693H197.178V146.412H209.075V144.693Z" fill="#A7A7A7"/>
<path d="M183.959 145.453H172.062V157.35H183.959V145.453Z" fill="#EFEFEF"/>
<path d="M183.959 145.453H172.062V147.172H183.959V145.453Z" fill="#C8C8C8"/>
<path d="M195.856 152.32H183.959V154.039H195.856V152.32Z" fill="#A7A7A7"/>
<path d="M276.491 107.297H264.594V119.194H276.491V107.297Z" fill="#EFEFEF"/>
<path d="M276.491 107.297H264.594V109.016H276.491V107.297Z" fill="#C8C8C8"/>
<path d="M288.387 114.165H276.491V115.883H288.387V114.165Z" fill="#A7A7A7"/>
<path d="M263.272 114.925H251.375V126.821H263.272V114.925Z" fill="#EFEFEF"/>
<path d="M263.272 114.925H251.375V116.643H263.272V114.925Z" fill="#C8C8C8"/>
<path d="M275.169 121.792H263.272V123.51H275.169V121.792Z" fill="#A7A7A7"/>
<path d="M250.053 122.558H238.156V134.455H250.053V122.558Z" fill="#EFEFEF"/>
<path d="M250.053 122.558H238.156V124.277H250.053V122.558Z" fill="#C8C8C8"/>
<path d="M261.95 129.426H250.053V131.144H261.95V129.426Z" fill="#A7A7A7"/>
<path d="M236.834 130.192H224.938V142.089H236.834V130.192Z" fill="#EFEFEF"/>
<path d="M236.834 130.192H224.938V131.911H236.834V130.192Z" fill="#C8C8C8"/>
<path d="M248.731 137.059H236.834V138.778H248.731V137.059Z" fill="#A7A7A7"/>
<path d="M223.616 137.826H211.719V149.723H223.616V137.826Z" fill="#EFEFEF"/>
<path d="M223.616 137.826H211.719V139.544H223.616V137.826Z" fill="#C8C8C8"/>
<path d="M235.512 144.693H223.616V146.412H235.512V144.693Z" fill="#A7A7A7"/>
<path d="M210.397 145.453H198.5V157.35H210.397V145.453Z" fill="#EFEFEF"/>
<path d="M210.397 145.453H198.5V147.172H210.397V145.453Z" fill="#C8C8C8"/>
<path d="M222.294 152.32H210.397V154.039H222.294V152.32Z" fill="#A7A7A7"/>
<path d="M197.178 153.087H185.281V164.984H197.178V153.087Z" fill="#EFEFEF"/>
<path d="M197.178 153.087H185.281V154.806H197.178V153.087Z" fill="#C8C8C8"/>
<path d="M209.075 159.954H197.178V161.673H209.075V159.954Z" fill="#A7A7A7"/>
<path d="M289.709 114.925H277.812V126.821H289.709V114.925Z" fill="#EFEFEF"/>
<path d="M289.709 114.925H277.812V116.643H289.709V114.925Z" fill="#C8C8C8"/>
<path d="M301.606 121.792H289.709V123.51H301.606V121.792Z" fill="#A7A7A7"/>
<path d="M276.491 122.558H264.594V134.455H276.491V122.558Z" fill="#EFEFEF"/>
<path d="M276.491 122.558H264.594V124.277H276.491V122.558Z" fill="#C8C8C8"/>
<path d="M288.387 129.426H276.491V131.144H288.387V129.426Z" fill="#A7A7A7"/>
<path d="M263.272 124.416H251.375V136.313H263.272V124.416Z" fill="#D8E887"/>
<path d="M263.272 124.416H251.375V131.137H263.272V124.416Z" fill="#B5C271"/>
<path d="M275.169 131.283H263.272V138.005H275.169V131.283Z" fill="#97A25F"/>
<path d="M250.053 125.42H238.156V137.317H250.053V125.42Z" fill="#47A042"/>
<path d="M250.053 125.42H238.156V137.879H250.053V125.42Z" fill="#3B8637"/>
<path d="M261.95 132.287H250.053V144.746H261.95V132.287Z" fill="#32702E"/>
<path d="M236.834 131.547H224.938V143.444H236.834V131.547Z" fill="#47A042"/>
<path d="M236.834 131.547H224.938V145.308H236.834V131.547Z" fill="#3B8637"/>
<path d="M248.731 138.414H236.834V152.175H248.731V138.414Z" fill="#32702E"/>
<path d="M223.616 153.087H211.719V164.984H223.616V153.087Z" fill="#EFEFEF"/>
<path d="M223.616 153.087H211.719V154.806H223.616V153.087Z" fill="#C8C8C8"/>
<path d="M235.512 159.954H223.616V161.673H235.512V159.954Z" fill="#A7A7A7"/>
<path d="M210.397 160.721H198.5V172.618H210.397V160.721Z" fill="#EFEFEF"/>
<path d="M210.397 160.721H198.5V162.439H210.397V160.721Z" fill="#C8C8C8"/>
<path d="M222.294 167.588H210.397V169.307H222.294V167.588Z" fill="#A7A7A7"/>
<path d="M302.928 120.543H291.031V132.439H302.928V120.543Z" fill="#D8E887"/>
<path d="M302.928 120.543H291.031V124.006H302.928V120.543Z" fill="#B5C271"/>
<path d="M314.825 127.41H302.928V130.873H314.825V127.41Z" fill="#97A25F"/>
<path d="M289.709 119.346H277.812V131.243H289.709V119.346Z" fill="#8CC569"/>
<path d="M289.709 119.346H277.812V130.457H289.709V119.346Z" fill="#75A558"/>
<path d="M301.606 126.213H289.709V137.324H301.606V126.213Z" fill="#628A4A"/>
<path d="M276.491 137.826H264.594V149.723H276.491V137.826Z" fill="#EFEFEF"/>
<path d="M276.491 137.826H264.594V139.544H276.491V137.826Z" fill="#C8C8C8"/>
<path d="M288.387 144.693H276.491V146.412H288.387V144.693Z" fill="#A7A7A7"/>
<path d="M263.272 145.453H251.375V157.35H263.272V145.453Z" fill="#EFEFEF"/>
<path d="M263.272 145.453H251.375V147.172H263.272V145.453Z" fill="#C8C8C8"/>
<path d="M275.169 152.32H263.272V154.039H275.169V152.32Z" fill="#A7A7A7"/>
<path d="M250.053 153.087H238.156V164.984H250.053V153.087Z" fill="#EFEFEF"/>
<path d="M250.053 153.087H238.156V154.806H250.053V153.087Z" fill="#C8C8C8"/>
<path d="M261.95 159.954H250.053V161.673H261.95V159.954Z" fill="#A7A7A7"/>
<path d="M236.834 153.18H224.938V165.077H236.834V153.18Z" fill="#8CC569"/>
<path d="M236.834 153.18H224.938V161.422H236.834V153.18Z" fill="#75A558"/>
<path d="M248.731 160.047H236.834V168.289H248.731V160.047Z" fill="#628A4A"/>
<path d="M223.616 141.818H211.719V153.715H223.616V141.818Z" fill="#1D6A23"/>
<path d="M223.616 141.818H211.719V166.511H223.616V141.818Z" fill="#18591D"/>
<path d="M235.512 148.685H223.616V173.378H235.512V148.685Z" fill="#144A19"/>
<path d="M316.147 122.658H304.25V134.554H316.147V122.658Z" fill="#8CC569"/>
<path d="M316.147 122.658H304.25V130.899H316.147V122.658Z" fill="#75A558"/>
<path d="M328.044 129.525H316.147V137.767H328.044V129.525Z" fill="#628A4A"/>
<path d="M302.928 133.887H291.031V145.784H302.928V133.887Z" fill="#D8E887"/>
<path d="M302.928 133.887H291.031V139.016H302.928V133.887Z" fill="#B5C271"/>
<path d="M314.825 140.754H302.928V145.883H314.825V140.754Z" fill="#97A25F"/>
<path d="M289.709 145.453H277.812V157.35H289.709V145.453Z" fill="#EFEFEF"/>
<path d="M289.709 145.453H277.812V147.172H289.709V145.453Z" fill="#C8C8C8"/>
<path d="M301.606 152.32H289.709V154.039H301.606V152.32Z" fill="#A7A7A7"/>
<path d="M276.491 153.087H264.594V164.984H276.491V153.087Z" fill="#EFEFEF"/>
<path d="M276.491 153.087H264.594V154.806H276.491V153.087Z" fill="#C8C8C8"/>
<path d="M288.387 159.954H276.491V161.673H288.387V159.954Z" fill="#A7A7A7"/>
<path d="M263.272 160.721H251.375V172.618H263.272V160.721Z" fill="#EFEFEF"/>
<path d="M263.272 160.721H251.375V162.439H263.272V160.721Z" fill="#C8C8C8"/>
<path d="M275.169 167.588H263.272V169.307H275.169V167.588Z" fill="#A7A7A7"/>
<path d="M250.053 166.332H238.156V178.229H250.053V166.332Z" fill="#D8E887"/>
<path d="M250.053 166.332H238.156V169.796H250.053V166.332Z" fill="#B5C271"/>
<path d="M261.95 173.199H250.053V176.663H261.95V173.199Z" fill="#97A25F"/>
<path d="M236.834 168.447H224.938V180.344H236.834V168.447Z" fill="#8CC569"/>
<path d="M236.834 168.447H224.938V176.689H236.834V168.447Z" fill="#75A558"/>
<path d="M248.731 175.314H236.834V183.556H248.731V175.314Z" fill="#628A4A"/>
<path d="M329.366 137.826H317.469V149.723H329.366V137.826Z" fill="#EFEFEF"/>
<path d="M329.366 137.826H317.469V139.544H329.366V137.826Z" fill="#C8C8C8"/>
<path d="M341.263 144.693H329.366V146.412H341.263V144.693Z" fill="#A7A7A7"/>
<path d="M316.147 145.453H304.25V157.35H316.147V145.453Z" fill="#EFEFEF"/>
<path d="M316.147 145.453H304.25V147.172H316.147V145.453Z" fill="#C8C8C8"/>
<path d="M328.044 152.32H316.147V154.039H328.044V152.32Z" fill="#A7A7A7"/>
<path d="M302.928 153.087H291.031V164.984H302.928V153.087Z" fill="#EFEFEF"/>
<path d="M302.928 153.087H291.031V154.806H302.928V153.087Z" fill="#C8C8C8"/>
<path d="M314.825 159.954H302.928V161.673H314.825V159.954Z" fill="#A7A7A7"/>
<path d="M289.709 160.721H277.812V172.618H289.709V160.721Z" fill="#EFEFEF"/>
<path d="M289.709 160.721H277.812V162.439H289.709V160.721Z" fill="#C8C8C8"/>
<path d="M301.606 167.588H289.709V169.307H301.606V167.588Z" fill="#A7A7A7"/>
<path d="M276.491 166.332H264.594V178.229H276.491V166.332Z" fill="#D8E887"/>
<path d="M276.491 166.332H264.594V169.796H276.491V166.332Z" fill="#B5C271"/>
<path d="M288.387 173.199H276.491V176.663H288.387V173.199Z" fill="#97A25F"/>
<path d="M263.272 175.982H251.375V187.879H263.272V175.982Z" fill="#EFEFEF"/>
<path d="M263.272 175.982H251.375V177.7H263.272V175.982Z" fill="#C8C8C8"/>
<path d="M275.169 182.849H263.272V184.568H275.169V182.849Z" fill="#A7A7A7"/>
<path d="M250.053 179.677H238.156V191.574H250.053V179.677Z" fill="#D8E887"/>
<path d="M250.053 179.677H238.156V184.806H250.053V179.677Z" fill="#B5C271"/>
<path d="M261.95 186.544H250.053V191.673H261.95V186.544Z" fill="#97A25F"/>
<path d="M342.584 133.047H330.688V144.944H342.584V133.047Z" fill="#47A042"/>
<path d="M342.584 133.047H330.688V145.506H342.584V133.047Z" fill="#3B8637"/>
<path d="M354.481 139.915H342.584V152.373H354.481V139.915Z" fill="#32702E"/>
<path d="M329.366 153.087H317.469V164.984H329.366V153.087Z" fill="#EFEFEF"/>
<path d="M329.366 153.087H317.469V154.806H329.366V153.087Z" fill="#C8C8C8"/>
<path d="M341.263 159.954H329.366V161.673H341.263V159.954Z" fill="#A7A7A7"/>
<path d="M316.147 160.721H304.25V172.618H316.147V160.721Z" fill="#EFEFEF"/>
<path d="M316.147 160.721H304.25V162.439H316.147V160.721Z" fill="#C8C8C8"/>
<path d="M328.044 167.588H316.147V169.307H328.044V167.588Z" fill="#A7A7A7"/>
<path d="M302.928 168.348H291.031V180.245H302.928V168.348Z" fill="#EFEFEF"/>
<path d="M302.928 168.348H291.031V170.067H302.928V168.348Z" fill="#C8C8C8"/>
<path d="M314.825 175.215H302.928V176.934H314.825V175.215Z" fill="#A7A7A7"/>
<path d="M289.709 173.966H277.812V185.863H289.709V173.966Z" fill="#D8E887"/>
<path d="M289.709 173.966H277.812V177.429H289.709V173.966Z" fill="#B5C271"/>
<path d="M301.606 180.833H289.709V184.297H301.606V180.833Z" fill="#97A25F"/>
<path d="M276.491 179.677H264.594V191.574H276.491V179.677Z" fill="#D8E887"/>
<path d="M276.491 179.677H264.594V184.806H276.491V179.677Z" fill="#B5C271"/>
<path d="M288.387 186.544H276.491V191.673H288.387V186.544Z" fill="#97A25F"/>
<path d="M263.272 180.404H251.375V192.301H263.272V180.404Z" fill="#8CC569"/>
<path d="M263.272 180.404H251.375V191.514H263.272V180.404Z" fill="#75A558"/>
<path d="M275.169 187.271H263.272V198.381H275.169V187.271Z" fill="#628A4A"/>
<path d="M355.803 151.071H343.906V162.968H355.803V151.071Z" fill="#D8E887"/>
<path d="M355.803 151.071H343.906V154.535H355.803V151.071Z" fill="#B5C271"/>
<path d="M367.7 157.938H355.803V161.402H367.7V157.938Z" fill="#97A25F"/>
<path d="M342.584 160.721H330.688V172.618H342.584V160.721Z" fill="#EFEFEF"/>
<path d="M342.584 160.721H330.688V162.439H342.584V160.721Z" fill="#C8C8C8"/>
<path d="M354.481 167.588H342.584V169.307H354.481V167.588Z" fill="#A7A7A7"/>
<path d="M329.366 168.348H317.469V180.245H329.366V168.348Z" fill="#EFEFEF"/>
<path d="M329.366 168.348H317.469V170.067H329.366V168.348Z" fill="#C8C8C8"/>
<path d="M341.263 175.215H329.366V176.934H341.263V175.215Z" fill="#A7A7A7"/>
<path d="M316.147 175.982H304.25V187.879H316.147V175.982Z" fill="#EFEFEF"/>
<path d="M316.147 175.982H304.25V177.7H316.147V175.982Z" fill="#C8C8C8"/>
<path d="M328.044 182.849H316.147V184.568H328.044V182.849Z" fill="#A7A7A7"/>
<path d="M302.928 183.616H291.031V195.513H302.928V183.616Z" fill="#EFEFEF"/>
<path d="M302.928 183.616H291.031V185.334H302.928V183.616Z" fill="#C8C8C8"/>
<path d="M314.825 190.483H302.928V192.201H314.825V190.483Z" fill="#A7A7A7"/>
<path d="M289.709 178.844H277.812V190.741H289.709V178.844Z" fill="#47A042"/>
<path d="M289.709 178.844H277.812V191.303H289.709V178.844Z" fill="#3B8637"/>
<path d="M301.606 185.711H289.709V198.17H301.606V185.711Z" fill="#32702E"/>
<path d="M276.491 196.861H264.594V208.758H276.491V196.861Z" fill="#D8E887"/>
<path d="M276.491 196.861H264.594V200.324H276.491V196.861Z" fill="#B5C271"/>
<path d="M288.387 203.728H276.491V207.191H288.387V203.728Z" fill="#97A25F"/>
<path d="M369.022 160.721H357.125V172.618H369.022V160.721Z" fill="#EFEFEF"/>
<path d="M369.022 160.721H357.125V162.439H369.022V160.721Z" fill="#C8C8C8"/>
<path d="M380.919 167.588H369.022V169.307H380.919V167.588Z" fill="#A7A7A7"/>
<path d="M355.803 168.348H343.906V180.245H355.803V168.348Z" fill="#EFEFEF"/>
<path d="M355.803 168.348H343.906V170.067H355.803V168.348Z" fill="#C8C8C8"/>
<path d="M367.7 175.215H355.803V176.934H367.7V175.215Z" fill="#A7A7A7"/>
<path d="M342.584 172.043H330.688V183.94H342.584V172.043Z" fill="#D8E887"/>
<path d="M342.584 172.043H330.688V177.172H342.584V172.043Z" fill="#B5C271"/>
<path d="M354.481 178.91H342.584V184.039H354.481V178.91Z" fill="#97A25F"/>
<path d="M329.366 183.616H317.469V195.513H329.366V183.616Z" fill="#EFEFEF"/>
<path d="M329.366 183.616H317.469V185.334H329.366V183.616Z" fill="#C8C8C8"/>
<path d="M341.263 190.483H329.366V192.201H341.263V190.483Z" fill="#A7A7A7"/>
<path d="M316.147 191.243H304.25V203.14H316.147V191.243Z" fill="#EFEFEF"/>
<path d="M316.147 191.243H304.25V192.961H316.147V191.243Z" fill="#C8C8C8"/>
<path d="M328.044 198.11H316.147V199.829H328.044V198.11Z" fill="#A7A7A7"/>
<path d="M302.928 188.031H291.031V199.928H302.928V188.031Z" fill="#8CC569"/>
<path d="M302.928 188.031H291.031V199.141H302.928V188.031Z" fill="#75A558"/>
<path d="M314.825 194.898H302.928V206.008H314.825V194.898Z" fill="#628A4A"/>
<path d="M289.709 202.572H277.812V214.468H289.709V202.572Z" fill="#D8E887"/>
<path d="M289.709 202.572H277.812V207.7H289.709V202.572Z" fill="#B5C271"/>
<path d="M301.606 209.439H289.709V214.568H301.606V209.439Z" fill="#97A25F"/>
<path d="M382.241 168.348H370.344V180.245H382.241V168.348Z" fill="#EFEFEF"/>
<path d="M382.241 168.348H370.344V170.067H382.241V168.348Z" fill="#C8C8C8"/>
<path d="M394.137 175.215H382.241V176.934H394.137V175.215Z" fill="#A7A7A7"/>
<path d="M369.022 168.447H357.125V180.344H369.022V168.447Z" fill="#8CC569"/>
<path d="M369.022 168.447H357.125V176.689H369.022V168.447Z" fill="#75A558"/>
<path d="M380.919 175.314H369.022V183.556H380.919V175.314Z" fill="#628A4A"/>
<path d="M355.803 183.616H343.906V195.513H355.803V183.616Z" fill="#EFEFEF"/>
<path d="M355.803 183.616H343.906V185.334H355.803V183.616Z" fill="#C8C8C8"/>
<path d="M367.7 190.483H355.803V192.201H367.7V190.483Z" fill="#A7A7A7"/>
<path d="M342.584 189.227H330.688V201.124H342.584V189.227Z" fill="#D8E887"/>
<path d="M342.584 189.227H330.688V192.69H342.584V189.227Z" fill="#B5C271"/>
<path d="M354.481 196.094H342.584V199.558H354.481V196.094Z" fill="#97A25F"/>
<path d="M329.366 196.861H317.469V208.758H329.366V196.861Z" fill="#D8E887"/>
<path d="M329.366 196.861H317.469V200.324H329.366V196.861Z" fill="#B5C271"/>
<path d="M341.263 203.728H329.366V207.191H341.263V203.728Z" fill="#97A25F"/>
<path d="M316.147 206.511H304.25V218.408H316.147V206.511Z" fill="#EFEFEF"/>
<path d="M316.147 206.511H304.25V208.229H316.147V206.511Z" fill="#C8C8C8"/>
<path d="M328.044 213.378H316.147V215.096H328.044V213.378Z" fill="#A7A7A7"/>
<path d="M302.928 214.145H291.031V226.041H302.928V214.145Z" fill="#EFEFEF"/>
<path d="M302.928 214.145H291.031V215.863H302.928V214.145Z" fill="#C8C8C8"/>
<path d="M314.825 221.012H302.928V222.73H314.825V221.012Z" fill="#A7A7A7"/>
<path d="M395.459 175.982H383.562V187.879H395.459V175.982Z" fill="#EFEFEF"/>
<path d="M395.459 175.982H383.562V177.7H395.459V175.982Z" fill="#C8C8C8"/>
<path d="M407.356 182.849H395.459V184.568H407.356V182.849Z" fill="#A7A7A7"/>
<path d="M382.241 183.616H370.344V195.513H382.241V183.616Z" fill="#EFEFEF"/>
<path d="M382.241 183.616H370.344V185.334H382.241V183.616Z" fill="#C8C8C8"/>
<path d="M394.137 190.483H382.241V192.201H394.137V190.483Z" fill="#A7A7A7"/>
<path d="M369.022 191.243H357.125V203.14H369.022V191.243Z" fill="#EFEFEF"/>
<path d="M369.022 191.243H357.125V192.961H369.022V191.243Z" fill="#C8C8C8"/>
<path d="M380.919 198.11H369.022V199.829H380.919V198.11Z" fill="#A7A7A7"/>
<path d="M355.803 194.938H343.906V206.834H355.803V194.938Z" fill="#D8E887"/>
<path d="M355.803 194.938H343.906V200.066H355.803V194.938Z" fill="#B5C271"/>
<path d="M367.7 201.805H355.803V206.934H367.7V201.805Z" fill="#97A25F"/>
<path d="M342.584 204.495H330.688V216.392H342.584V204.495Z" fill="#D8E887"/>
<path d="M342.584 204.495H330.688V207.958H342.584V204.495Z" fill="#B5C271"/>
<path d="M354.481 211.362H342.584V214.825H354.481V211.362Z" fill="#97A25F"/>
<path d="M329.366 214.145H317.469V226.041H329.366V214.145Z" fill="#EFEFEF"/>
<path d="M329.366 214.145H317.469V215.863H329.366V214.145Z" fill="#C8C8C8"/>
<path d="M341.263 221.012H329.366V222.73H341.263V221.012Z" fill="#A7A7A7"/>
<path d="M316.147 221.772H304.25V233.669H316.147V221.772Z" fill="#EFEFEF"/>
<path d="M316.147 221.772H304.25V223.49H316.147V221.772Z" fill="#C8C8C8"/>
<path d="M328.044 228.639H316.147V230.357H328.044V228.639Z" fill="#A7A7A7"/>
<path d="M408.678 181.6H396.781V193.497H408.678V181.6Z" fill="#D8E887"/>
<path d="M408.678 181.6H396.781V185.063H408.678V181.6Z" fill="#B5C271"/>
<path d="M420.575 188.467H408.678V191.93H420.575V188.467Z" fill="#97A25F"/>
<path d="M395.459 191.243H383.562V203.14H395.459V191.243Z" fill="#EFEFEF"/>
<path d="M395.459 191.243H383.562V192.961H395.459V191.243Z" fill="#C8C8C8"/>
<path d="M407.356 198.11H395.459V199.829H407.356V198.11Z" fill="#A7A7A7"/>
<path d="M382.241 198.877H370.344V210.774H382.241V198.877Z" fill="#EFEFEF"/>
<path d="M382.241 198.877H370.344V200.595H382.241V198.877Z" fill="#C8C8C8"/>
<path d="M394.137 205.744H382.241V207.462H394.137V205.744Z" fill="#A7A7A7"/>
<path d="M369.022 204.495H357.125V216.392H369.022V204.495Z" fill="#D8E887"/>
<path d="M369.022 204.495H357.125V207.958H369.022V204.495Z" fill="#B5C271"/>
<path d="M380.919 211.362H369.022V214.825H380.919V211.362Z" fill="#97A25F"/>
<path d="M355.803 214.145H343.906V226.041H355.803V214.145Z" fill="#EFEFEF"/>
<path d="M355.803 214.145H343.906V215.863H355.803V214.145Z" fill="#C8C8C8"/>
<path d="M367.7 221.012H355.803V222.73H367.7V221.012Z" fill="#A7A7A7"/>
<path d="M342.584 221.772H330.688V233.669H342.584V221.772Z" fill="#EFEFEF"/>
<path d="M342.584 221.772H330.688V223.49H342.584V221.772Z" fill="#C8C8C8"/>
<path d="M354.481 228.639H342.584V230.357H354.481V228.639Z" fill="#A7A7A7"/>
<path d="M329.366 229.406H317.469V241.302H329.366V229.406Z" fill="#EFEFEF"/>
<path d="M329.366 229.406H317.469V231.124H329.366V229.406Z" fill="#C8C8C8"/>
<path d="M341.263 236.273H329.366V237.991H341.263V236.273Z" fill="#A7A7A7"/>
<path d="M421.897 191.243H410V203.14H421.897V191.243Z" fill="#EFEFEF"/>
<path d="M421.897 191.243H410V192.961H421.897V191.243Z" fill="#C8C8C8"/>
<path d="M433.794 198.11H421.897V199.829H433.794V198.11Z" fill="#A7A7A7"/>
<path d="M408.678 198.877H396.781V210.774H408.678V198.877Z" fill="#EFEFEF"/>
<path d="M408.678 198.877H396.781V200.595H408.678V198.877Z" fill="#C8C8C8"/>
<path d="M420.575 205.744H408.678V207.462H420.575V205.744Z" fill="#A7A7A7"/>
<path d="M395.459 206.511H383.562V218.408H395.459V206.511Z" fill="#EFEFEF"/>
<path d="M395.459 206.511H383.562V208.229H395.459V206.511Z" fill="#C8C8C8"/>
<path d="M407.356 213.378H395.459V215.096H407.356V213.378Z" fill="#A7A7A7"/>
<path d="M382.241 214.145H370.344V226.041H382.241V214.145Z" fill="#EFEFEF"/>
<path d="M382.241 214.145H370.344V215.863H382.241V214.145Z" fill="#C8C8C8"/>
<path d="M394.137 221.012H382.241V222.73H394.137V221.012Z" fill="#A7A7A7"/>
<path d="M369.022 221.772H357.125V233.669H369.022V221.772Z" fill="#EFEFEF"/>
<path d="M369.022 221.772H357.125V223.49H369.022V221.772Z" fill="#C8C8C8"/>
<path d="M380.919 228.639H369.022V230.357H380.919V228.639Z" fill="#A7A7A7"/>
<path d="M355.803 200.754H343.906V212.651H355.803V200.754Z" fill="#1D6A23"/>
<path d="M355.803 200.754H343.906V227.284H355.803V200.754Z" fill="#18591D"/>
<path d="M367.7 207.621H355.803V234.151H367.7V207.621Z" fill="#144A19"/>
<path d="M342.584 235.024H330.688V246.92H342.584V235.024Z" fill="#D8E887"/>
<path d="M342.584 235.024H330.688V238.487H342.584V235.024Z" fill="#B5C271"/>
<path d="M354.481 241.891H342.584V245.354H354.481V241.891Z" fill="#97A25F"/>
<path d="M435.116 193.1H423.219V204.997H435.116V193.1Z" fill="#D8E887"/>
<path d="M435.116 193.1H423.219V199.822H435.116V193.1Z" fill="#B5C271"/>
<path d="M447.012 199.967H435.116V206.689H447.012V199.967Z" fill="#97A25F"/>
<path d="M421.897 198.976H410V210.873H421.897V198.976Z" fill="#8CC569"/>
<path d="M421.897 198.976H410V207.218H421.897V198.976Z" fill="#75A558"/>
<path d="M433.794 205.843H421.897V214.085H433.794V205.843Z" fill="#628A4A"/>
<path d="M408.678 204.918H396.781V216.815H408.678V204.918Z" fill="#8CC569"/>
<path d="M408.678 204.918H396.781V214.62H408.678V204.918Z" fill="#75A558"/>
<path d="M420.575 211.785H408.678V221.488H420.575V211.785Z" fill="#628A4A"/>
<path d="M395.459 219.756H383.562V231.653H395.459V219.756Z" fill="#D8E887"/>
<path d="M395.459 219.756H383.562V223.219H395.459V219.756Z" fill="#B5C271"/>
<path d="M407.356 226.623H395.459V230.086H407.356V226.623Z" fill="#97A25F"/>
<path d="M382.241 227.39H370.344V239.287H382.241V227.39Z" fill="#D8E887"/>
<path d="M382.241 227.39H370.344V230.853H382.241V227.39Z" fill="#B5C271"/>
<path d="M394.137 234.257H382.241V237.72H394.137V234.257Z" fill="#97A25F"/>
<path d="M369.022 237.039H357.125V248.936H369.022V237.039Z" fill="#EFEFEF"/>
<path d="M369.022 237.039H357.125V238.758H369.022V237.039Z" fill="#C8C8C8"/>
<path d="M380.919 243.907H369.022V245.625H380.919V243.907Z" fill="#A7A7A7"/>
<path d="M355.803 244.667H343.906V256.564H355.803V244.667Z" fill="#EFEFEF"/>
<path d="M355.803 244.667H343.906V246.385H355.803V244.667Z" fill="#C8C8C8"/>
<path d="M367.7 251.534H355.803V253.252H367.7V251.534Z" fill="#A7A7A7"/>
<path d="M448.334 206.511H436.438V218.408H448.334V206.511Z" fill="#EFEFEF"/>
<path d="M448.334 206.511H436.438V208.229H448.334V206.511Z" fill="#C8C8C8"/>
<path d="M460.231 213.378H448.334V215.096H460.231V213.378Z" fill="#A7A7A7"/>
<path d="M435.116 214.145H423.219V226.041H435.116V214.145Z" fill="#EFEFEF"/>
<path d="M435.116 214.145H423.219V215.863H435.116V214.145Z" fill="#C8C8C8"/>
<path d="M447.012 221.012H435.116V222.73H447.012V221.012Z" fill="#A7A7A7"/>
<path d="M421.897 221.772H410V233.669H421.897V221.772Z" fill="#EFEFEF"/>
<path d="M421.897 221.772H410V223.49H421.897V221.772Z" fill="#C8C8C8"/>
<path d="M433.794 228.639H421.897V230.357H433.794V228.639Z" fill="#A7A7A7"/>
<path d="M408.678 229.406H396.781V241.302H408.678V229.406Z" fill="#EFEFEF"/>
<path d="M408.678 229.406H396.781V231.124H408.678V229.406Z" fill="#C8C8C8"/>
<path d="M420.575 236.273H408.678V237.991H420.575V236.273Z" fill="#A7A7A7"/>
<path d="M395.459 237.039H383.562V248.936H395.459V237.039Z" fill="#EFEFEF"/>
<path d="M395.459 237.039H383.562V238.758H395.459V237.039Z" fill="#C8C8C8"/>
<path d="M407.356 243.907H395.459V245.625H407.356V243.907Z" fill="#A7A7A7"/>
<path d="M382.241 244.667H370.344V256.564H382.241V244.667Z" fill="#EFEFEF"/>
<path d="M382.241 244.667H370.344V246.385H382.241V244.667Z" fill="#C8C8C8"/>
<path d="M394.137 251.534H382.241V253.252H394.137V251.534Z" fill="#A7A7A7"/>
<path d="M369.022 252.3H357.125V264.197H369.022V252.3Z" fill="#EFEFEF"/>
<path d="M369.022 252.3H357.125V254.019H369.022V252.3Z" fill="#C8C8C8"/>
<path d="M380.919 259.168H369.022V260.886H380.919V259.168Z" fill="#A7A7A7"/>
<path d="M461.553 214.145H449.656V226.041H461.553V214.145Z" fill="#EFEFEF"/>
<path d="M461.553 214.145H449.656V215.863H461.553V214.145Z" fill="#C8C8C8"/>
<path d="M473.45 221.012H461.553V222.73H473.45V221.012Z" fill="#A7A7A7"/>
<path d="M448.334 221.772H436.438V233.669H448.334V221.772Z" fill="#EFEFEF"/>
<path d="M448.334 221.772H436.438V223.49H448.334V221.772Z" fill="#C8C8C8"/>
<path d="M460.231 228.639H448.334V230.357H460.231V228.639Z" fill="#A7A7A7"/>
<path d="M435.116 229.406H423.219V241.302H435.116V229.406Z" fill="#EFEFEF"/>
<path d="M435.116 229.406H423.219V231.124H435.116V229.406Z" fill="#C8C8C8"/>
<path d="M447.012 236.273H435.116V237.991H447.012V236.273Z" fill="#A7A7A7"/>
<path d="M421.897 235.024H410V246.92H421.897V235.024Z" fill="#D8E887"/>
<path d="M421.897 235.024H410V238.487H421.897V235.024Z" fill="#B5C271"/>
<path d="M433.794 241.891H421.897V245.354H433.794V241.891Z" fill="#97A25F"/>
<path d="M408.678 244.667H396.781V256.564H408.678V244.667Z" fill="#EFEFEF"/>
<path d="M408.678 244.667H396.781V246.385H408.678V244.667Z" fill="#C8C8C8"/>
<path d="M420.575 251.534H408.678V253.252H420.575V251.534Z" fill="#A7A7A7"/>
<path d="M395.459 252.3H383.562V264.197H395.459V252.3Z" fill="#EFEFEF"/>
<path d="M395.459 252.3H383.562V254.019H395.459V252.3Z" fill="#C8C8C8"/>
<path d="M407.356 259.168H395.459V260.886H407.356V259.168Z" fill="#A7A7A7"/>
<path d="M382.241 259.934H370.344V271.831H382.241V259.934Z" fill="#EFEFEF"/>
<path d="M382.241 259.934H370.344V261.653H382.241V259.934Z" fill="#C8C8C8"/>
<path d="M394.137 266.801H382.241V268.52H394.137V266.801Z" fill="#A7A7A7"/>
<path d="M474.772 221.772H462.875V233.669H474.772V221.772Z" fill="#EFEFEF"/>
<path d="M474.772 221.772H462.875V223.49H474.772V221.772Z" fill="#C8C8C8"/>
<path d="M486.669 228.639H474.772V230.357H486.669V228.639Z" fill="#A7A7A7"/>
<path d="M461.553 227.39H449.656V239.287H461.553V227.39Z" fill="#D8E887"/>
<path d="M461.553 227.39H449.656V230.853H461.553V227.39Z" fill="#B5C271"/>
<path d="M473.45 234.257H461.553V237.72H473.45V234.257Z" fill="#97A25F"/>
<path d="M448.334 237.039H436.438V248.936H448.334V237.039Z" fill="#EFEFEF"/>
<path d="M448.334 237.039H436.438V238.758H448.334V237.039Z" fill="#C8C8C8"/>
<path d="M460.231 243.907H448.334V245.625H460.231V243.907Z" fill="#A7A7A7"/>
<path d="M435.116 244.667H423.219V256.564H435.116V244.667Z" fill="#EFEFEF"/>
<path d="M435.116 244.667H423.219V246.385H435.116V244.667Z" fill="#C8C8C8"/>
<path d="M447.012 251.534H435.116V253.252H447.012V251.534Z" fill="#A7A7A7"/>
<path d="M421.897 252.3H410V264.197H421.897V252.3Z" fill="#EFEFEF"/>
<path d="M421.897 252.3H410V254.019H421.897V252.3Z" fill="#C8C8C8"/>
<path d="M433.794 259.168H421.897V260.886H433.794V259.168Z" fill="#A7A7A7"/>
<path d="M408.678 259.934H396.781V271.831H408.678V259.934Z" fill="#EFEFEF"/>
<path d="M408.678 259.934H396.781V261.653H408.678V259.934Z" fill="#C8C8C8"/>
<path d="M420.575 266.801H408.678V268.52H420.575V266.801Z" fill="#A7A7A7"/>
<path d="M395.459 238.917H383.562V250.813H395.459V238.917Z" fill="#1D6A23"/>
<path d="M395.459 238.917H383.562V265.447H395.459V238.917Z" fill="#18591D"/>
<path d="M407.356 245.784H395.459V272.314H407.356V245.784Z" fill="#144A19"/>
<path d="M487.991 229.406H476.094V241.302H487.991V229.406Z" fill="#EFEFEF"/>
<path d="M487.991 229.406H476.094V231.124H487.991V229.406Z" fill="#C8C8C8"/>
<path d="M499.888 236.273H487.991V237.991H499.888V236.273Z" fill="#A7A7A7"/>
<path d="M474.772 235.024H462.875V246.92H474.772V235.024Z" fill="#D8E887"/>
<path d="M474.772 235.024H462.875V238.487H474.772V235.024Z" fill="#B5C271"/>
<path d="M486.669 241.891H474.772V245.354H486.669V241.891Z" fill="#97A25F"/>
<path d="M461.553 244.667H449.656V256.564H461.553V244.667Z" fill="#EFEFEF"/>
<path d="M461.553 244.667H449.656V246.385H461.553V244.667Z" fill="#C8C8C8"/>
<path d="M473.45 251.534H461.553V253.252H473.45V251.534Z" fill="#A7A7A7"/>
<path d="M448.334 252.3H436.438V264.197H448.334V252.3Z" fill="#EFEFEF"/>
<path d="M448.334 252.3H436.438V254.019H448.334V252.3Z" fill="#C8C8C8"/>
<path d="M460.231 259.168H448.334V260.886H460.231V259.168Z" fill="#A7A7A7"/>
<path d="M435.116 259.934H423.219V271.831H435.116V259.934Z" fill="#EFEFEF"/>
<path d="M435.116 259.934H423.219V261.653H435.116V259.934Z" fill="#C8C8C8"/>
<path d="M447.012 266.801H435.116V268.52H447.012V266.801Z" fill="#A7A7A7"/>
<path d="M421.897 265.546H410V277.443H421.897V265.546Z" fill="#D8E887"/>
<path d="M421.897 265.546H410V269.009H421.897V265.546Z" fill="#B5C271"/>
<path d="M433.794 272.413H421.897V275.876H433.794V272.413Z" fill="#97A25F"/>
<path d="M408.678 255.77H396.781V267.667H408.678V255.77Z" fill="#1D6A23"/>
<path d="M408.678 255.77H396.781V274.31H408.678V255.77Z" fill="#18591D"/>
<path d="M420.575 262.638H408.678V281.177H420.575V262.638Z" fill="#144A19"/>
<path d="M501.209 235.024H489.312V246.92H501.209V235.024Z" fill="#D8E887"/>
<path d="M501.209 235.024H489.312V238.487H501.209V235.024Z" fill="#B5C271"/>
<path d="M513.106 241.891H501.209V245.354H513.106V241.891Z" fill="#97A25F"/>
<path d="M487.991 229.313H476.094V241.21H487.991V229.313Z" fill="#47A042"/>
<path d="M487.991 229.313H476.094V244.329H487.991V229.313Z" fill="#3B8637"/>
<path d="M499.888 236.18H487.991V251.197H499.888V236.18Z" fill="#32702E"/>
<path d="M474.772 243.08H462.875V254.977H474.772V243.08Z" fill="#8CC569"/>
<path d="M474.772 243.08H462.875V252.783H474.772V243.08Z" fill="#75A558"/>
<path d="M486.669 249.948H474.772V259.65H486.669V249.948Z" fill="#628A4A"/>
<path d="M461.553 254.158H449.656V266.055H461.553V254.158Z" fill="#D8E887"/>
<path d="M461.553 254.158H449.656V260.879H461.553V254.158Z" fill="#B5C271"/>
<path d="M473.45 261.025H461.553V267.747H473.45V261.025Z" fill="#97A25F"/>
<path d="M448.334 267.562H436.438V279.458H448.334V267.562Z" fill="#EFEFEF"/>
<path d="M448.334 267.562H436.438V269.28H448.334V267.562Z" fill="#C8C8C8"/>
<path d="M460.231 274.429H448.334V276.147H460.231V274.429Z" fill="#A7A7A7"/>
<path d="M435.116 273.179H423.219V285.076H435.116V273.179Z" fill="#D8E887"/>
<path d="M435.116 273.179H423.219V276.643H435.116V273.179Z" fill="#B5C271"/>
<path d="M447.012 280.047H435.116V283.51H447.012V280.047Z" fill="#97A25F"/>
<path d="M421.897 278.89H410V290.787H421.897V278.89Z" fill="#D8E887"/>
<path d="M421.897 278.89H410V284.019H421.897V278.89Z" fill="#B5C271"/>
<path d="M433.794 285.757H421.897V290.886H433.794V285.757Z" fill="#97A25F"/>
<path d="M514.428 244.667H502.531V256.564H514.428V244.667Z" fill="#EFEFEF"/>
<path d="M514.428 244.667H502.531V246.385H514.428V244.667Z" fill="#C8C8C8"/>
<path d="M526.325 251.534H514.428V253.252H526.325V251.534Z" fill="#A7A7A7"/>
<path d="M501.209 252.3H489.312V264.197H501.209V252.3Z" fill="#EFEFEF"/>
<path d="M501.209 252.3H489.312V254.019H501.209V252.3Z" fill="#C8C8C8"/>
<path d="M513.106 259.168H501.209V260.886H513.106V259.168Z" fill="#A7A7A7"/>
<path d="M487.991 259.934H476.094V271.831H487.991V259.934Z" fill="#EFEFEF"/>
<path d="M487.991 259.934H476.094V261.653H487.991V259.934Z" fill="#C8C8C8"/>
<path d="M499.888 266.801H487.991V268.52H499.888V266.801Z" fill="#A7A7A7"/>
<path d="M474.772 261.785H462.875V273.682H474.772V261.785Z" fill="#D8E887"/>
<path d="M474.772 261.785H462.875V268.507H474.772V261.785Z" fill="#B5C271"/>
<path d="M486.669 268.652H474.772V275.374H486.669V268.652Z" fill="#97A25F"/>
<path d="M461.553 275.195H449.656V287.092H461.553V275.195Z" fill="#EFEFEF"/>
<path d="M461.553 275.195H449.656V276.914H461.553V275.195Z" fill="#C8C8C8"/>
<path d="M473.45 282.062H461.553V283.781H473.45V282.062Z" fill="#A7A7A7"/>
<path d="M448.334 282.829H436.438V294.726H448.334V282.829Z" fill="#EFEFEF"/>
<path d="M448.334 282.829H436.438V284.548H448.334V282.829Z" fill="#C8C8C8"/>
<path d="M460.231 289.696H448.334V291.415H460.231V289.696Z" fill="#A7A7A7"/>
<path d="M435.116 286.524H423.219V298.421H435.116V286.524Z" fill="#D8E887"/>
<path d="M435.116 286.524H423.219V291.653H435.116V286.524Z" fill="#B5C271"/>
<path d="M447.012 293.391H435.116V298.52H447.012V293.391Z" fill="#97A25F"/>
<path d="M527.647 250.285H515.75V262.181H527.647V250.285Z" fill="#D8E887"/>
<path d="M527.647 250.285H515.75V253.748H527.647V250.285Z" fill="#B5C271"/>
<path d="M539.544 257.152H527.647V260.615H539.544V257.152Z" fill="#97A25F"/>
<path d="M514.428 259.934H502.531V271.831H514.428V259.934Z" fill="#EFEFEF"/>
<path d="M514.428 259.934H502.531V261.653H514.428V259.934Z" fill="#C8C8C8"/>
<path d="M526.325 266.801H514.428V268.52H526.325V266.801Z" fill="#A7A7A7"/>
<path d="M501.209 250.807H489.312V262.704H501.209V250.807Z" fill="#1D6A23"/>
<path d="M501.209 250.807H489.312V267.039H501.209V250.807Z" fill="#18591D"/>
<path d="M513.106 257.674H501.209V273.906H513.106V257.674Z" fill="#144A19"/>
<path d="M487.991 275.195H476.094V287.092H487.991V275.195Z" fill="#EFEFEF"/>
<path d="M487.991 275.195H476.094V276.914H487.991V275.195Z" fill="#C8C8C8"/>
<path d="M499.888 282.062H487.991V283.781H499.888V282.062Z" fill="#A7A7A7"/>
<path d="M474.772 277.052H462.875V288.949H474.772V277.052Z" fill="#D8E887"/>
<path d="M474.772 277.052H462.875V283.774H474.772V277.052Z" fill="#B5C271"/>
<path d="M486.669 283.92H474.772V290.641H486.669V283.92Z" fill="#97A25F"/>
<path d="M461.553 269.762H449.656V281.659H461.553V269.762Z" fill="#1D6A23"/>
<path d="M461.553 269.762H449.656V289.406H461.553V269.762Z" fill="#18591D"/>
<path d="M473.45 276.63H461.553V296.273H473.45V276.63Z" fill="#144A19"/>
<path d="M448.334 298.09H436.438V309.987H448.334V298.09Z" fill="#EFEFEF"/>
<path d="M448.334 298.09H436.438V299.809H448.334V298.09Z" fill="#C8C8C8"/>
<path d="M460.231 304.957H448.334V306.676H460.231V304.957Z" fill="#A7A7A7"/>
<path d="M540.866 257.918H528.969V269.815H540.866V257.918Z" fill="#D8E887"/>
<path d="M540.866 257.918H528.969V261.382H540.866V257.918Z" fill="#B5C271"/>
<path d="M552.763 264.786H540.866V268.249H552.763V264.786Z" fill="#97A25F"/>
<path d="M527.647 267.562H515.75V279.458H527.647V267.562Z" fill="#EFEFEF"/>
<path d="M527.647 267.562H515.75V269.28H527.647V267.562Z" fill="#C8C8C8"/>
<path d="M539.544 274.429H527.647V276.147H539.544V274.429Z" fill="#A7A7A7"/>
<path d="M514.428 275.195H502.531V287.092H514.428V275.195Z" fill="#EFEFEF"/>
<path d="M514.428 275.195H502.531V276.914H514.428V275.195Z" fill="#C8C8C8"/>
<path d="M526.325 282.062H514.428V283.781H526.325V282.062Z" fill="#A7A7A7"/>
<path d="M501.209 282.829H489.312V294.726H501.209V282.829Z" fill="#EFEFEF"/>
<path d="M501.209 282.829H489.312V284.548H501.209V282.829Z" fill="#C8C8C8"/>
<path d="M513.106 289.696H501.209V291.415H513.106V289.696Z" fill="#A7A7A7"/>
<path d="M487.991 290.463H476.094V302.36H487.991V290.463Z" fill="#EFEFEF"/>
<path d="M487.991 290.463H476.094V292.181H487.991V290.463Z" fill="#C8C8C8"/>
<path d="M499.888 297.33H487.991V299.049H499.888V297.33Z" fill="#A7A7A7"/>
<path d="M474.772 298.09H462.875V309.987H474.772V298.09Z" fill="#EFEFEF"/>
<path d="M474.772 298.09H462.875V299.809H474.772V298.09Z" fill="#C8C8C8"/>
<path d="M486.669 304.957H474.772V306.676H486.669V304.957Z" fill="#A7A7A7"/>
<path d="M461.553 299.947H449.656V311.844H461.553V299.947Z" fill="#D8E887"/>
<path d="M461.553 299.947H449.656V306.669H461.553V299.947Z" fill="#B5C271"/>
<path d="M473.45 306.815H461.553V313.536H473.45V306.815Z" fill="#97A25F"/>
<path d="M554.084 267.562H542.188V279.458H554.084V267.562Z" fill="#EFEFEF"/>
<path d="M554.084 267.562H542.188V269.28H554.084V267.562Z" fill="#C8C8C8"/>
<path d="M565.981 274.429H554.084V276.147H565.981V274.429Z" fill="#A7A7A7"/>
<path d="M540.866 273.179H528.969V285.076H540.866V273.179Z" fill="#D8E887"/>
<path d="M540.866 273.179H528.969V276.643H540.866V273.179Z" fill="#B5C271"/>
<path d="M552.763 280.047H540.866V283.51H552.763V280.047Z" fill="#97A25F"/>
<path d="M527.647 282.829H515.75V294.726H527.647V282.829Z" fill="#EFEFEF"/>
<path d="M527.647 282.829H515.75V284.548H527.647V282.829Z" fill="#C8C8C8"/>
<path d="M539.544 289.696H527.647V291.415H539.544V289.696Z" fill="#A7A7A7"/>
<path d="M514.428 290.463H502.531V302.36H514.428V290.463Z" fill="#EFEFEF"/>
<path d="M514.428 290.463H502.531V292.181H514.428V290.463Z" fill="#C8C8C8"/>
<path d="M526.325 297.33H514.428V299.049H526.325V297.33Z" fill="#A7A7A7"/>
<path d="M501.209 298.09H489.312V309.987H501.209V298.09Z" fill="#EFEFEF"/>
<path d="M501.209 298.09H489.312V299.809H501.209V298.09Z" fill="#C8C8C8"/>
<path d="M513.106 304.957H501.209V306.676H513.106V304.957Z" fill="#A7A7A7"/>
<path d="M487.991 305.724H476.094V317.621H487.991V305.724Z" fill="#EFEFEF"/>
<path d="M487.991 305.724H476.094V307.442H487.991V305.724Z" fill="#C8C8C8"/>
<path d="M499.888 312.591H487.991V314.31H499.888V312.591Z" fill="#A7A7A7"/>
<path d="M474.772 313.358H462.875V325.255H474.772V313.358Z" fill="#EFEFEF"/>
<path d="M474.772 313.358H462.875V315.076H474.772V313.358Z" fill="#C8C8C8"/>
<path d="M486.669 320.225H474.772V321.944H486.669V320.225Z" fill="#A7A7A7"/>
<path d="M567.303 275.195H555.406V287.092H567.303V275.195Z" fill="#EFEFEF"/>
<path d="M567.303 275.195H555.406V276.914H567.303V275.195Z" fill="#C8C8C8"/>
<path d="M579.2 282.062H567.303V283.781H579.2V282.062Z" fill="#A7A7A7"/>
<path d="M554.084 282.829H542.188V294.726H554.084V282.829Z" fill="#EFEFEF"/>
<path d="M554.084 282.829H542.188V284.548H554.084V282.829Z" fill="#C8C8C8"/>
<path d="M565.981 289.696H554.084V291.415H565.981V289.696Z" fill="#A7A7A7"/>
<path d="M540.866 290.463H528.969V302.36H540.866V290.463Z" fill="#EFEFEF"/>
<path d="M540.866 290.463H528.969V292.181H540.866V290.463Z" fill="#C8C8C8"/>
<path d="M552.763 297.33H540.866V299.049H552.763V297.33Z" fill="#A7A7A7"/>
<path d="M527.647 298.09H515.75V309.987H527.647V298.09Z" fill="#EFEFEF"/>
<path d="M527.647 298.09H515.75V299.809H527.647V298.09Z" fill="#C8C8C8"/>
<path d="M539.544 304.957H527.647V306.676H539.544V304.957Z" fill="#A7A7A7"/>
<path d="M514.428 305.724H502.531V317.621H514.428V305.724Z" fill="#EFEFEF"/>
<path d="M514.428 305.724H502.531V307.442H514.428V305.724Z" fill="#C8C8C8"/>
<path d="M526.325 312.591H514.428V314.31H526.325V312.591Z" fill="#A7A7A7"/>
<path d="M501.209 309.419H489.312V321.316H501.209V309.419Z" fill="#D8E887"/>
<path d="M501.209 309.419H489.312V314.548H501.209V309.419Z" fill="#B5C271"/>
<path d="M513.106 316.286H501.209V321.415H513.106V316.286Z" fill="#97A25F"/>
<path d="M487.991 318.969H476.094V330.866H487.991V318.969Z" fill="#D8E887"/>
<path d="M487.991 318.969H476.094V322.433H487.991V318.969Z" fill="#B5C271"/>
<path d="M499.888 325.836H487.991V329.3H499.888V325.836Z" fill="#97A25F"/>
<path d="M580.522 273.603H568.625V285.499H580.522V273.603Z" fill="#8CC569"/>
<path d="M580.522 273.603H568.625V283.305H580.522V273.603Z" fill="#75A558"/>
<path d="M592.419 280.47H580.522V290.172H592.419V280.47Z" fill="#628A4A"/>
<path d="M567.303 288.44H555.406V300.337H567.303V288.44Z" fill="#D8E887"/>
<path d="M567.303 288.44H555.406V291.904H567.303V288.44Z" fill="#B5C271"/>
<path d="M579.2 295.308H567.303V298.771H579.2V295.308Z" fill="#97A25F"/>
<path d="M554.084 298.09H542.188V309.987H554.084V298.09Z" fill="#EFEFEF"/>
<path d="M554.084 298.09H542.188V299.809H554.084V298.09Z" fill="#C8C8C8"/>
<path d="M565.981 304.957H554.084V306.676H565.981V304.957Z" fill="#A7A7A7"/>
<path d="M540.866 305.724H528.969V317.621H540.866V305.724Z" fill="#EFEFEF"/>
<path d="M540.866 305.724H528.969V307.442H540.866V305.724Z" fill="#C8C8C8"/>
<path d="M552.763 312.591H540.866V314.31H552.763V312.591Z" fill="#A7A7A7"/>
<path d="M527.647 313.358H515.75V325.255H527.647V313.358Z" fill="#EFEFEF"/>
<path d="M527.647 313.358H515.75V315.076H527.647V313.358Z" fill="#C8C8C8"/>
<path d="M539.544 320.225H527.647V321.944H539.544V320.225Z" fill="#A7A7A7"/>
<path d="M514.428 320.985H502.531V332.882H514.428V320.985Z" fill="#EFEFEF"/>
<path d="M514.428 320.985H502.531V322.704H514.428V320.985Z" fill="#C8C8C8"/>
<path d="M526.325 327.852H514.428V329.571H526.325V327.852Z" fill="#A7A7A7"/>
<path d="M501.209 328.619H489.312V340.516H501.209V328.619Z" fill="#EFEFEF"/>
<path d="M501.209 328.619H489.312V330.337H501.209V328.619Z" fill="#C8C8C8"/>
<path d="M513.106 335.486H501.209V337.205H513.106V335.486Z" fill="#A7A7A7"/>
<path d="M593.741 290.463H581.844V302.36H593.741V290.463Z" fill="#EFEFEF"/>
<path d="M593.741 290.463H581.844V292.181H593.741V290.463Z" fill="#C8C8C8"/>
<path d="M605.638 297.33H593.741V299.049H605.638V297.33Z" fill="#A7A7A7"/>
<path d="M580.522 298.09H568.625V309.987H580.522V298.09Z" fill="#EFEFEF"/>
<path d="M580.522 298.09H568.625V299.809H580.522V298.09Z" fill="#C8C8C8"/>
<path d="M592.419 304.957H580.522V306.676H592.419V304.957Z" fill="#A7A7A7"/>
<path d="M567.303 305.724H555.406V317.621H567.303V305.724Z" fill="#EFEFEF"/>
<path d="M567.303 305.724H555.406V307.442H567.303V305.724Z" fill="#C8C8C8"/>
<path d="M579.2 312.591H567.303V314.31H579.2V312.591Z" fill="#A7A7A7"/>
<path d="M554.084 313.358H542.188V325.255H554.084V313.358Z" fill="#EFEFEF"/>
<path d="M554.084 313.358H542.188V315.076H554.084V313.358Z" fill="#C8C8C8"/>
<path d="M565.981 320.225H554.084V321.944H565.981V320.225Z" fill="#A7A7A7"/>
<path d="M540.866 320.985H528.969V332.882H540.866V320.985Z" fill="#EFEFEF"/>
<path d="M540.866 320.985H528.969V322.704H540.866V320.985Z" fill="#C8C8C8"/>
<path d="M552.763 327.852H540.866V329.571H552.763V327.852Z" fill="#A7A7A7"/>
<path d="M527.647 328.619H515.75V340.516H527.647V328.619Z" fill="#EFEFEF"/>
<path d="M527.647 328.619H515.75V330.337H527.647V328.619Z" fill="#C8C8C8"/>
<path d="M539.544 335.486H527.647V337.205H539.544V335.486Z" fill="#A7A7A7"/>
<path d="M514.428 336.253H502.531V348.15H514.428V336.253Z" fill="#EFEFEF"/>
<path d="M514.428 336.253H502.531V337.971H514.428V336.253Z" fill="#C8C8C8"/>
<path d="M526.325 343.12H514.428V344.838H526.325V343.12Z" fill="#A7A7A7"/>
<path d="M606.959 298.09H595.062V309.987H606.959V298.09Z" fill="#EFEFEF"/>
<path d="M606.959 298.09H595.062V299.809H606.959V298.09Z" fill="#C8C8C8"/>
<path d="M618.856 304.957H606.959V306.676H618.856V304.957Z" fill="#A7A7A7"/>
<path d="M593.741 305.724H581.844V317.621H593.741V305.724Z" fill="#EFEFEF"/>
<path d="M593.741 305.724H581.844V307.442H593.741V305.724Z" fill="#C8C8C8"/>
<path d="M605.638 312.591H593.741V314.31H605.638V312.591Z" fill="#A7A7A7"/>
<path d="M580.522 313.358H568.625V325.255H580.522V313.358Z" fill="#EFEFEF"/>
<path d="M580.522 313.358H568.625V315.076H580.522V313.358Z" fill="#C8C8C8"/>
<path d="M592.419 320.225H580.522V321.944H592.419V320.225Z" fill="#A7A7A7"/>
<path d="M567.303 320.985H555.406V332.882H567.303V320.985Z" fill="#EFEFEF"/>
<path d="M567.303 320.985H555.406V322.704H567.303V320.985Z" fill="#C8C8C8"/>
<path d="M579.2 327.852H567.303V329.571H579.2V327.852Z" fill="#A7A7A7"/>
<path d="M554.084 328.619H542.188V340.516H554.084V328.619Z" fill="#EFEFEF"/>
<path d="M554.084 328.619H542.188V330.337H554.084V328.619Z" fill="#C8C8C8"/>
<path d="M565.981 335.486H554.084V337.205H565.981V335.486Z" fill="#A7A7A7"/>
<path d="M540.866 336.253H528.969V348.15H540.866V336.253Z" fill="#EFEFEF"/>
<path d="M540.866 336.253H528.969V337.971H540.866V336.253Z" fill="#C8C8C8"/>
<path d="M552.763 343.12H540.866V344.838H552.763V343.12Z" fill="#A7A7A7"/>
<path d="M527.647 343.88H515.75V355.777H527.647V343.88Z" fill="#EFEFEF"/>
<path d="M527.647 343.88H515.75V345.598H527.647V343.88Z" fill="#C8C8C8"/>
<path d="M539.544 350.747H527.647V352.466H539.544V350.747Z" fill="#A7A7A7"/>
<path d="M620.178 303.708H608.281V315.605H620.178V303.708Z" fill="#D8E887"/>
<path d="M620.178 303.708H608.281V307.171H620.178V303.708Z" fill="#B5C271"/>
<path d="M632.075 310.575H620.178V314.039H632.075V310.575Z" fill="#97A25F"/>
<path d="M606.959 311.342H595.062V323.239H606.959V311.342Z" fill="#D8E887"/>
<path d="M606.959 311.342H595.062V314.805H606.959V311.342Z" fill="#B5C271"/>
<path d="M618.856 318.209H606.959V321.673H618.856V318.209Z" fill="#97A25F"/>
<path d="M593.741 320.985H581.844V332.882H593.741V320.985Z" fill="#EFEFEF"/>
<path d="M593.741 320.985H581.844V322.704H593.741V320.985Z" fill="#C8C8C8"/>
<path d="M605.638 327.852H593.741V329.571H605.638V327.852Z" fill="#A7A7A7"/>
<path d="M580.522 324.68H568.625V336.577H580.522V324.68Z" fill="#D8E887"/>
<path d="M580.522 324.68H568.625V329.809H580.522V324.68Z" fill="#B5C271"/>
<path d="M592.419 331.547H580.522V336.676H592.419V331.547Z" fill="#97A25F"/>
<path d="M567.303 336.253H555.406V348.15H567.303V336.253Z" fill="#EFEFEF"/>
<path d="M567.303 336.253H555.406V337.971H567.303V336.253Z" fill="#C8C8C8"/>
<path d="M579.2 343.12H567.303V344.838H579.2V343.12Z" fill="#A7A7A7"/>
<path d="M554.084 343.88H542.188V355.777H554.084V343.88Z" fill="#EFEFEF"/>
<path d="M554.084 343.88H542.188V345.598H554.084V343.88Z" fill="#C8C8C8"/>
<path d="M565.981 350.747H554.084V352.466H565.981V350.747Z" fill="#A7A7A7"/>
<path d="M540.866 351.514H528.969V363.411H540.866V351.514Z" fill="#EFEFEF"/>
<path d="M540.866 351.514H528.969V353.232H540.866V351.514Z" fill="#C8C8C8"/>
<path d="M552.763 358.381H540.866V360.099H552.763V358.381Z" fill="#A7A7A7"/>
<path d="M633.397 313.358H621.5V325.255H633.397V313.358Z" fill="#EFEFEF"/>
<path d="M633.397 313.358H621.5V315.076H633.397V313.358Z" fill="#C8C8C8"/>
<path d="M645.294 320.225H633.397V321.944H645.294V320.225Z" fill="#A7A7A7"/>
<path d="M620.178 320.985H608.281V332.882H620.178V320.985Z" fill="#EFEFEF"/>
<path d="M620.178 320.985H608.281V322.704H620.178V320.985Z" fill="#C8C8C8"/>
<path d="M632.075 327.852H620.178V329.571H632.075V327.852Z" fill="#A7A7A7"/>
<path d="M606.959 328.619H595.062V340.516H606.959V328.619Z" fill="#EFEFEF"/>
<path d="M606.959 328.619H595.062V330.337H606.959V328.619Z" fill="#C8C8C8"/>
<path d="M618.856 335.486H606.959V337.205H618.856V335.486Z" fill="#A7A7A7"/>
<path d="M593.741 336.253H581.844V348.15H593.741V336.253Z" fill="#EFEFEF"/>
<path d="M593.741 336.253H581.844V337.971H593.741V336.253Z" fill="#C8C8C8"/>
<path d="M605.638 343.12H593.741V344.838H605.638V343.12Z" fill="#A7A7A7"/>
<path d="M580.522 343.88H568.625V355.777H580.522V343.88Z" fill="#EFEFEF"/>
<path d="M580.522 343.88H568.625V345.598H580.522V343.88Z" fill="#C8C8C8"/>
<path d="M592.419 350.747H580.522V352.466H592.419V350.747Z" fill="#A7A7A7"/>
<path d="M567.303 351.514H555.406V363.411H567.303V351.514Z" fill="#EFEFEF"/>
<path d="M567.303 351.514H555.406V353.232H567.303V351.514Z" fill="#C8C8C8"/>
<path d="M579.2 358.381H567.303V360.099H579.2V358.381Z" fill="#A7A7A7"/>
<path d="M554.084 359.148H542.188V371.044H554.084V359.148Z" fill="#EFEFEF"/>
<path d="M554.084 359.148H542.188V360.866H554.084V359.148Z" fill="#C8C8C8"/>
<path d="M565.981 366.015H554.084V367.733H565.981V366.015Z" fill="#A7A7A7"/>
<path d="M646.616 320.985H634.719V332.882H646.616V320.985Z" fill="#EFEFEF"/>
<path d="M646.616 320.985H634.719V322.704H646.616V320.985Z" fill="#C8C8C8"/>
<path d="M658.513 327.852H646.616V329.571H658.513V327.852Z" fill="#A7A7A7"/>
<path d="M633.397 328.619H621.5V340.516H633.397V328.619Z" fill="#EFEFEF"/>
<path d="M633.397 328.619H621.5V330.337H633.397V328.619Z" fill="#C8C8C8"/>
<path d="M645.294 335.486H633.397V337.205H645.294V335.486Z" fill="#A7A7A7"/>
<path d="M620.178 336.253H608.281V348.15H620.178V336.253Z" fill="#EFEFEF"/>
<path d="M620.178 336.253H608.281V337.971H620.178V336.253Z" fill="#C8C8C8"/>
<path d="M632.075 343.12H620.178V344.838H632.075V343.12Z" fill="#A7A7A7"/>
<path d="M606.959 343.88H595.062V355.777H606.959V343.88Z" fill="#EFEFEF"/>
<path d="M606.959 343.88H595.062V345.598H606.959V343.88Z" fill="#C8C8C8"/>
<path d="M618.856 350.747H606.959V352.466H618.856V350.747Z" fill="#A7A7A7"/>
<path d="M593.741 351.514H581.844V363.411H593.741V351.514Z" fill="#EFEFEF"/>
<path d="M593.741 351.514H581.844V353.232H593.741V351.514Z" fill="#C8C8C8"/>
<path d="M605.638 358.381H593.741V360.099H605.638V358.381Z" fill="#A7A7A7"/>
<path d="M580.522 359.148H568.625V371.044H580.522V359.148Z" fill="#EFEFEF"/>
<path d="M580.522 359.148H568.625V360.866H580.522V359.148Z" fill="#C8C8C8"/>
<path d="M592.419 366.015H580.522V367.733H592.419V366.015Z" fill="#A7A7A7"/>
<path d="M567.303 366.781H555.406V378.678H567.303V366.781Z" fill="#EFEFEF"/>
<path d="M567.303 366.781H555.406V368.5H567.303V366.781Z" fill="#C8C8C8"/>
<path d="M579.2 373.649H567.303V375.367H579.2V373.649Z" fill="#A7A7A7"/>
<path d="M659.834 328.619H647.938V340.516H659.834V328.619Z" fill="#EFEFEF"/>
<path d="M659.834 328.619H647.938V330.337H659.834V328.619Z" fill="#C8C8C8"/>
<path d="M671.731 335.486H659.834V337.205H671.731V335.486Z" fill="#A7A7A7"/>
<path d="M646.616 336.253H634.719V348.15H646.616V336.253Z" fill="#EFEFEF"/>
<path d="M646.616 336.253H634.719V337.971H646.616V336.253Z" fill="#C8C8C8"/>
<path d="M658.513 343.12H646.616V344.838H658.513V343.12Z" fill="#A7A7A7"/>
<path d="M633.397 343.88H621.5V355.777H633.397V343.88Z" fill="#EFEFEF"/>
<path d="M633.397 343.88H621.5V345.598H633.397V343.88Z" fill="#C8C8C8"/>
<path d="M645.294 350.747H633.397V352.466H645.294V350.747Z" fill="#A7A7A7"/>
<path d="M620.178 351.514H608.281V363.411H620.178V351.514Z" fill="#EFEFEF"/>
<path d="M620.178 351.514H608.281V353.232H620.178V351.514Z" fill="#C8C8C8"/>
<path d="M632.075 358.381H620.178V360.099H632.075V358.381Z" fill="#A7A7A7"/>
<path d="M606.959 359.148H595.062V371.044H606.959V359.148Z" fill="#EFEFEF"/>
<path d="M606.959 359.148H595.062V360.866H606.959V359.148Z" fill="#C8C8C8"/>
<path d="M618.856 366.015H606.959V367.733H618.856V366.015Z" fill="#A7A7A7"/>
<path d="M593.741 366.781H581.844V378.678H593.741V366.781Z" fill="#EFEFEF"/>
<path d="M593.741 366.781H581.844V368.5H593.741V366.781Z" fill="#C8C8C8"/>
<path d="M605.638 373.649H593.741V375.367H605.638V373.649Z" fill="#A7A7A7"/>
<path d="M580.522 374.409H568.625V386.306H580.522V374.409Z" fill="#EFEFEF"/>
<path d="M580.522 374.409H568.625V376.127H580.522V374.409Z" fill="#C8C8C8"/>
<path d="M592.419 381.276H580.522V382.994H592.419V381.276Z" fill="#A7A7A7"/>
<path d="M673.053 334.237H661.156V346.134H673.053V334.237Z" fill="#D8E887"/>
<path d="M673.053 334.237H661.156V337.7H673.053V334.237Z" fill="#B5C271"/>
<path d="M684.95 341.104H673.053V344.567H684.95V341.104Z" fill="#97A25F"/>
<path d="M659.834 341.864H647.938V353.761H659.834V341.864Z" fill="#D8E887"/>
<path d="M659.834 341.864H647.938V345.327H659.834V341.864Z" fill="#B5C271"/>
<path d="M671.731 348.731H659.834V352.195H671.731V348.731Z" fill="#97A25F"/>
<path d="M646.616 351.514H634.719V363.411H646.616V351.514Z" fill="#EFEFEF"/>
<path d="M646.616 351.514H634.719V353.232H646.616V351.514Z" fill="#C8C8C8"/>
<path d="M658.513 358.381H646.616V360.099H658.513V358.381Z" fill="#A7A7A7"/>
<path d="M633.397 359.148H621.5V371.044H633.397V359.148Z" fill="#EFEFEF"/>
<path d="M633.397 359.148H621.5V360.866H633.397V359.148Z" fill="#C8C8C8"/>
<path d="M645.294 366.015H633.397V367.733H645.294V366.015Z" fill="#A7A7A7"/>
<path d="M620.178 366.781H608.281V378.678H620.178V366.781Z" fill="#EFEFEF"/>
<path d="M620.178 366.781H608.281V368.5H620.178V366.781Z" fill="#C8C8C8"/>
<path d="M632.075 373.649H620.178V375.367H632.075V373.649Z" fill="#A7A7A7"/>
<path d="M606.959 374.409H595.062V386.306H606.959V374.409Z" fill="#EFEFEF"/>
<path d="M606.959 374.409H595.062V376.127H606.959V374.409Z" fill="#C8C8C8"/>
<path d="M618.856 381.276H606.959V382.994H618.856V381.276Z" fill="#A7A7A7"/>
<path d="M593.741 380.027H581.844V391.923H593.741V380.027Z" fill="#D8E887"/>
<path d="M593.741 380.027H581.844V383.49H593.741V380.027Z" fill="#B5C271"/>
<path d="M605.638 386.894H593.741V390.357H605.638V386.894Z" fill="#97A25F"/>
<path d="M686.272 343.88H674.375V355.777H686.272V343.88Z" fill="#EFEFEF"/>
<path d="M686.272 343.88H674.375V345.598H686.272V343.88Z" fill="#C8C8C8"/>
<path d="M698.169 350.747H686.272V352.466H698.169V350.747Z" fill="#A7A7A7"/>
<path d="M673.053 351.514H661.156V363.411H673.053V351.514Z" fill="#EFEFEF"/>
<path d="M673.053 351.514H661.156V353.232H673.053V351.514Z" fill="#C8C8C8"/>
<path d="M684.95 358.381H673.053V360.099H684.95V358.381Z" fill="#A7A7A7"/>
<path d="M659.834 359.148H647.938V371.044H659.834V359.148Z" fill="#EFEFEF"/>
<path d="M659.834 359.148H647.938V360.866H659.834V359.148Z" fill="#C8C8C8"/>
<path d="M671.731 366.015H659.834V367.733H671.731V366.015Z" fill="#A7A7A7"/>
<path d="M646.616 366.781H634.719V378.678H646.616V366.781Z" fill="#EFEFEF"/>
<path d="M646.616 366.781H634.719V368.5H646.616V366.781Z" fill="#C8C8C8"/>
<path d="M658.513 373.649H646.616V375.367H658.513V373.649Z" fill="#A7A7A7"/>
<path d="M633.397 374.409H621.5V386.306H633.397V374.409Z" fill="#EFEFEF"/>
<path d="M633.397 374.409H621.5V376.127H633.397V374.409Z" fill="#C8C8C8"/>
<path d="M645.294 381.276H633.397V382.994H645.294V381.276Z" fill="#A7A7A7"/>
<path d="M620.178 382.042H608.281V393.939H620.178V382.042Z" fill="#EFEFEF"/>
<path d="M620.178 382.042H608.281V383.761H620.178V382.042Z" fill="#C8C8C8"/>
<path d="M632.075 388.91H620.178V390.628H632.075V388.91Z" fill="#A7A7A7"/>
<path d="M606.959 389.676H595.062V401.573H606.959V389.676Z" fill="#EFEFEF"/>
<path d="M606.959 389.676H595.062V391.395H606.959V389.676Z" fill="#C8C8C8"/>
<path d="M618.856 396.543H606.959V398.262H618.856V396.543Z" fill="#A7A7A7"/>
<path d="M699.491 351.514H687.594V363.411H699.491V351.514Z" fill="#EFEFEF"/>
<path d="M699.491 351.514H687.594V353.232H699.491V351.514Z" fill="#C8C8C8"/>
<path d="M711.388 358.381H699.491V360.099H711.388V358.381Z" fill="#A7A7A7"/>
<path d="M686.272 359.148H674.375V371.044H686.272V359.148Z" fill="#EFEFEF"/>
<path d="M686.272 359.148H674.375V360.866H686.272V359.148Z" fill="#C8C8C8"/>
<path d="M698.169 366.015H686.272V367.733H698.169V366.015Z" fill="#A7A7A7"/>
<path d="M673.053 362.842H661.156V374.739H673.053V362.842Z" fill="#D8E887"/>
<path d="M673.053 362.842H661.156V367.971H673.053V362.842Z" fill="#B5C271"/>
<path d="M684.95 369.709H673.053V374.838H684.95V369.709Z" fill="#97A25F"/>
<path d="M659.834 374.409H647.938V386.306H659.834V374.409Z" fill="#EFEFEF"/>
<path d="M659.834 374.409H647.938V376.127H659.834V374.409Z" fill="#C8C8C8"/>
<path d="M671.731 381.276H659.834V382.994H671.731V381.276Z" fill="#A7A7A7"/>
<path d="M646.616 382.042H634.719V393.939H646.616V382.042Z" fill="#EFEFEF"/>
<path d="M646.616 382.042H634.719V383.761H646.616V382.042Z" fill="#C8C8C8"/>
<path d="M658.513 388.91H646.616V390.628H658.513V388.91Z" fill="#A7A7A7"/>
<path d="M633.397 389.676H621.5V401.573H633.397V389.676Z" fill="#EFEFEF"/>
<path d="M633.397 389.676H621.5V391.395H633.397V389.676Z" fill="#C8C8C8"/>
<path d="M645.294 396.543H633.397V398.262H645.294V396.543Z" fill="#A7A7A7"/>
<path d="M620.178 397.303H608.281V409.2H620.178V397.303Z" fill="#EFEFEF"/>
<path d="M620.178 397.303H608.281V399.022H620.178V397.303Z" fill="#C8C8C8"/>
<path d="M632.075 404.171H620.178V405.889H632.075V404.171Z" fill="#A7A7A7"/>
<path d="M712.709 359.148H700.812V371.044H712.709V359.148Z" fill="#EFEFEF"/>
<path d="M712.709 359.148H700.812V360.866H712.709V359.148Z" fill="#C8C8C8"/>
<path d="M724.606 366.015H712.709V367.733H724.606V366.015Z" fill="#A7A7A7"/>
<path d="M699.491 364.759H687.594V376.656H699.491V364.759Z" fill="#D8E887"/>
<path d="M699.491 364.759H687.594V368.222H699.491V364.759Z" fill="#B5C271"/>
<path d="M711.388 371.626H699.491V375.089H711.388V371.626Z" fill="#97A25F"/>
<path d="M686.272 374.409H674.375V386.306H686.272V374.409Z" fill="#EFEFEF"/>
<path d="M686.272 374.409H674.375V376.127H686.272V374.409Z" fill="#C8C8C8"/>
<path d="M698.169 381.276H686.272V382.994H698.169V381.276Z" fill="#A7A7A7"/>
<path d="M673.053 382.042H661.156V393.939H673.053V382.042Z" fill="#EFEFEF"/>
<path d="M673.053 382.042H661.156V383.761H673.053V382.042Z" fill="#C8C8C8"/>
<path d="M684.95 388.91H673.053V390.628H684.95V388.91Z" fill="#A7A7A7"/>
<path d="M659.834 389.676H647.938V401.573H659.834V389.676Z" fill="#EFEFEF"/>
<path d="M659.834 389.676H647.938V391.395H659.834V389.676Z" fill="#C8C8C8"/>
<path d="M671.731 396.543H659.834V398.262H671.731V396.543Z" fill="#A7A7A7"/>
<path d="M646.616 397.303H634.719V409.2H646.616V397.303Z" fill="#EFEFEF"/>
<path d="M646.616 397.303H634.719V399.022H646.616V397.303Z" fill="#C8C8C8"/>
<path d="M658.513 404.171H646.616V405.889H658.513V404.171Z" fill="#A7A7A7"/>
<path d="M633.397 404.937H621.5V416.834H633.397V404.937Z" fill="#EFEFEF"/>
<path d="M633.397 404.937H621.5V406.656H633.397V404.937Z" fill="#C8C8C8"/>
<path d="M645.294 411.804H633.397V413.523H645.294V411.804Z" fill="#A7A7A7"/>
<path d="M725.928 366.781H714.031V378.678H725.928V366.781Z" fill="#EFEFEF"/>
<path d="M725.928 366.781H714.031V368.5H725.928V366.781Z" fill="#C8C8C8"/>
<path d="M737.825 373.649H725.928V375.367H737.825V373.649Z" fill="#A7A7A7"/>
<path d="M712.709 374.409H700.812V386.306H712.709V374.409Z" fill="#EFEFEF"/>
<path d="M712.709 374.409H700.812V376.127H712.709V374.409Z" fill="#C8C8C8"/>
<path d="M724.606 381.276H712.709V382.994H724.606V381.276Z" fill="#A7A7A7"/>
<path d="M699.491 382.042H687.594V393.939H699.491V382.042Z" fill="#EFEFEF"/>
<path d="M699.491 382.042H687.594V383.761H699.491V382.042Z" fill="#C8C8C8"/>
<path d="M711.388 388.91H699.491V390.628H711.388V388.91Z" fill="#A7A7A7"/>
<path d="M686.272 389.676H674.375V401.573H686.272V389.676Z" fill="#EFEFEF"/>
<path d="M686.272 389.676H674.375V391.395H686.272V389.676Z" fill="#C8C8C8"/>
<path d="M698.169 396.543H686.272V398.262H698.169V396.543Z" fill="#A7A7A7"/>
<path d="M673.053 397.303H661.156V409.2H673.053V397.303Z" fill="#EFEFEF"/>
<path d="M673.053 397.303H661.156V399.022H673.053V397.303Z" fill="#C8C8C8"/>
<path d="M684.95 404.171H673.053V405.889H684.95V404.171Z" fill="#A7A7A7"/>
<path d="M659.834 402.922H647.938V414.818H659.834V402.922Z" fill="#D8E887"/>
<path d="M659.834 402.922H647.938V406.385H659.834V402.922Z" fill="#B5C271"/>
<path d="M671.731 409.789H659.834V413.252H671.731V409.789Z" fill="#97A25F"/>
<path d="M646.616 405.036H634.719V416.933H646.616V405.036Z" fill="#8CC569"/>
<path d="M646.616 405.036H634.719V413.278H646.616V405.036Z" fill="#75A558"/>
<path d="M658.513 411.904H646.616V420.146H658.513V411.904Z" fill="#628A4A"/>
<path d="M739.147 368.632H727.25V380.529H739.147V368.632Z" fill="#D8E887"/>
<path d="M739.147 368.632H727.25V375.354H739.147V368.632Z" fill="#B5C271"/>
<path d="M751.044 375.499H739.147V382.221H751.044V375.499Z" fill="#97A25F"/>
<path d="M725.928 382.042H714.031V393.939H725.928V382.042Z" fill="#EFEFEF"/>
<path d="M725.928 382.042H714.031V383.761H725.928V382.042Z" fill="#C8C8C8"/>
<path d="M737.825 388.91H725.928V390.628H737.825V388.91Z" fill="#A7A7A7"/>
<path d="M712.709 389.676H700.812V401.573H712.709V389.676Z" fill="#EFEFEF"/>
<path d="M712.709 389.676H700.812V391.395H712.709V389.676Z" fill="#C8C8C8"/>
<path d="M724.606 396.543H712.709V398.262H724.606V396.543Z" fill="#A7A7A7"/>
<path d="M699.491 397.303H687.594V409.2H699.491V397.303Z" fill="#EFEFEF"/>
<path d="M699.491 397.303H687.594V399.022H699.491V397.303Z" fill="#C8C8C8"/>
<path d="M711.388 404.171H699.491V405.889H711.388V404.171Z" fill="#A7A7A7"/>
<path d="M686.272 404.937H674.375V416.834H686.272V404.937Z" fill="#EFEFEF"/>
<path d="M686.272 404.937H674.375V406.656H686.272V404.937Z" fill="#C8C8C8"/>
<path d="M698.169 411.804H686.272V413.523H698.169V411.804Z" fill="#A7A7A7"/>
<path d="M673.053 412.571H661.156V424.468H673.053V412.571Z" fill="#EFEFEF"/>
<path d="M673.053 412.571H661.156V414.29H673.053V412.571Z" fill="#C8C8C8"/>
<path d="M684.95 419.438H673.053V421.157H684.95V419.438Z" fill="#A7A7A7"/>
<path d="M659.834 420.198H647.938V432.095H659.834V420.198Z" fill="#EFEFEF"/>
<path d="M659.834 420.198H647.938V421.917H659.834V420.198Z" fill="#C8C8C8"/>
<path d="M671.731 427.066H659.834V428.784H671.731V427.066Z" fill="#A7A7A7"/>
<path d="M752.366 378.103H740.469V390H752.366V378.103Z" fill="#D8E887"/>
<path d="M752.366 378.103H740.469V383.232H752.366V378.103Z" fill="#B5C271"/>
<path d="M764.263 384.97H752.366V390.099H764.263V384.97Z" fill="#97A25F"/>
<path d="M739.147 389.676H727.25V401.573H739.147V389.676Z" fill="#EFEFEF"/>
<path d="M739.147 389.676H727.25V391.395H739.147V389.676Z" fill="#C8C8C8"/>
<path d="M751.044 396.543H739.147V398.262H751.044V396.543Z" fill="#A7A7A7"/>
<path d="M725.928 397.303H714.031V409.2H725.928V397.303Z" fill="#EFEFEF"/>
<path d="M725.928 397.303H714.031V399.022H725.928V397.303Z" fill="#C8C8C8"/>
<path d="M737.825 404.171H725.928V405.889H737.825V404.171Z" fill="#A7A7A7"/>
<path d="M712.709 404.937H700.812V416.834H712.709V404.937Z" fill="#EFEFEF"/>
<path d="M712.709 404.937H700.812V406.656H712.709V404.937Z" fill="#C8C8C8"/>
<path d="M724.606 411.804H712.709V413.523H724.606V411.804Z" fill="#A7A7A7"/>
<path d="M699.491 412.571H687.594V424.468H699.491V412.571Z" fill="#EFEFEF"/>
<path d="M699.491 412.571H687.594V414.29H699.491V412.571Z" fill="#C8C8C8"/>
<path d="M711.388 419.438H699.491V421.157H711.388V419.438Z" fill="#A7A7A7"/>
<path d="M686.272 420.198H674.375V432.095H686.272V420.198Z" fill="#EFEFEF"/>
<path d="M686.272 420.198H674.375V421.917H686.272V420.198Z" fill="#C8C8C8"/>
<path d="M698.169 427.066H686.272V428.784H698.169V427.066Z" fill="#A7A7A7"/>
<path d="M673.053 427.832H661.156V439.729H673.053V427.832Z" fill="#EFEFEF"/>
<path d="M673.053 427.832H661.156V429.551H673.053V427.832Z" fill="#C8C8C8"/>
<path d="M684.95 434.699H673.053V436.418H684.95V434.699Z" fill="#A7A7A7"/>
<path d="M765.584 389.676H753.688V401.573H765.584V389.676Z" fill="#EFEFEF"/>
<path d="M765.584 389.676H753.688V391.395H765.584V389.676Z" fill="#C8C8C8"/>
<path d="M777.481 396.543H765.584V398.262H777.481V396.543Z" fill="#A7A7A7"/>
<path d="M752.366 397.303H740.469V409.2H752.366V397.303Z" fill="#EFEFEF"/>
<path d="M752.366 397.303H740.469V399.022H752.366V397.303Z" fill="#C8C8C8"/>
<path d="M764.263 404.171H752.366V405.889H764.263V404.171Z" fill="#A7A7A7"/>
<path d="M739.147 404.937H727.25V416.834H739.147V404.937Z" fill="#EFEFEF"/>
<path d="M739.147 404.937H727.25V406.656H739.147V404.937Z" fill="#C8C8C8"/>
<path d="M751.044 411.804H739.147V413.523H751.044V411.804Z" fill="#A7A7A7"/>
<path d="M725.928 397.211H714.031V409.108H725.928V397.211Z" fill="#47A042"/>
<path d="M725.928 397.211H714.031V412.227H725.928V397.211Z" fill="#3B8637"/>
<path d="M737.825 404.078H725.928V419.095H737.825V404.078Z" fill="#32702E"/>
<path d="M712.709 420.198H700.812V432.095H712.709V420.198Z" fill="#EFEFEF"/>
<path d="M712.709 420.198H700.812V421.917H712.709V420.198Z" fill="#C8C8C8"/>
<path d="M724.606 427.066H712.709V428.784H724.606V427.066Z" fill="#A7A7A7"/>
<path d="M699.491 427.832H687.594V439.729H699.491V427.832Z" fill="#EFEFEF"/>
<path d="M699.491 427.832H687.594V429.551H699.491V427.832Z" fill="#C8C8C8"/>
<path d="M711.388 434.699H699.491V436.418H711.388V434.699Z" fill="#A7A7A7"/>
<path d="M686.272 435.466H674.375V447.363H686.272V435.466Z" fill="#EFEFEF"/>
<path d="M686.272 435.466H674.375V437.185H686.272V435.466Z" fill="#C8C8C8"/>
<path d="M698.169 442.333H686.272V444.052H698.169V442.333Z" fill="#A7A7A7"/>
<path d="M778.803 397.303H766.906V409.2H778.803V397.303Z" fill="#EFEFEF"/>
<path d="M778.803 397.303H766.906V399.022H778.803V397.303Z" fill="#C8C8C8"/>
<path d="M790.7 404.171H778.803V405.889H790.7V404.171Z" fill="#A7A7A7"/>
<path d="M765.584 404.937H753.688V416.834H765.584V404.937Z" fill="#EFEFEF"/>
<path d="M765.584 404.937H753.688V406.656H765.584V404.937Z" fill="#C8C8C8"/>
<path d="M777.481 411.804H765.584V413.523H777.481V411.804Z" fill="#A7A7A7"/>
<path d="M752.366 412.571H740.469V424.468H752.366V412.571Z" fill="#EFEFEF"/>
<path d="M752.366 412.571H740.469V414.29H752.366V412.571Z" fill="#C8C8C8"/>
<path d="M764.263 419.438H752.366V421.157H764.263V419.438Z" fill="#A7A7A7"/>
<path d="M739.147 420.198H727.25V432.095H739.147V420.198Z" fill="#EFEFEF"/>
<path d="M739.147 420.198H727.25V421.917H739.147V420.198Z" fill="#C8C8C8"/>
<path d="M751.044 427.066H739.147V428.784H751.044V427.066Z" fill="#A7A7A7"/>
<path d="M725.928 422.056H714.031V433.953H725.928V422.056Z" fill="#D8E887"/>
<path d="M725.928 422.056H714.031V428.777H725.928V422.056Z" fill="#B5C271"/>
<path d="M737.825 428.923H725.928V435.645H737.825V428.923Z" fill="#97A25F"/>
<path d="M712.709 435.466H700.812V447.363H712.709V435.466Z" fill="#EFEFEF"/>
<path d="M712.709 435.466H700.812V437.185H712.709V435.466Z" fill="#C8C8C8"/>
<path d="M724.606 442.333H712.709V444.052H724.606V442.333Z" fill="#A7A7A7"/>
</svg>
