<svg width="21" height="20" viewBox="0 0 21 20" fill="none" xmlns="http://www.w3.org/2000/svg">
<path fill-rule="evenodd" clip-rule="evenodd" d="M10.425 0.949219C10.6101 0.949099 10.7915 1.00079 10.9487 1.09844C11.106 1.19609 11.2327 1.3358 11.3146 1.50176L13.8024 6.54472L19.3675 7.3537C19.5505 7.38029 19.7225 7.45754 19.8639 7.57673C20.0053 7.69591 20.1106 7.85229 20.1678 8.02817C20.225 8.20405 20.2319 8.39243 20.1876 8.57201C20.1434 8.75159 20.0498 8.91521 19.9174 9.04438L15.891 12.9704L16.8414 18.5117C16.8727 18.694 16.8524 18.8814 16.7828 19.0528C16.7132 19.2242 16.5969 19.3727 16.4473 19.4815C16.2977 19.5903 16.1206 19.655 15.9361 19.6684C15.7516 19.6818 15.567 19.6433 15.4032 19.5573L10.425 16.9399L5.44684 19.5573C5.28318 19.6432 5.09875 19.6817 4.91438 19.6683C4.73001 19.655 4.55304 19.5903 4.40346 19.4817C4.25388 19.3731 4.13765 19.2248 4.06788 19.0537C3.99811 18.8825 3.97759 18.6952 4.00864 18.513L4.96039 12.969L0.931317 9.04438C0.798556 8.91527 0.704614 8.75154 0.660136 8.57177C0.615659 8.392 0.622423 8.20336 0.679664 8.02724C0.736905 7.85111 0.842333 7.69454 0.984001 7.57526C1.12567 7.45599 1.29791 7.37878 1.48122 7.35238L7.04631 6.54472L9.5354 1.50176C9.61733 1.3358 9.74408 1.19609 9.9013 1.09844C10.0585 1.00079 10.2399 0.949099 10.425 0.949219V0.949219ZM10.425 4.1812L8.59423 7.88906C8.52313 8.03302 8.41814 8.15755 8.28827 8.25196C8.1584 8.34636 8.00755 8.40781 7.84869 8.43103L3.75484 9.02588L6.71584 11.9129C6.83105 12.025 6.91724 12.1635 6.96698 12.3165C7.01672 12.4694 7.02852 12.6321 7.00137 12.7906L6.30342 16.8672L9.96369 14.9426C10.106 14.8678 10.2643 14.8287 10.425 14.8287C10.5858 14.8287 10.7441 14.8678 10.8864 14.9426L14.548 16.8672L13.8474 12.7906C13.8202 12.6321 13.832 12.4694 13.8817 12.3165C13.9315 12.1635 14.0177 12.025 14.1329 11.9129L17.0939 9.0272L13.0014 8.43235C12.8425 8.40914 12.6916 8.34768 12.5618 8.25328C12.4319 8.15887 12.3269 8.03434 12.2558 7.89038L10.425 4.17988V4.1812Z" fill="#00000F"/>
</svg>
