<svg width="157" height="157" viewBox="0 0 157 157" fill="none" xmlns="http://www.w3.org/2000/svg">
<path d="M78.3594 0.826538C88.7049 0.826538 98.9453 2.90245 108.474 6.93136C118.003 10.9603 126.626 16.8602 133.834 24.2819C141.042 31.7036 146.687 40.4961 150.435 50.1388C154.183 59.7814 155.959 70.0782 155.656 80.4193L121.302 79.4135C121.47 73.6684 120.484 67.948 118.401 62.591C116.319 57.2339 113.183 52.3492 109.179 48.2261C105.174 44.1029 100.384 40.8251 95.0898 38.5869C89.796 36.3486 84.1069 35.1953 78.3594 35.1953V0.826538Z" fill="#F1E05A" stroke="white" stroke-width="1.32187"/>
<path d="M155.656 80.4193C155.09 99.7461 147.305 118.16 133.834 132.03C120.364 145.901 102.186 154.222 82.8836 155.353L80.8728 121.044C91.5962 120.415 101.695 115.792 109.179 108.086C116.662 100.38 120.988 90.1506 121.302 79.4135L155.656 80.4193Z" fill="#A97BFF" stroke="white" stroke-width="1.32187"/>
<path d="M82.8836 155.353C65.6533 156.363 48.5805 151.58 34.3834 141.764L53.9283 113.494C61.8156 118.947 71.3005 121.605 80.8728 121.044L82.8836 155.353Z" fill="#563D7C" stroke="white" stroke-width="1.32187"/>
<path d="M34.3834 141.764C28.5821 137.754 23.3569 132.968 18.8528 127.541L45.3002 105.592C47.8024 108.607 50.7054 111.266 53.9282 113.494L34.3834 141.764Z" fill="#3178C6" stroke="white" stroke-width="1.32187"/>
<path d="M18.8528 127.541C14.3488 122.114 10.6084 116.096 7.73566 109.655L39.124 95.6555C40.72 99.2339 42.798 102.577 45.3002 105.592L18.8528 127.541Z" fill="#E34C26" stroke="white" stroke-width="1.32187"/>
<path d="M7.73566 109.655C2.48414 97.8805 0.259849 84.9799 1.26511 72.1266C2.27038 59.2734 6.4733 46.8754 13.4915 36.0606C20.5098 25.2457 30.1206 16.3572 41.4498 10.2036C52.7789 4.04996 65.4669 0.826538 78.3594 0.826538V35.1953C71.1969 35.1953 64.148 36.9861 57.854 40.4048C51.5601 43.8234 46.2207 48.7615 42.3217 54.7697C38.4227 60.778 36.0877 67.6657 35.5292 74.8064C34.9707 81.9471 36.2065 89.1142 39.124 95.6555L7.73566 109.655Z" fill="#444444" stroke="white" stroke-width="1.32187"/>
</svg>
