<svg width="12" height="102" viewBox="0 0 12 102" fill="none" xmlns="http://www.w3.org/2000/svg">
<path d="M9.5 0.34375H2.5C1.39543 0.34375 0.5 1.23918 0.5 2.34375V9.34375C0.5 10.4483 1.39543 11.3438 2.5 11.3438H9.5C10.6046 11.3438 11.5 10.4483 11.5 9.34375V2.34375C11.5 1.23918 10.6046 0.34375 9.5 0.34375Z" fill="#EBEDF0"/>
<path d="M9.5 15.3438H2.5C1.39543 15.3438 0.5 16.2392 0.5 17.3438V24.3438C0.5 25.4483 1.39543 26.3438 2.5 26.3438H9.5C10.6046 26.3438 11.5 25.4483 11.5 24.3438V17.3438C11.5 16.2392 10.6046 15.3438 9.5 15.3438Z" fill="#EBEDF0"/>
<path d="M9.5 30.3438H2.5C1.39543 30.3438 0.5 31.2392 0.5 32.3438V39.3438C0.5 40.4483 1.39543 41.3438 2.5 41.3438H9.5C10.6046 41.3438 11.5 40.4483 11.5 39.3438V32.3438C11.5 31.2392 10.6046 30.3438 9.5 30.3438Z" fill="#EBEDF0"/>
<path d="M9.5 45.3438H2.5C1.39543 45.3438 0.5 46.2392 0.5 47.3438V54.3438C0.5 55.4483 1.39543 56.3438 2.5 56.3438H9.5C10.6046 56.3438 11.5 55.4483 11.5 54.3438V47.3438C11.5 46.2392 10.6046 45.3438 9.5 45.3438Z" fill="#30A14E"/>
<path d="M9.5 60.3438H2.5C1.39543 60.3438 0.5 61.2392 0.5 62.3438V69.3438C0.5 70.4483 1.39543 71.3438 2.5 71.3438H9.5C10.6046 71.3438 11.5 70.4483 11.5 69.3438V62.3438C11.5 61.2392 10.6046 60.3438 9.5 60.3438Z" fill="#EBEDF0"/>
<path d="M9.5 75.3438H2.5C1.39543 75.3438 0.5 76.2392 0.5 77.3438V84.3438C0.5 85.4483 1.39543 86.3438 2.5 86.3438H9.5C10.6046 86.3438 11.5 85.4483 11.5 84.3438V77.3438C11.5 76.2392 10.6046 75.3438 9.5 75.3438Z" fill="#EBEDF0"/>
<path d="M9.5 90.3438H2.5C1.39543 90.3438 0.5 91.2392 0.5 92.3438V99.3438C0.5 100.448 1.39543 101.344 2.5 101.344H9.5C10.6046 101.344 11.5 100.448 11.5 99.3438V92.3438C11.5 91.2392 10.6046 90.3438 9.5 90.3438Z" fill="#EBEDF0"/>
</svg>
