<svg width="17" height="17" viewBox="0 0 17 17" fill="none" xmlns="http://www.w3.org/2000/svg">
<path fill-rule="evenodd" clip-rule="evenodd" d="M8.37501 0.59375C8.51503 0.59366 8.65227 0.632764 8.77121 0.706637C8.89015 0.78051 8.98603 0.886202 9.04801 1.01175L10.93 4.82675L15.14 5.43875C15.2785 5.45886 15.4086 5.5173 15.5155 5.60747C15.6225 5.69763 15.7022 5.81593 15.7454 5.94898C15.7887 6.08204 15.7939 6.22455 15.7604 6.3604C15.727 6.49625 15.6562 6.62003 15.556 6.71775L12.51 9.68775L13.229 13.8798C13.2527 14.0177 13.2374 14.1595 13.1847 14.2892C13.132 14.4188 13.0441 14.5311 12.9309 14.6134C12.8177 14.6957 12.6837 14.7447 12.5441 14.7548C12.4045 14.765 12.2649 14.7358 12.141 14.6707L8.37501 12.6908L4.60901 14.6707C4.4852 14.7358 4.34568 14.7649 4.2062 14.7548C4.06673 14.7447 3.93285 14.6958 3.81969 14.6136C3.70654 14.5314 3.6186 14.4193 3.56583 14.2898C3.51305 14.1603 3.49752 14.0186 3.52101 13.8807L4.24101 9.68675L1.19301 6.71775C1.09258 6.62007 1.02151 6.49622 0.987864 6.36022C0.954216 6.22422 0.959334 6.08152 1.00264 5.94828C1.04594 5.81504 1.1257 5.69659 1.23287 5.60636C1.34004 5.51613 1.47034 5.45772 1.60901 5.43775L5.81901 4.82675L7.70201 1.01175C7.76399 0.886202 7.85988 0.78051 7.97882 0.706637C8.09776 0.632764 8.235 0.59366 8.37501 0.59375V0.59375ZM8.37501 3.03875L6.99001 5.84375C6.93623 5.95265 6.8568 6.04686 6.75856 6.11828C6.66031 6.1897 6.54619 6.23619 6.42601 6.25375L3.32901 6.70375L5.56901 8.88775C5.65616 8.97261 5.72137 9.0774 5.759 9.19308C5.79663 9.30876 5.80556 9.43185 5.78501 9.55175L5.25701 12.6357L8.02601 11.1798C8.13364 11.1232 8.25342 11.0936 8.37501 11.0936C8.49661 11.0936 8.61638 11.1232 8.72401 11.1798L11.494 12.6357L10.964 9.55175C10.9435 9.43185 10.9524 9.30876 10.99 9.19308C11.0277 9.0774 11.0929 8.97261 11.18 8.88775L13.42 6.70475L10.324 6.25475C10.2038 6.23719 10.0897 6.1907 9.99147 6.11928C9.89322 6.04786 9.8138 5.95365 9.76001 5.84475L8.37501 3.03775V3.03875Z" fill="#57606A"/>
</svg>
