<svg width="17" height="17" viewBox="0 0 17 17" fill="none" xmlns="http://www.w3.org/2000/svg">
<path fill-rule="evenodd" clip-rule="evenodd" d="M8.71875 0.59375C8.85876 0.59366 8.996 0.632764 9.11494 0.706637C9.23388 0.78051 9.32977 0.886202 9.39175 1.01175L11.2737 4.82675L15.4837 5.43875C15.6222 5.45886 15.7523 5.5173 15.8593 5.60747C15.9663 5.69763 16.0459 5.81593 16.0892 5.94898C16.1325 6.08204 16.1376 6.22455 16.1042 6.3604C16.0707 6.49625 15.9999 6.62003 15.8997 6.71775L12.8537 9.68775L13.5727 13.8798C13.5965 14.0177 13.5811 14.1595 13.5284 14.2892C13.4757 14.4188 13.3878 14.5311 13.2746 14.6134C13.1614 14.6957 13.0275 14.7447 12.8879 14.7548C12.7483 14.765 12.6086 14.7358 12.4847 14.6707L8.71875 12.6908L4.95275 14.6707C4.82893 14.7358 4.68941 14.7649 4.54994 14.7548C4.41046 14.7447 4.27659 14.6958 4.16343 14.6136C4.05027 14.5314 3.96234 14.4193 3.90956 14.2898C3.85678 14.1603 3.84126 14.0186 3.86475 13.8807L4.58475 9.68675L1.53675 6.71775C1.43631 6.62007 1.36525 6.49622 1.3316 6.36022C1.29795 6.22422 1.30307 6.08152 1.34637 5.94828C1.38967 5.81504 1.46943 5.69659 1.5766 5.60636C1.68377 5.51613 1.81408 5.45772 1.95275 5.43775L6.16275 4.82675L8.04575 1.01175C8.10773 0.886202 8.20361 0.78051 8.32255 0.706637C8.44149 0.632764 8.57873 0.59366 8.71875 0.59375V0.59375ZM8.71875 3.03875L7.33375 5.84375C7.27996 5.95265 7.20053 6.04686 7.10229 6.11828C7.00405 6.1897 6.88993 6.23619 6.76975 6.25375L3.67275 6.70375L5.91275 8.88775C5.9999 8.97261 6.0651 9.0774 6.10273 9.19308C6.14036 9.30876 6.14929 9.43185 6.12875 9.55175L5.60075 12.6357L8.36975 11.1798C8.47738 11.1232 8.59715 11.0936 8.71875 11.0936C8.84034 11.0936 8.96012 11.1232 9.06775 11.1798L11.8377 12.6357L11.3077 9.55175C11.2872 9.43185 11.2961 9.30876 11.3338 9.19308C11.3714 9.0774 11.4366 8.97261 11.5237 8.88775L13.7637 6.70475L10.6677 6.25475C10.5476 6.23719 10.4334 6.1907 10.3352 6.11928C10.237 6.04786 10.1575 5.95365 10.1037 5.84475L8.71875 3.03775V3.03875Z" fill="#57606A"/>
</svg>
