<svg width="17" height="16" viewBox="0 0 17 16" fill="none" xmlns="http://www.w3.org/2000/svg">
<path fill-rule="evenodd" clip-rule="evenodd" d="M12.9206 6.22C13.0611 6.36062 13.14 6.55125 13.14 6.75C13.14 6.94875 13.0611 7.13937 12.9206 7.28L8.67062 11.53C8.53 11.6704 8.33937 11.7493 8.14062 11.7493C7.94187 11.7493 7.75125 11.6704 7.61062 11.53L3.36062 7.28C3.22814 7.13782 3.15602 6.94977 3.15945 6.75547C3.16288 6.56117 3.24159 6.37579 3.379 6.23837C3.51642 6.10096 3.7018 6.02225 3.8961 6.01882C4.0904 6.01539 4.27845 6.08752 4.42062 6.22L8.14062 9.94L11.8606 6.22C12.0012 6.07955 12.1919 6.00066 12.3906 6.00066C12.5894 6.00066 12.78 6.07955 12.9206 6.22V6.22Z" fill="white"/>
</svg>
