<svg width="17" height="16" viewBox="0 0 17 16" fill="none" xmlns="http://www.w3.org/2000/svg">
<path fill-rule="evenodd" clip-rule="evenodd" d="M7.77078 3.07299L10.1668 0.676994C10.2017 0.64194 10.2463 0.618058 10.2949 0.608374C10.3434 0.598691 10.3938 0.603643 10.4395 0.622601C10.4852 0.64156 10.5243 0.673672 10.5518 0.714867C10.5793 0.756061 10.5939 0.804483 10.5938 0.853994V5.64599C10.5939 5.6955 10.5793 5.74393 10.5518 5.78512C10.5243 5.82631 10.4852 5.85843 10.4395 5.87739C10.3938 5.89634 10.3434 5.9013 10.2949 5.89161C10.2463 5.88193 10.2017 5.85805 10.1668 5.82299L7.77078 3.42699C7.7475 3.40377 7.72903 3.37618 7.71642 3.34581C7.70382 3.31544 7.69733 3.28288 7.69733 3.24999C7.69733 3.21711 7.70382 3.18455 7.71642 3.15418C7.72903 3.1238 7.7475 3.09622 7.77078 3.07299ZM4.34378 2.49999C4.14487 2.49999 3.9541 2.57901 3.81345 2.71966C3.6728 2.86032 3.59378 3.05108 3.59378 3.24999C3.59378 3.44891 3.6728 3.63967 3.81345 3.78032C3.9541 3.92098 4.14487 3.99999 4.34378 3.99999C4.54269 3.99999 4.73346 3.92098 4.87411 3.78032C5.01476 3.63967 5.09378 3.44891 5.09378 3.24999C5.09378 3.05108 5.01476 2.86032 4.87411 2.71966C4.73346 2.57901 4.54269 2.49999 4.34378 2.49999V2.49999ZM2.09378 3.24999C2.0939 2.83753 2.20741 2.43303 2.42188 2.08071C2.63636 1.72839 2.94356 1.4418 3.3099 1.25227C3.67625 1.06274 4.08764 0.977564 4.49913 1.00604C4.91061 1.03452 5.30635 1.17556 5.64309 1.41375C5.97984 1.65194 6.24463 1.97811 6.40852 2.35662C6.57242 2.73513 6.62912 3.15141 6.57242 3.55996C6.51572 3.96851 6.34781 4.35362 6.08703 4.67319C5.82626 4.99276 5.48266 5.2345 5.09378 5.37199V10.628C5.59447 10.8049 6.01648 11.1532 6.28523 11.6112C6.55398 12.0692 6.65215 12.6075 6.56239 13.1308C6.47263 13.6542 6.20073 14.129 5.79474 14.4713C5.38874 14.8136 4.87481 15.0014 4.34378 15.0014C3.81275 15.0014 3.29881 14.8136 2.89282 14.4713C2.48683 14.129 2.21492 13.6542 2.12517 13.1308C2.03541 12.6075 2.13358 12.0692 2.40233 11.6112C2.67107 11.1532 3.09309 10.8049 3.59378 10.628V5.37199C3.15499 5.21686 2.77511 4.92948 2.50646 4.54943C2.23782 4.16939 2.09364 3.7154 2.09378 3.24999V3.24999ZM11.5938 2.49999H10.5938V3.99999H11.5938C11.859 3.99999 12.1133 4.10535 12.3009 4.29289C12.4884 4.48042 12.5938 4.73478 12.5938 4.99999V10.628C12.0931 10.8049 11.6711 11.1532 11.4023 11.6112C11.1336 12.0692 11.0354 12.6075 11.1252 13.1308C11.2149 13.6542 11.4868 14.129 11.8928 14.4713C12.2988 14.8136 12.8127 15.0014 13.3438 15.0014C13.8748 15.0014 14.3887 14.8136 14.7947 14.4713C15.2007 14.129 15.4726 13.6542 15.5624 13.1308C15.6521 12.6075 15.554 12.0692 15.2852 11.6112C15.0165 11.1532 14.5945 10.8049 14.0938 10.628V4.99999C14.0938 4.33695 13.8304 3.70107 13.3615 3.23223C12.8927 2.76339 12.2568 2.49999 11.5938 2.49999ZM12.5938 12.75C12.5938 12.5511 12.6728 12.3603 12.8134 12.2197C12.9541 12.079 13.1449 12 13.3438 12C13.5427 12 13.7335 12.079 13.8741 12.2197C14.0148 12.3603 14.0938 12.5511 14.0938 12.75C14.0938 12.9489 14.0148 13.1397 13.8741 13.2803C13.7335 13.421 13.5427 13.5 13.3438 13.5C13.1449 13.5 12.9541 13.421 12.8134 13.2803C12.6728 13.1397 12.5938 12.9489 12.5938 12.75ZM4.34378 12C4.14487 12 3.9541 12.079 3.81345 12.2197C3.6728 12.3603 3.59378 12.5511 3.59378 12.75C3.59378 12.9489 3.6728 13.1397 3.81345 13.2803C3.9541 13.421 4.14487 13.5 4.34378 13.5C4.54269 13.5 4.73346 13.421 4.87411 13.2803C5.01476 13.1397 5.09378 12.9489 5.09378 12.75C5.09378 12.5511 5.01476 12.3603 4.87411 12.2197C4.73346 12.079 4.54269 12 4.34378 12V12Z" fill="#57606A"/>
</svg>
