<svg width="17" height="16" viewBox="0 0 17 16" fill="none" xmlns="http://www.w3.org/2000/svg">
<path fill-rule="evenodd" clip-rule="evenodd" d="M2.01562 8C2.01563 6.27609 2.70044 4.62279 3.91943 3.40381C5.13842 2.18482 6.79172 1.5 8.51562 1.5C10.2395 1.5 11.8928 2.18482 13.1118 3.40381C14.3308 4.62279 15.0156 6.27609 15.0156 8C15.0156 9.72391 14.3308 11.3772 13.1118 12.5962C11.8928 13.8152 10.2395 14.5 8.51562 14.5C6.79172 14.5 5.13842 13.8152 3.91943 12.5962C2.70044 11.3772 2.01563 9.72391 2.01562 8V8ZM8.51562 0C6.39389 0 4.35906 0.842855 2.85877 2.34315C1.35848 3.84344 0.515625 5.87827 0.515625 8C0.515625 10.1217 1.35848 12.1566 2.85877 13.6569C4.35906 15.1571 6.39389 16 8.51562 16C10.6374 16 12.6722 15.1571 14.1725 13.6569C15.6728 12.1566 16.5156 10.1217 16.5156 8C16.5156 5.87827 15.6728 3.84344 14.1725 2.34315C12.6722 0.842855 10.6374 0 8.51562 0V0ZM6.89463 5.227C6.85664 5.20412 6.81324 5.19175 6.76889 5.19117C6.72455 5.19059 6.68084 5.20181 6.64227 5.2237C6.60369 5.24558 6.57163 5.27733 6.54938 5.3157C6.52712 5.35406 6.51547 5.39765 6.51562 5.442V10.559C6.51565 10.6033 6.52743 10.6467 6.54976 10.685C6.57208 10.7232 6.60416 10.7548 6.64271 10.7765C6.68125 10.7983 6.72488 10.8095 6.76914 10.8088C6.81341 10.8082 6.85671 10.7958 6.89463 10.773L11.1586 8.214C11.1955 8.19174 11.226 8.16035 11.2471 8.12286C11.2683 8.08537 11.2794 8.04305 11.2794 8C11.2794 7.95695 11.2683 7.91463 11.2471 7.87714C11.226 7.83965 11.1955 7.80825 11.1586 7.786L6.89463 5.227Z" fill="#57606A"/>
</svg>
