<svg width="17" height="16" viewBox="0 0 17 16" fill="none" xmlns="http://www.w3.org/2000/svg">
<path fill-rule="evenodd" clip-rule="evenodd" d="M0.859375 1.75C0.859375 0.784 1.64337 0 2.60938 0H15.1094C16.0754 0 16.8594 0.784 16.8594 1.75V14.25C16.8594 14.7141 16.675 15.1592 16.3468 15.4874C16.0186 15.8156 15.5735 16 15.1094 16H2.60938C2.14525 16 1.70013 15.8156 1.37194 15.4874C1.04375 15.1592 0.859375 14.7141 0.859375 14.25V1.75ZM2.35938 6.5V14.25C2.35938 14.388 2.47138 14.5 2.60938 14.5H5.85938V6.5H2.35938ZM5.85938 5H2.35938V1.75C2.35938 1.6837 2.38571 1.62011 2.4326 1.57322C2.47948 1.52634 2.54307 1.5 2.60938 1.5H5.85938V5ZM7.35938 6.5V14.5H15.1094C15.1757 14.5 15.2393 14.4737 15.2862 14.4268C15.333 14.3799 15.3594 14.3163 15.3594 14.25V6.5H7.35938ZM15.3594 5H7.35938V1.5H15.1094C15.1757 1.5 15.2393 1.52634 15.2862 1.57322C15.333 1.62011 15.3594 1.6837 15.3594 1.75V5Z" fill="#57606A"/>
</svg>
