<svg width="17" height="16" viewBox="0 0 17 16" fill="none" xmlns="http://www.w3.org/2000/svg">
<path fill-rule="evenodd" clip-rule="evenodd" d="M7.57638 0.132994C7.92306 0.022136 8.29569 0.022136 8.64237 0.132994L13.8924 1.81299C14.2457 1.92599 14.554 2.14835 14.7728 2.44798C14.9915 2.74761 15.1094 3.10901 15.1094 3.47999V6.99999C15.1094 8.56599 14.7894 10.182 13.8064 11.682C12.8234 13.18 11.2214 14.495 8.77437 15.537C8.56407 15.6264 8.33789 15.6725 8.10938 15.6725C7.88086 15.6725 7.65468 15.6264 7.44438 15.537C4.99738 14.495 3.39537 13.18 2.41237 11.682C1.42937 10.182 1.10938 8.56599 1.10938 6.99999V3.47999C1.10934 3.10901 1.22721 2.74761 1.44596 2.44798C1.66471 2.14835 1.97302 1.92599 2.32638 1.81299L7.57638 0.132994V0.132994ZM8.18637 1.56199C8.13663 1.546 8.08312 1.546 8.03337 1.56199L2.78338 3.24199C2.73289 3.2581 2.68883 3.28984 2.65756 3.33262C2.62628 3.37539 2.60941 3.427 2.60938 3.47999V6.99999C2.60938 8.35799 2.88437 9.66599 3.66637 10.86C4.45037 12.054 5.78737 13.2 8.03237 14.157C8.05677 14.1672 8.08294 14.1724 8.10938 14.1724C8.13581 14.1724 8.16198 14.1672 8.18637 14.157C10.4314 13.201 11.7684 12.053 12.5524 10.859C13.3344 9.66599 13.6094 8.35999 13.6094 6.99999V3.47999C13.6091 3.42717 13.5922 3.37579 13.5609 3.33321C13.5296 3.29063 13.4857 3.25905 13.4354 3.24299L8.18538 1.56299L8.18637 1.56199ZM9.10938 10.5C9.10938 10.7652 9.00402 11.0196 8.81648 11.2071C8.62895 11.3946 8.37459 11.5 8.10938 11.5C7.84416 11.5 7.5898 11.3946 7.40227 11.2071C7.21473 11.0196 7.10938 10.7652 7.10938 10.5C7.10938 10.2348 7.21473 9.98042 7.40227 9.79289C7.5898 9.60535 7.84416 9.49999 8.10938 9.49999C8.37459 9.49999 8.62895 9.60535 8.81648 9.79289C9.00402 9.98042 9.10938 10.2348 9.10938 10.5V10.5ZM8.85938 4.74999C8.85938 4.55108 8.78036 4.36032 8.6397 4.21966C8.49905 4.07901 8.30829 3.99999 8.10938 3.99999C7.91046 3.99999 7.7197 4.07901 7.57904 4.21966C7.43839 4.36032 7.35938 4.55108 7.35938 4.74999V7.74999C7.35938 7.94891 7.43839 8.13967 7.57904 8.28032C7.7197 8.42098 7.91046 8.49999 8.10938 8.49999C8.30829 8.49999 8.49905 8.42098 8.6397 8.28032C8.78036 8.13967 8.85938 7.94891 8.85938 7.74999V4.74999Z" fill="#57606A"/>
</svg>
