<svg width="17" height="16" viewBox="0 0 17 16" fill="none" xmlns="http://www.w3.org/2000/svg">
<path d="M8.54687 16C9.03412 16.0002 9.50468 15.8225 9.87017 15.5002C10.2357 15.178 10.471 14.7334 10.5319 14.25C10.5489 14.113 10.4349 14 10.2969 14H6.79687C6.65887 14 6.54487 14.113 6.56187 14.25C6.62277 14.7334 6.85807 15.178 7.22356 15.5002C7.58906 15.8225 8.05961 16.0002 8.54687 16Z" fill="#57606A"/>
<path fill-rule="evenodd" clip-rule="evenodd" d="M8.54686 1.5C7.6186 1.5 6.72836 1.86875 6.07199 2.52513C5.41561 3.1815 5.04686 4.07174 5.04686 5V7.947C5.04686 8.293 4.94486 8.63 4.75286 8.917L3.04986 11.473C3.04789 11.476 3.04685 11.4794 3.04686 11.483L3.04786 11.489C3.04786 11.491 3.04986 11.493 3.05186 11.495C3.05355 11.4967 3.0556 11.4981 3.05786 11.499L3.06486 11.5H14.0289L14.0359 11.499C14.0381 11.4981 14.0402 11.4968 14.0419 11.495C14.0436 11.4933 14.045 11.4913 14.0459 11.489L14.0469 11.482C14.0469 11.4784 14.0459 11.4749 14.0439 11.472L12.3409 8.918C12.1493 8.63075 12.047 8.29326 12.0469 7.948V5C12.0469 4.07174 11.6781 3.1815 11.0217 2.52513C10.3654 1.86875 9.47512 1.5 8.54686 1.5V1.5ZM3.54686 5C3.54686 3.67392 4.07364 2.40215 5.01133 1.46447C5.94901 0.526784 7.22078 0 8.54686 0C9.87294 0 11.1447 0.526784 12.0824 1.46447C13.0201 2.40215 13.5469 3.67392 13.5469 5V7.947C13.5469 7.997 13.5619 8.045 13.5889 8.086L15.2919 10.641C15.444 10.8696 15.5313 11.1352 15.5444 11.4095C15.5575 11.6837 15.496 11.9564 15.3664 12.1985C15.2368 12.4406 15.0439 12.643 14.8084 12.7841C14.5729 12.9253 14.3034 12.9999 14.0289 13H3.06486C2.79011 13 2.52052 12.9254 2.28483 12.7842C2.04914 12.643 1.85619 12.4405 1.72655 12.1983C1.59691 11.956 1.53544 11.6831 1.54871 11.4087C1.56197 11.1343 1.64946 10.8686 1.80186 10.64L3.50486 8.086C3.5323 8.04484 3.54692 7.99647 3.54686 7.947V5Z" fill="#57606A"/>
</svg>
