<svg width="17" height="16" viewBox="0 0 17 16" fill="none" xmlns="http://www.w3.org/2000/svg">
<path fill-rule="evenodd" clip-rule="evenodd" d="M1.70312 8C1.70313 6.27609 2.38794 4.62279 3.60693 3.40381C4.82592 2.18482 6.47922 1.5 8.20312 1.5C9.92703 1.5 11.5803 2.18482 12.7993 3.40381C14.0183 4.62279 14.7031 6.27609 14.7031 8C14.7031 9.72391 14.0183 11.3772 12.7993 12.5962C11.5803 13.8152 9.92703 14.5 8.20312 14.5C6.47922 14.5 4.82592 13.8152 3.60693 12.5962C2.38794 11.3772 1.70313 9.72391 1.70312 8V8ZM8.20312 0C6.08139 0 4.04656 0.842855 2.54627 2.34315C1.04598 3.84344 0.203125 5.87827 0.203125 8C0.203125 10.1217 1.04598 12.1566 2.54627 13.6569C4.04656 15.1571 6.08139 16 8.20312 16C10.3249 16 12.3597 15.1571 13.86 13.6569C15.3603 12.1566 16.2031 10.1217 16.2031 8C16.2031 5.87827 15.3603 3.84344 13.86 2.34315C12.3597 0.842855 10.3249 0 8.20312 0V0ZM6.58213 5.227C6.54414 5.20412 6.50074 5.19175 6.45639 5.19117C6.41205 5.19059 6.36834 5.20181 6.32977 5.2237C6.29119 5.24558 6.25913 5.27733 6.23688 5.3157C6.21462 5.35406 6.20297 5.39765 6.20312 5.442V10.559C6.20315 10.6033 6.21493 10.6467 6.23726 10.685C6.25958 10.7232 6.29166 10.7548 6.33021 10.7765C6.36875 10.7983 6.41238 10.8095 6.45664 10.8088C6.50091 10.8082 6.54421 10.7958 6.58213 10.773L10.8461 8.214C10.883 8.19174 10.9135 8.16035 10.9346 8.12286C10.9558 8.08537 10.9669 8.04305 10.9669 8C10.9669 7.95695 10.9558 7.91463 10.9346 7.87714C10.9135 7.83965 10.883 7.80825 10.8461 7.786L6.58213 5.227Z" fill="#57606A"/>
</svg>
