<svg width="17" height="16" viewBox="0 0 17 16" fill="none" xmlns="http://www.w3.org/2000/svg">
<path fill-rule="evenodd" clip-rule="evenodd" d="M7.45825 3.07299L9.85425 0.676994C9.88921 0.64194 9.9338 0.618058 9.98235 0.608374C10.0309 0.598691 10.0812 0.603643 10.127 0.622601C10.1727 0.64156 10.2118 0.673672 10.2393 0.714867C10.2667 0.756061 10.2813 0.804483 10.2812 0.853994V5.64599C10.2813 5.6955 10.2667 5.74393 10.2393 5.78512C10.2118 5.82631 10.1727 5.85843 10.127 5.87739C10.0812 5.89634 10.0309 5.9013 9.98235 5.89161C9.9338 5.88193 9.88921 5.85805 9.85425 5.82299L7.45825 3.42699C7.43497 3.40377 7.41649 3.37618 7.40389 3.34581C7.39129 3.31544 7.3848 3.28288 7.3848 3.24999C7.3848 3.21711 7.39129 3.18455 7.40389 3.15418C7.41649 3.1238 7.43497 3.09622 7.45825 3.07299ZM4.03125 2.49999C3.83234 2.49999 3.64157 2.57901 3.50092 2.71966C3.36027 2.86032 3.28125 3.05108 3.28125 3.24999C3.28125 3.44891 3.36027 3.63967 3.50092 3.78032C3.64157 3.92098 3.83234 3.99999 4.03125 3.99999C4.23016 3.99999 4.42093 3.92098 4.56158 3.78032C4.70223 3.63967 4.78125 3.44891 4.78125 3.24999C4.78125 3.05108 4.70223 2.86032 4.56158 2.71966C4.42093 2.57901 4.23016 2.49999 4.03125 2.49999V2.49999ZM1.78125 3.24999C1.78137 2.83753 1.89488 2.43303 2.10935 2.08071C2.32383 1.72839 2.63103 1.4418 2.99737 1.25227C3.36372 1.06274 3.77511 0.977564 4.1866 1.00604C4.59808 1.03452 4.99382 1.17556 5.33056 1.41375C5.66731 1.65194 5.9321 1.97811 6.09599 2.35662C6.25989 2.73513 6.31659 3.15141 6.25989 3.55996C6.20319 3.96851 6.03528 4.35362 5.7745 4.67319C5.51373 4.99276 5.17013 5.2345 4.78125 5.37199V10.628C5.28194 10.8049 5.70395 11.1532 5.9727 11.6112C6.24145 12.0692 6.33962 12.6075 6.24986 13.1308C6.1601 13.6542 5.8882 14.129 5.4822 14.4713C5.07621 14.8136 4.56228 15.0014 4.03125 15.0014C3.50022 15.0014 2.98628 14.8136 2.58029 14.4713C2.1743 14.129 1.90239 13.6542 1.81264 13.1308C1.72288 12.6075 1.82105 12.0692 2.0898 11.6112C2.35854 11.1532 2.78056 10.8049 3.28125 10.628V5.37199C2.84246 5.21686 2.46258 4.92948 2.19393 4.54943C1.92529 4.16939 1.78111 3.7154 1.78125 3.24999V3.24999ZM11.2812 2.49999H10.2812V3.99999H11.2812C11.5465 3.99999 11.8008 4.10535 11.9884 4.29289C12.1759 4.48042 12.2812 4.73478 12.2812 4.99999V10.628C11.7806 10.8049 11.3585 11.1532 11.0898 11.6112C10.821 12.0692 10.7229 12.6075 10.8126 13.1308C10.9024 13.6542 11.1743 14.129 11.5803 14.4713C11.9863 14.8136 12.5002 15.0014 13.0312 15.0014C13.5623 15.0014 14.0762 14.8136 14.4822 14.4713C14.8882 14.129 15.1601 13.6542 15.2499 13.1308C15.3396 12.6075 15.2414 12.0692 14.9727 11.6112C14.704 11.1532 14.2819 10.8049 13.7812 10.628V4.99999C13.7812 4.33695 13.5179 3.70107 13.049 3.23223C12.5802 2.76339 11.9443 2.49999 11.2812 2.49999ZM12.2812 12.75C12.2812 12.5511 12.3603 12.3603 12.5009 12.2197C12.6416 12.079 12.8323 12 13.0312 12C13.2302 12 13.4209 12.079 13.5616 12.2197C13.7022 12.3603 13.7812 12.5511 13.7812 12.75C13.7812 12.9489 13.7022 13.1397 13.5616 13.2803C13.4209 13.421 13.2302 13.5 13.0312 13.5C12.8323 13.5 12.6416 13.421 12.5009 13.2803C12.3603 13.1397 12.2812 12.9489 12.2812 12.75ZM4.03125 12C3.83234 12 3.64157 12.079 3.50092 12.2197C3.36027 12.3603 3.28125 12.5511 3.28125 12.75C3.28125 12.9489 3.36027 13.1397 3.50092 13.2803C3.64157 13.421 3.83234 13.5 4.03125 13.5C4.23016 13.5 4.42093 13.421 4.56158 13.2803C4.70223 13.1397 4.78125 12.9489 4.78125 12.75C4.78125 12.5511 4.70223 12.3603 4.56158 12.2197C4.42093 12.079 4.23016 12 4.03125 12V12Z" fill="#57606A"/>
</svg>
