<svg width="17" height="16" viewBox="0 0 17 16" fill="none" xmlns="http://www.w3.org/2000/svg">
<path fill-rule="evenodd" clip-rule="evenodd" d="M1.54688 1.75C1.54688 1.55109 1.46786 1.36032 1.32721 1.21967C1.18655 1.07902 0.995787 1 0.796875 1C0.597963 1 0.407197 1.07902 0.266545 1.21967C0.125893 1.36032 0.046875 1.55109 0.046875 1.75L0.046875 14.25C0.046875 14.664 0.382875 15 0.796875 15H15.2969C15.4958 15 15.6866 14.921 15.8272 14.7803C15.9679 14.6397 16.0469 14.4489 16.0469 14.25C16.0469 14.0511 15.9679 13.8603 15.8272 13.7197C15.6866 13.579 15.4958 13.5 15.2969 13.5H1.54688V1.75ZM15.8269 4.28C15.9594 4.13783 16.0315 3.94978 16.0281 3.75548C16.0246 3.56118 15.9459 3.37579 15.8085 3.23838C15.6711 3.10097 15.4857 3.02225 15.2914 3.01883C15.0971 3.0154 14.9091 3.08752 14.7669 3.22L10.0469 7.94L7.57688 5.47C7.43625 5.32955 7.24563 5.25066 7.04688 5.25066C6.84812 5.25066 6.6575 5.32955 6.51687 5.47L3.26688 8.72C3.1344 8.86218 3.06227 9.05022 3.0657 9.24452C3.06913 9.43882 3.14784 9.62421 3.28525 9.76162C3.42267 9.89903 3.60805 9.97775 3.80235 9.98118C3.99665 9.9846 4.1847 9.91248 4.32688 9.78L7.04688 7.06L9.51688 9.53C9.6575 9.67045 9.84812 9.74934 10.0469 9.74934C10.2456 9.74934 10.4362 9.67045 10.5769 9.53L15.8269 4.28V4.28Z" fill="#57606A"/>
</svg>
