<svg width="17" height="16" viewBox="0 0 17 16" fill="none" xmlns="http://www.w3.org/2000/svg">
<path fill-rule="evenodd" clip-rule="evenodd" d="M12.3281 2.49999C12.1292 2.49999 11.9384 2.57901 11.7978 2.71966C11.6571 2.86031 11.5781 3.05108 11.5781 3.24999C11.5781 3.4489 11.6571 3.63967 11.7978 3.78032C11.9384 3.92097 12.1292 3.99999 12.3281 3.99999C12.527 3.99999 12.7178 3.92097 12.8585 3.78032C12.9991 3.63967 13.0781 3.4489 13.0781 3.24999C13.0781 3.05108 12.9991 2.86031 12.8585 2.71966C12.7178 2.57901 12.527 2.49999 12.3281 2.49999ZM10.0781 3.24999C10.0782 2.83752 10.1918 2.43303 10.4062 2.08071C10.6207 1.72839 10.9279 1.4418 11.2942 1.25227C11.6606 1.06274 12.072 0.977563 12.4835 1.00604C12.895 1.03452 13.2907 1.17556 13.6274 1.41375C13.9642 1.65194 14.229 1.97811 14.3929 2.35662C14.5568 2.73513 14.6135 3.1514 14.5568 3.55996C14.5001 3.96851 14.3322 4.35362 14.0714 4.67319C13.8106 4.99276 13.467 5.2345 13.0781 5.37199V5.99999C13.0781 6.66303 12.8147 7.29892 12.3459 7.76776C11.877 8.2366 11.2412 8.49999 10.5781 8.49999H6.57812C6.31291 8.49999 6.05855 8.60535 5.87102 8.79289C5.68348 8.98042 5.57812 9.23478 5.57812 9.49999V10.628C6.07881 10.8049 6.50083 11.1532 6.76957 11.6112C7.03832 12.0692 7.13649 12.6075 7.04673 13.1308C6.95698 13.6542 6.68507 14.129 6.27908 14.4713C5.87309 14.8136 5.35915 15.0014 4.82812 15.0014C4.29709 15.0014 3.78316 14.8136 3.37717 14.4713C2.97117 14.129 2.69927 13.6542 2.60951 13.1308C2.51975 12.6075 2.61792 12.0692 2.88667 11.6112C3.15542 11.1532 3.57743 10.8049 4.07812 10.628V5.37199C3.57771 5.19507 3.15596 4.84694 2.8874 4.38913C2.61884 3.93132 2.52077 3.39331 2.61053 2.87019C2.70028 2.34707 2.97208 1.87252 3.37788 1.53041C3.78368 1.18831 4.29736 1.00067 4.82812 1.00067C5.35889 1.00067 5.87257 1.18831 6.27837 1.53041C6.68417 1.87252 6.95597 2.34707 7.04572 2.87019C7.13547 3.39331 7.0374 3.93132 6.76885 4.38913C6.50029 4.84694 6.07853 5.19507 5.57812 5.37199V7.20799C5.89352 7.07036 6.234 6.99954 6.57812 6.99999H10.5781C10.8433 6.99999 11.0977 6.89464 11.2852 6.7071C11.4728 6.51956 11.5781 6.26521 11.5781 5.99999V5.37199C11.1393 5.21686 10.7595 4.92947 10.4908 4.54943C10.2222 4.16939 10.078 3.7154 10.0781 3.24999V3.24999ZM4.82812 12C4.62921 12 4.43844 12.079 4.29779 12.2197C4.15714 12.3603 4.07812 12.5511 4.07812 12.75C4.07812 12.9489 4.15714 13.1397 4.29779 13.2803C4.43844 13.421 4.62921 13.5 4.82812 13.5C5.02703 13.5 5.2178 13.421 5.35845 13.2803C5.49911 13.1397 5.57812 12.9489 5.57812 12.75C5.57812 12.5511 5.49911 12.3603 5.35845 12.2197C5.2178 12.079 5.02703 12 4.82812 12ZM4.07812 3.24999C4.07812 3.05108 4.15714 2.86031 4.29779 2.71966C4.43844 2.57901 4.62921 2.49999 4.82812 2.49999C5.02703 2.49999 5.2178 2.57901 5.35845 2.71966C5.49911 2.86031 5.57812 3.05108 5.57812 3.24999C5.57812 3.4489 5.49911 3.63967 5.35845 3.78032C5.2178 3.92097 5.02703 3.99999 4.82812 3.99999C4.62921 3.99999 4.43844 3.92097 4.29779 3.78032C4.15714 3.63967 4.07812 3.4489 4.07812 3.24999Z" fill="#24292F"/>
</svg>
