<svg width="17" height="16" viewBox="0 0 17 16" fill="none" xmlns="http://www.w3.org/2000/svg">
<path fill-rule="evenodd" clip-rule="evenodd" d="M3.25 7.775V2.75C3.25 2.6837 3.27634 2.62011 3.32322 2.57322C3.37011 2.52634 3.4337 2.5 3.5 2.5H8.525C8.55785 2.49994 8.59039 2.50636 8.62077 2.51888C8.65114 2.53141 8.67874 2.5498 8.702 2.573L14.952 8.823C14.9753 8.84622 14.9938 8.87381 15.0064 8.90418C15.019 8.93456 15.0254 8.96712 15.0254 9C15.0254 9.03288 15.019 9.06544 15.0064 9.09582C14.9938 9.12619 14.9753 9.15378 14.952 9.177L9.927 14.202C9.90378 14.2253 9.87619 14.2438 9.84582 14.2564C9.81544 14.269 9.78288 14.2754 9.75 14.2754C9.71712 14.2754 9.68456 14.269 9.65418 14.2564C9.62381 14.2438 9.59622 14.2253 9.573 14.202L3.323 7.952C3.2998 7.92874 3.28141 7.90114 3.26888 7.87077C3.25636 7.84039 3.24994 7.80785 3.25 7.775V7.775ZM1.75 7.775V2.75C1.75 1.784 2.534 1 3.5 1H8.525C8.989 1 9.435 1.184 9.763 1.513L16.013 7.763C16.3409 8.09115 16.5251 8.53609 16.5251 9C16.5251 9.46391 16.3409 9.90885 16.013 10.237L10.987 15.263C10.6588 15.5909 10.2139 15.7751 9.75 15.7751C9.28609 15.7751 8.84115 15.5909 8.513 15.263L2.263 9.013C2.10035 8.85047 1.97133 8.65747 1.8833 8.44505C1.79528 8.23263 1.74998 8.00494 1.75 7.775V7.775ZM6.75 5C6.48478 5 6.23043 5.10536 6.04289 5.29289C5.85536 5.48043 5.75 5.73478 5.75 6C5.75 6.26522 5.85536 6.51957 6.04289 6.70711C6.23043 6.89464 6.48478 7 6.75 7C7.01522 7 7.26957 6.89464 7.45711 6.70711C7.64464 6.51957 7.75 6.26522 7.75 6C7.75 5.73478 7.64464 5.48043 7.45711 5.29289C7.26957 5.10536 7.01522 5 6.75 5Z" fill="#24292F"/>
</svg>
