<svg width="16" height="17" viewBox="0 0 16 17" fill="none" xmlns="http://www.w3.org/2000/svg">
<path fill-rule="evenodd" clip-rule="evenodd" d="M8.00001 1.17188C8.14003 1.17178 8.27727 1.21089 8.39621 1.28476C8.51515 1.35864 8.61103 1.46433 8.67301 1.58988L10.555 5.40487L14.765 6.01687C14.9035 6.03698 15.0336 6.09543 15.1405 6.18559C15.2475 6.27576 15.3272 6.39405 15.3704 6.52711C15.4137 6.66016 15.4189 6.80267 15.3854 6.93853C15.352 7.07438 15.2812 7.19816 15.181 7.29588L12.135 10.2659L12.854 14.4579C12.8777 14.5958 12.8624 14.7376 12.8097 14.8673C12.757 14.9969 12.6691 15.1093 12.5559 15.1916C12.4427 15.2739 12.3087 15.3228 12.1691 15.333C12.0295 15.3431 11.8899 15.314 11.766 15.2489L8.00001 13.2689L4.23401 15.2489C4.1102 15.3139 3.97068 15.343 3.8312 15.3329C3.69173 15.3228 3.55785 15.2739 3.44469 15.1917C3.33154 15.1096 3.2436 14.9974 3.19083 14.8679C3.13805 14.7384 3.12252 14.5967 3.14601 14.4589L3.86601 10.2649L0.818012 7.29588C0.717578 7.1982 0.646511 7.07434 0.612864 6.93834C0.579216 6.80235 0.584334 6.65964 0.627636 6.5264C0.670939 6.39316 0.750695 6.27472 0.857868 6.18449C0.96504 6.09425 1.09534 6.03584 1.23401 6.01587L5.44401 5.40487L7.32701 1.58988C7.38899 1.46433 7.48488 1.35864 7.60382 1.28476C7.72276 1.21089 7.86 1.17178 8.00001 1.17188V1.17188ZM8.00001 3.61688L6.61501 6.42188C6.56123 6.53078 6.4818 6.62499 6.38356 6.6964C6.28531 6.76782 6.17119 6.81431 6.05101 6.83187L2.95401 7.28188L5.19401 9.46587C5.28116 9.55074 5.34637 9.65553 5.384 9.7712C5.42163 9.88688 5.43056 10.01 5.41001 10.1299L4.88201 13.2139L7.65101 11.7579C7.75864 11.7013 7.87842 11.6717 8.00001 11.6717C8.12161 11.6717 8.24138 11.7013 8.34901 11.7579L11.119 13.2139L10.589 10.1299C10.5685 10.01 10.5774 9.88688 10.615 9.7712C10.6527 9.65553 10.7179 9.55074 10.805 9.46587L13.045 7.28288L9.94901 6.83287C9.82883 6.81531 9.71471 6.76882 9.61647 6.6974C9.51822 6.62599 9.4388 6.53178 9.38501 6.42287L8.00001 3.61588V3.61688Z" fill="#57606A"/>
</svg>
