<svg width="16" height="17" viewBox="0 0 16 17" fill="none" xmlns="http://www.w3.org/2000/svg">
<path fill-rule="evenodd" clip-rule="evenodd" d="M8.75 1.67188C8.75 1.47296 8.67098 1.2822 8.53033 1.14154C8.38968 1.00089 8.19891 0.921875 8 0.921875C7.80109 0.921875 7.61032 1.00089 7.46967 1.14154C7.32902 1.2822 7.25 1.47296 7.25 1.67188V2.92188H6.266C5.961 2.92188 5.662 3.00188 5.397 3.15188L4.109 3.88888C4.07095 3.91064 4.02784 3.92203 3.984 3.92188H1.75C1.55109 3.92188 1.36032 4.00089 1.21967 4.14154C1.07902 4.2822 0.999998 4.47296 0.999998 4.67188C0.999998 4.87079 1.07902 5.06155 1.21967 5.20221C1.36032 5.34286 1.55109 5.42188 1.75 5.42188H2.178L0.0659982 10.1139C0.0036162 10.2527 -0.0150619 10.4072 0.0124445 10.5569C0.0399508 10.7065 0.11234 10.8443 0.219998 10.9519L0.749998 10.4219L0.219998 10.9519V10.9529L0.221998 10.9549L0.223998 10.9569L0.229998 10.9629L0.245998 10.9779L0.290998 11.0179C0.50131 11.1941 0.731545 11.3452 0.976998 11.4679C1.6067 11.7749 2.29949 11.9304 3 11.9219C3.88 11.9219 4.556 11.7019 5.023 11.4679C5.26845 11.3452 5.49868 11.1941 5.709 11.0179L5.754 10.9779L5.77 10.9629L5.776 10.9569L5.778 10.9549L5.779 10.9529L5.25 10.4219L5.78 10.9519C5.88766 10.8443 5.96005 10.7065 5.98755 10.5569C6.01506 10.4072 5.99638 10.2527 5.934 10.1139L3.822 5.42188H3.984C4.289 5.42188 4.588 5.34187 4.853 5.19187L6.142 4.45487C6.17976 4.43327 6.2225 4.4219 6.266 4.42188H7.25V13.9219H4.75C4.55109 13.9219 4.36032 14.0009 4.21967 14.1415C4.07902 14.2822 4 14.473 4 14.6719C4 14.8708 4.07902 15.0616 4.21967 15.2022C4.36032 15.3429 4.55109 15.4219 4.75 15.4219H11.25C11.4489 15.4219 11.6397 15.3429 11.7803 15.2022C11.921 15.0616 12 14.8708 12 14.6719C12 14.473 11.921 14.2822 11.7803 14.1415C11.6397 14.0009 11.4489 13.9219 11.25 13.9219H8.75V4.42188H9.734C9.7775 4.4219 9.82024 4.43327 9.858 4.45487L11.148 5.19088C11.412 5.34288 11.711 5.42188 12.016 5.42188H12.178L10.066 10.1139C10.0036 10.2527 9.98494 10.4072 10.0124 10.5569C10.04 10.7065 10.1123 10.8443 10.22 10.9519L10.75 10.4219L10.22 10.9519V10.9529L10.222 10.9549L10.224 10.9569L10.23 10.9629L10.246 10.9779L10.291 11.0179C10.5013 11.1941 10.7316 11.3452 10.977 11.4679C11.6067 11.7749 12.2995 11.9304 13 11.9219C13.88 11.9219 14.556 11.7019 15.023 11.4679C15.2685 11.3452 15.4987 11.1942 15.709 11.0179L15.754 10.9779L15.764 10.9679L15.77 10.9629L15.776 10.9569L15.778 10.9549L15.779 10.9529L15.25 10.4219L15.78 10.9519C15.8877 10.8443 15.96 10.7065 15.9876 10.5569C16.0151 10.4072 15.9964 10.2527 15.934 10.1139L13.823 5.42188H14.25C14.4489 5.42187 14.6397 5.34286 14.7803 5.20221C14.921 5.06155 15 4.87079 15 4.67188C15 4.47296 14.921 4.2822 14.7803 4.14154C14.6397 4.00089 14.4489 3.92188 14.25 3.92188H12.016C11.9725 3.92185 11.9298 3.91048 11.892 3.88888L10.602 3.15287C10.338 3.00184 10.0392 2.92222 9.735 2.92188H8.75V1.67188ZM1.695 10.1489C1.98 10.2839 2.413 10.4219 3 10.4219C3.587 10.4219 4.02 10.2839 4.305 10.1489L3 7.24888L1.695 10.1489ZM11.695 10.1489C11.98 10.2839 12.413 10.4219 13 10.4219C13.587 10.4219 14.02 10.2839 14.305 10.1489L13 7.24888L11.695 10.1489Z" fill="#57606A"/>
</svg>
