<svg width="16" height="17" viewBox="0 0 16 17" fill="none" xmlns="http://www.w3.org/2000/svg">
<path fill-rule="evenodd" clip-rule="evenodd" d="M1.67901 8.85388C2.09101 8.23288 2.92101 7.10388 4.04501 6.13688C5.17501 5.16388 6.52701 4.42188 8.00001 4.42188C9.47301 4.42188 10.824 5.16388 11.955 6.13688C13.079 7.10388 13.909 8.23288 14.321 8.85388C14.3349 8.87383 14.3424 8.89756 14.3424 8.92188C14.3424 8.94619 14.3349 8.96992 14.321 8.98987C13.909 9.61087 13.079 10.7399 11.955 11.7069C10.825 12.6799 9.47301 13.4219 8.00001 13.4219C6.52701 13.4219 5.17601 12.6799 4.04501 11.7069C2.92001 10.7399 2.09001 9.61187 1.67901 8.98987C1.66511 8.96992 1.65767 8.94619 1.65767 8.92188C1.65767 8.89756 1.66511 8.87383 1.67901 8.85388ZM8.00001 2.92188C6.01901 2.92188 4.33001 3.91388 3.06701 4.99988C1.79701 6.09088 0.880009 7.34487 0.430009 8.02187C0.25231 8.28802 0.157471 8.60086 0.157471 8.92088C0.157471 9.24089 0.25231 9.55373 0.430009 9.81987C0.880009 10.4979 1.79701 11.7519 3.06701 12.8439C4.32901 13.9299 6.01901 14.9219 8.00001 14.9219C9.98101 14.9219 11.67 13.9299 12.933 12.8439C14.203 11.7529 15.12 10.4989 15.57 9.82088C15.7477 9.55473 15.8425 9.24189 15.8425 8.92188C15.8425 8.60186 15.7477 8.28902 15.57 8.02287C15.12 7.34487 14.203 6.09088 12.933 4.99988C11.671 3.91388 9.98101 2.92188 8.00001 2.92188ZM8.00001 10.9219C8.53044 10.9219 9.03915 10.7112 9.41422 10.3361C9.78929 9.96102 10 9.45231 10 8.92188C10 8.39144 9.78929 7.88273 9.41422 7.50766C9.03915 7.13259 8.53044 6.92188 8.00001 6.92188C7.46958 6.92188 6.96087 7.13259 6.58579 7.50766C6.21072 7.88273 6.00001 8.39144 6.00001 8.92188C6.00001 9.45231 6.21072 9.96102 6.58579 10.3361C6.96087 10.7112 7.46958 10.9219 8.00001 10.9219V10.9219Z" fill="#57606A"/>
</svg>
