<svg width="16" height="17" viewBox="0 0 16 17" fill="none" xmlns="http://www.w3.org/2000/svg">
<path fill-rule="evenodd" clip-rule="evenodd" d="M7.775 3.74375C7.64252 3.88592 7.57039 4.07397 7.57382 4.26827C7.57725 4.46257 7.65596 4.64795 7.79337 4.78537C7.93079 4.92278 8.11617 5.00149 8.31047 5.00492C8.50477 5.00835 8.69282 4.93623 8.835 4.80375L10.085 3.55375C10.2708 3.36793 10.4914 3.22052 10.7342 3.11996C10.977 3.01939 11.2372 2.96763 11.5 2.96763C11.7628 2.96763 12.023 3.01939 12.2658 3.11996C12.5086 3.22052 12.7292 3.36793 12.915 3.55375C13.1008 3.73957 13.2482 3.96017 13.3488 4.20295C13.4493 4.44574 13.5011 4.70596 13.5011 4.96875C13.5011 5.23154 13.4493 5.49175 13.3488 5.73454C13.2482 5.97732 13.1008 6.19792 12.915 6.38375L10.415 8.88375C10.2292 9.0697 10.0087 9.21722 9.76588 9.31786C9.52308 9.41851 9.26283 9.47032 9 9.47032C8.73716 9.47032 8.47691 9.41851 8.23411 9.31786C7.99132 9.21722 7.77074 9.0697 7.585 8.88375C7.44282 8.75127 7.25477 8.67914 7.06047 8.68257C6.86617 8.686 6.68079 8.76471 6.54337 8.90212C6.40596 9.03954 6.32725 9.22492 6.32382 9.41922C6.32039 9.61352 6.39252 9.80157 6.525 9.94375C6.85001 10.2688 7.23586 10.5266 7.66052 10.7025C8.08518 10.8785 8.54034 10.969 9 10.969C9.45965 10.969 9.91481 10.8785 10.3395 10.7025C10.7641 10.5266 11.15 10.2688 11.475 9.94375L13.975 7.44375C14.6314 6.78733 15.0002 5.89705 15.0002 4.96875C15.0002 4.04044 14.6314 3.15016 13.975 2.49375C13.3186 1.83733 12.4283 1.46857 11.5 1.46857C10.5717 1.46857 9.68141 1.83733 9.02499 2.49375L7.775 3.74375V3.74375ZM3.085 13.3837C2.89904 13.198 2.75152 12.9774 2.65088 12.7346C2.55023 12.4918 2.49842 12.2316 2.49842 11.9687C2.49842 11.7059 2.55023 11.4457 2.65088 11.2029C2.75152 10.9601 2.89904 10.7395 3.085 10.5537L5.585 8.05375C5.77074 7.86779 5.99132 7.72027 6.23411 7.61963C6.47691 7.51898 6.73716 7.46717 7 7.46717C7.26283 7.46717 7.52308 7.51898 7.76588 7.61963C8.00867 7.72027 8.22925 7.86779 8.415 8.05375C8.55717 8.18623 8.74522 8.25835 8.93952 8.25492C9.13382 8.25149 9.3192 8.17278 9.45662 8.03537C9.59403 7.89795 9.67274 7.71257 9.67617 7.51827C9.6796 7.32397 9.60748 7.13592 9.475 6.99375C9.14999 6.6687 8.76413 6.41086 8.33947 6.23495C7.91481 6.05904 7.45965 5.96849 7 5.96849C6.54034 5.96849 6.08518 6.05904 5.66052 6.23495C5.23586 6.41086 4.85001 6.6687 4.525 6.99375L2.025 9.49374C1.36858 10.1502 0.999817 11.0404 0.999817 11.9687C0.999817 12.8971 1.36858 13.7873 2.025 14.4437C2.68141 15.1002 3.57169 15.4689 4.5 15.4689C5.4283 15.4689 6.31858 15.1002 6.975 14.4437L8.225 13.1937C8.35748 13.0516 8.4296 12.8635 8.42617 12.6692C8.42274 12.4749 8.34403 12.2895 8.20662 12.1521C8.0692 12.0147 7.88382 11.936 7.68952 11.9326C7.49522 11.9291 7.30717 12.0013 7.165 12.1337L5.915 13.3837C5.72925 13.5697 5.50867 13.7172 5.26588 13.8179C5.02308 13.9185 4.76283 13.9703 4.5 13.9703C4.23716 13.9703 3.97691 13.9185 3.73411 13.8179C3.49132 13.7172 3.27074 13.5697 3.085 13.3837V13.3837Z" fill="#24292F"/>
</svg>
