<svg width="16" height="17" viewBox="0 0 16 17" fill="none" xmlns="http://www.w3.org/2000/svg">
<path fill-rule="evenodd" clip-rule="evenodd" d="M2.5 8.69688V3.67188C2.5 3.60557 2.52634 3.54198 2.57322 3.4951C2.62011 3.44821 2.6837 3.42188 2.75 3.42188H7.775C7.80785 3.42182 7.84039 3.42823 7.87077 3.44076C7.90114 3.45329 7.92874 3.47167 7.952 3.49487L14.202 9.74487C14.2253 9.7681 14.2438 9.79569 14.2564 9.82606C14.269 9.85643 14.2754 9.88899 14.2754 9.92188C14.2754 9.95476 14.269 9.98732 14.2564 10.0177C14.2438 10.0481 14.2253 10.0757 14.202 10.0989L9.177 15.1239C9.15378 15.1472 9.12619 15.1656 9.09582 15.1782C9.06544 15.1908 9.03288 15.1973 9 15.1973C8.96712 15.1973 8.93456 15.1908 8.90418 15.1782C8.87381 15.1656 8.84622 15.1472 8.823 15.1239L2.573 8.87388C2.5498 8.85062 2.53141 8.82301 2.51888 8.79264C2.50636 8.76227 2.49994 8.72973 2.5 8.69688V8.69688ZM1 8.69688V3.67188C1 2.70587 1.784 1.92188 2.75 1.92188H7.775C8.239 1.92188 8.685 2.10588 9.013 2.43488L15.263 8.68488C15.5909 9.01303 15.7751 9.45796 15.7751 9.92188C15.7751 10.3858 15.5909 10.8307 15.263 11.1589L10.237 16.1849C9.90885 16.5128 9.46391 16.697 9 16.697C8.53609 16.697 8.09115 16.5128 7.763 16.1849L1.513 9.93487C1.35035 9.77234 1.22133 9.57935 1.1333 9.36692C1.04528 9.1545 0.999983 8.92681 1 8.69688V8.69688ZM6 5.92188C5.73478 5.92188 5.48043 6.02723 5.29289 6.21477C5.10536 6.4023 5 6.65666 5 6.92188C5 7.18709 5.10536 7.44145 5.29289 7.62898C5.48043 7.81652 5.73478 7.92188 6 7.92188C6.26522 7.92188 6.51957 7.81652 6.70711 7.62898C6.89464 7.44145 7 7.18709 7 6.92188C7 6.65666 6.89464 6.4023 6.70711 6.21477C6.51957 6.02723 6.26522 5.92188 6 5.92188Z" fill="#1A7F37"/>
</svg>
