<svg width="16" height="17" viewBox="0 0 16 17" fill="none" xmlns="http://www.w3.org/2000/svg">
<path fill-rule="evenodd" clip-rule="evenodd" d="M7.775 3.8375C7.64252 3.97967 7.57039 4.16772 7.57382 4.36202C7.57725 4.55632 7.65596 4.7417 7.79337 4.87912C7.93079 5.01653 8.11617 5.09524 8.31047 5.09867C8.50477 5.1021 8.69282 5.02998 8.835 4.8975L10.085 3.6475C10.2708 3.46168 10.4914 3.31427 10.7342 3.21371C10.977 3.11314 11.2372 3.06138 11.5 3.06138C11.7628 3.06138 12.023 3.11314 12.2658 3.21371C12.5086 3.31427 12.7292 3.46168 12.915 3.6475C13.1008 3.83332 13.2482 4.05392 13.3488 4.2967C13.4493 4.53949 13.5011 4.79971 13.5011 5.0625C13.5011 5.32529 13.4493 5.5855 13.3488 5.82829C13.2482 6.07107 13.1008 6.29167 12.915 6.4775L10.415 8.9775C10.2292 9.16345 10.0087 9.31097 9.76588 9.41161C9.52308 9.51226 9.26283 9.56407 9 9.56407C8.73716 9.56407 8.47691 9.51226 8.23411 9.41161C7.99132 9.31097 7.77074 9.16345 7.585 8.9775C7.44282 8.84502 7.25477 8.77289 7.06047 8.77632C6.86617 8.77975 6.68079 8.85846 6.54337 8.99587C6.40596 9.13329 6.32725 9.31867 6.32382 9.51297C6.32039 9.70727 6.39252 9.89532 6.525 10.0375C6.85001 10.3625 7.23586 10.6204 7.66052 10.7963C8.08518 10.9722 8.54034 11.0627 9 11.0627C9.45965 11.0627 9.91481 10.9722 10.3395 10.7963C10.7641 10.6204 11.15 10.3625 11.475 10.0375L13.975 7.5375C14.6314 6.88108 15.0002 5.9908 15.0002 5.0625C15.0002 4.13419 14.6314 3.24391 13.975 2.5875C13.3186 1.93108 12.4283 1.56232 11.5 1.56232C10.5717 1.56232 9.68141 1.93108 9.02499 2.5875L7.775 3.8375V3.8375ZM3.085 13.4775C2.89904 13.2917 2.75152 13.0712 2.65088 12.8284C2.55023 12.5856 2.49842 12.3253 2.49842 12.0625C2.49842 11.7997 2.55023 11.5394 2.65088 11.2966C2.75152 11.0538 2.89904 10.8332 3.085 10.6475L5.585 8.1475C5.77074 7.96154 5.99132 7.81402 6.23411 7.71338C6.47691 7.61273 6.73716 7.56092 7 7.56092C7.26283 7.56092 7.52308 7.61273 7.76588 7.71338C8.00867 7.81402 8.22925 7.96154 8.415 8.1475C8.55717 8.27998 8.74522 8.3521 8.93952 8.34867C9.13382 8.34524 9.3192 8.26653 9.45662 8.12912C9.59403 7.9917 9.67274 7.80632 9.67617 7.61202C9.6796 7.41772 9.60748 7.22967 9.475 7.0875C9.14999 6.76245 8.76413 6.50461 8.33947 6.3287C7.91481 6.15279 7.45965 6.06224 7 6.06224C6.54034 6.06224 6.08518 6.15279 5.66052 6.3287C5.23586 6.50461 4.85001 6.76245 4.525 7.0875L2.025 9.58749C1.36858 10.2439 0.999817 11.1342 0.999817 12.0625C0.999817 12.9908 1.36858 13.8811 2.025 14.5375C2.68141 15.1939 3.57169 15.5627 4.5 15.5627C5.4283 15.5627 6.31858 15.1939 6.975 14.5375L8.225 13.2875C8.35748 13.1453 8.4296 12.9573 8.42617 12.763C8.42274 12.5687 8.34403 12.3833 8.20662 12.2459C8.0692 12.1085 7.88382 12.0297 7.68952 12.0263C7.49522 12.0229 7.30717 12.095 7.165 12.2275L5.915 13.4775C5.72925 13.6634 5.50867 13.811 5.26588 13.9116C5.02308 14.0123 4.76283 14.0641 4.5 14.0641C4.23716 14.0641 3.97691 14.0123 3.73411 13.9116C3.49132 13.811 3.27074 13.6634 3.085 13.4775V13.4775Z" fill="#24292F"/>
</svg>
