<svg width="17" height="17" viewBox="0 0 17 17" fill="none" xmlns="http://www.w3.org/2000/svg">
<path d="M11.5522 2.34375H9.40625V1.09375C9.40625 0.894838 9.32723 0.704072 9.18658 0.56342C9.04593 0.422768 8.85516 0.34375 8.65625 0.34375C8.45734 0.34375 8.26657 0.422768 8.12592 0.56342C7.98527 0.704072 7.90625 0.894838 7.90625 1.09375V2.34375H5.76025C5.71074 2.34366 5.66232 2.35828 5.62112 2.38574C5.57993 2.4132 5.54782 2.45228 5.52886 2.49802C5.5099 2.54375 5.50495 2.59409 5.51463 2.64265C5.52431 2.6912 5.5482 2.73579 5.58325 2.77075L8.47925 5.66675C8.50247 5.69003 8.53006 5.7085 8.56043 5.72111C8.59081 5.73371 8.62337 5.7402 8.65625 5.7402C8.68913 5.7402 8.72169 5.73371 8.75207 5.72111C8.78244 5.7085 8.81003 5.69003 8.83325 5.66675L11.7292 2.77075C11.7643 2.73579 11.7882 2.6912 11.7979 2.64265C11.8076 2.59409 11.8026 2.54375 11.7836 2.49802C11.7647 2.45228 11.7326 2.4132 11.6914 2.38574C11.6502 2.35828 11.6018 2.34366 11.5522 2.34375ZM9.40625 15.5938C9.40625 15.7927 9.32723 15.9834 9.18658 16.1241C9.04593 16.2647 8.85516 16.3438 8.65625 16.3438C8.45734 16.3438 8.26657 16.2647 8.12592 16.1241C7.98527 15.9834 7.90625 15.7927 7.90625 15.5938V14.3438H5.76025C5.71074 14.3438 5.66232 14.3292 5.62112 14.3018C5.57993 14.2743 5.54782 14.2352 5.52886 14.1895C5.5099 14.1437 5.50495 14.0934 5.51463 14.0449C5.52431 13.9963 5.5482 13.9517 5.58325 13.9167L8.47925 11.0208C8.50247 10.9975 8.53006 10.979 8.56043 10.9664C8.59081 10.9538 8.62337 10.9473 8.65625 10.9473C8.68913 10.9473 8.72169 10.9538 8.75207 10.9664C8.78244 10.979 8.81003 10.9975 8.83325 11.0208L11.7292 13.9167C11.7643 13.9517 11.7882 13.9963 11.7979 14.0449C11.8076 14.0934 11.8026 14.1437 11.7836 14.1895C11.7647 14.2352 11.7326 14.2743 11.6914 14.3018C11.6502 14.3292 11.6018 14.3438 11.5522 14.3438H9.40625V15.5938ZM2.90625 9.09375C3.10516 9.09375 3.29593 9.01473 3.43658 8.87408C3.57723 8.73343 3.65625 8.54266 3.65625 8.34375C3.65625 8.14484 3.57723 7.95407 3.43658 7.81342C3.29593 7.67277 3.10516 7.59375 2.90625 7.59375H2.40625C2.20734 7.59375 2.01657 7.67277 1.87592 7.81342C1.73527 7.95407 1.65625 8.14484 1.65625 8.34375C1.65625 8.54266 1.73527 8.73343 1.87592 8.87408C2.01657 9.01473 2.20734 9.09375 2.40625 9.09375H2.90625ZM6.65625 8.34375C6.65625 8.54266 6.57723 8.73343 6.43658 8.87408C6.29593 9.01473 6.10516 9.09375 5.90625 9.09375H5.40625C5.20734 9.09375 5.01657 9.01473 4.87592 8.87408C4.73527 8.73343 4.65625 8.54266 4.65625 8.34375C4.65625 8.14484 4.73527 7.95407 4.87592 7.81342C5.01657 7.67277 5.20734 7.59375 5.40625 7.59375H5.90625C6.10516 7.59375 6.29593 7.67277 6.43658 7.81342C6.57723 7.95407 6.65625 8.14484 6.65625 8.34375ZM8.90625 9.09375C9.10516 9.09375 9.29593 9.01473 9.43658 8.87408C9.57723 8.73343 9.65625 8.54266 9.65625 8.34375C9.65625 8.14484 9.57723 7.95407 9.43658 7.81342C9.29593 7.67277 9.10516 7.59375 8.90625 7.59375H8.40625C8.20734 7.59375 8.01657 7.67277 7.87592 7.81342C7.73527 7.95407 7.65625 8.14484 7.65625 8.34375C7.65625 8.54266 7.73527 8.73343 7.87592 8.87408C8.01657 9.01473 8.20734 9.09375 8.40625 9.09375H8.90625ZM12.6562 8.34375C12.6562 8.54266 12.5772 8.73343 12.4366 8.87408C12.2959 9.01473 12.1052 9.09375 11.9062 9.09375H11.4062C11.2073 9.09375 11.0166 9.01473 10.8759 8.87408C10.7353 8.73343 10.6562 8.54266 10.6562 8.34375C10.6562 8.14484 10.7353 7.95407 10.8759 7.81342C11.0166 7.67277 11.2073 7.59375 11.4062 7.59375H11.9062C12.1052 7.59375 12.2959 7.67277 12.4366 7.81342C12.5772 7.95407 12.6562 8.14484 12.6562 8.34375ZM14.9062 9.09375C15.1052 9.09375 15.2959 9.01473 15.4366 8.87408C15.5772 8.73343 15.6562 8.54266 15.6562 8.34375C15.6562 8.14484 15.5772 7.95407 15.4366 7.81342C15.2959 7.67277 15.1052 7.59375 14.9062 7.59375H14.4062C14.2073 7.59375 14.0166 7.67277 13.8759 7.81342C13.7353 7.95407 13.6562 8.14484 13.6562 8.34375C13.6562 8.54266 13.7353 8.73343 13.8759 8.87408C14.0166 9.01473 14.2073 9.09375 14.4062 9.09375H14.9062Z" fill="#57606A"/>
</svg>
