<svg width="17" height="17" viewBox="0 0 17 17" fill="none" xmlns="http://www.w3.org/2000/svg">
<path d="M11.5522 2.84375H9.40625V1.59375C9.40625 1.39484 9.32723 1.20407 9.18658 1.06342C9.04593 0.922768 8.85516 0.84375 8.65625 0.84375C8.45734 0.84375 8.26657 0.922768 8.12592 1.06342C7.98527 1.20407 7.90625 1.39484 7.90625 1.59375V2.84375H5.76025C5.71074 2.84366 5.66232 2.85828 5.62112 2.88574C5.57993 2.9132 5.54782 2.95228 5.52886 2.99802C5.5099 3.04375 5.50495 3.09409 5.51463 3.14265C5.52431 3.1912 5.5482 3.23579 5.58325 3.27075L8.47925 6.16675C8.50247 6.19003 8.53006 6.2085 8.56043 6.22111C8.59081 6.23371 8.62337 6.2402 8.65625 6.2402C8.68913 6.2402 8.72169 6.23371 8.75207 6.22111C8.78244 6.2085 8.81003 6.19003 8.83325 6.16675L11.7292 3.27075C11.7643 3.23579 11.7882 3.1912 11.7979 3.14265C11.8076 3.09409 11.8026 3.04375 11.7836 2.99802C11.7647 2.95228 11.7326 2.9132 11.6914 2.88574C11.6502 2.85828 11.6018 2.84366 11.5522 2.84375ZM9.40625 16.0938C9.40625 16.2927 9.32723 16.4834 9.18658 16.6241C9.04593 16.7647 8.85516 16.8438 8.65625 16.8438C8.45734 16.8438 8.26657 16.7647 8.12592 16.6241C7.98527 16.4834 7.90625 16.2927 7.90625 16.0938V14.8438H5.76025C5.71074 14.8438 5.66232 14.8292 5.62112 14.8018C5.57993 14.7743 5.54782 14.7352 5.52886 14.6895C5.5099 14.6437 5.50495 14.5934 5.51463 14.5449C5.52431 14.4963 5.5482 14.4517 5.58325 14.4167L8.47925 11.5208C8.50247 11.4975 8.53006 11.479 8.56043 11.4664C8.59081 11.4538 8.62337 11.4473 8.65625 11.4473C8.68913 11.4473 8.72169 11.4538 8.75207 11.4664C8.78244 11.479 8.81003 11.4975 8.83325 11.5208L11.7292 14.4167C11.7643 14.4517 11.7882 14.4963 11.7979 14.5449C11.8076 14.5934 11.8026 14.6437 11.7836 14.6895C11.7647 14.7352 11.7326 14.7743 11.6914 14.8018C11.6502 14.8292 11.6018 14.8438 11.5522 14.8438H9.40625V16.0938ZM2.90625 9.59375C3.10516 9.59375 3.29593 9.51473 3.43658 9.37408C3.57723 9.23343 3.65625 9.04266 3.65625 8.84375C3.65625 8.64484 3.57723 8.45407 3.43658 8.31342C3.29593 8.17277 3.10516 8.09375 2.90625 8.09375H2.40625C2.20734 8.09375 2.01657 8.17277 1.87592 8.31342C1.73527 8.45407 1.65625 8.64484 1.65625 8.84375C1.65625 9.04266 1.73527 9.23343 1.87592 9.37408C2.01657 9.51473 2.20734 9.59375 2.40625 9.59375H2.90625ZM6.65625 8.84375C6.65625 9.04266 6.57723 9.23343 6.43658 9.37408C6.29593 9.51473 6.10516 9.59375 5.90625 9.59375H5.40625C5.20734 9.59375 5.01657 9.51473 4.87592 9.37408C4.73527 9.23343 4.65625 9.04266 4.65625 8.84375C4.65625 8.64484 4.73527 8.45407 4.87592 8.31342C5.01657 8.17277 5.20734 8.09375 5.40625 8.09375H5.90625C6.10516 8.09375 6.29593 8.17277 6.43658 8.31342C6.57723 8.45407 6.65625 8.64484 6.65625 8.84375ZM8.90625 9.59375C9.10516 9.59375 9.29593 9.51473 9.43658 9.37408C9.57723 9.23343 9.65625 9.04266 9.65625 8.84375C9.65625 8.64484 9.57723 8.45407 9.43658 8.31342C9.29593 8.17277 9.10516 8.09375 8.90625 8.09375H8.40625C8.20734 8.09375 8.01657 8.17277 7.87592 8.31342C7.73527 8.45407 7.65625 8.64484 7.65625 8.84375C7.65625 9.04266 7.73527 9.23343 7.87592 9.37408C8.01657 9.51473 8.20734 9.59375 8.40625 9.59375H8.90625ZM12.6562 8.84375C12.6562 9.04266 12.5772 9.23343 12.4366 9.37408C12.2959 9.51473 12.1052 9.59375 11.9062 9.59375H11.4062C11.2073 9.59375 11.0166 9.51473 10.8759 9.37408C10.7353 9.23343 10.6562 9.04266 10.6562 8.84375C10.6562 8.64484 10.7353 8.45407 10.8759 8.31342C11.0166 8.17277 11.2073 8.09375 11.4062 8.09375H11.9062C12.1052 8.09375 12.2959 8.17277 12.4366 8.31342C12.5772 8.45407 12.6562 8.64484 12.6562 8.84375ZM14.9062 9.59375C15.1052 9.59375 15.2959 9.51473 15.4366 9.37408C15.5772 9.23343 15.6562 9.04266 15.6562 8.84375C15.6562 8.64484 15.5772 8.45407 15.4366 8.31342C15.2959 8.17277 15.1052 8.09375 14.9062 8.09375H14.4062C14.2073 8.09375 14.0166 8.17277 13.8759 8.31342C13.7353 8.45407 13.6562 8.64484 13.6562 8.84375C13.6562 9.04266 13.7353 9.23343 13.8759 9.37408C14.0166 9.51473 14.2073 9.59375 14.4062 9.59375H14.9062Z" fill="#57606A"/>
</svg>
