<svg width="16" height="17" viewBox="0 0 16 17" fill="none" xmlns="http://www.w3.org/2000/svg">
<path fill-rule="evenodd" clip-rule="evenodd" d="M2 2.64062C2 1.97758 2.26339 1.3417 2.73223 0.872858C3.20108 0.404017 3.83696 0.140625 4.5 0.140625L13.25 0.140625C13.4489 0.140625 13.6397 0.219643 13.7803 0.360295C13.921 0.500947 14 0.691713 14 0.890625V13.3906C14 13.5895 13.921 13.7803 13.7803 13.921C13.6397 14.0616 13.4489 14.1406 13.25 14.1406H10.75C10.5511 14.1406 10.3603 14.0616 10.2197 13.921C10.079 13.7803 10 13.5895 10 13.3906C10 13.1917 10.079 13.0009 10.2197 12.8603C10.3603 12.7196 10.5511 12.6406 10.75 12.6406H12.5V10.6406H4.5C4.30308 10.6407 4.11056 10.6988 3.94657 10.8078C3.78257 10.9168 3.65442 11.0718 3.57816 11.2534C3.50191 11.4349 3.48096 11.635 3.51793 11.8284C3.5549 12.0218 3.64816 12.2 3.786 12.3406C3.92524 12.4828 4.0023 12.6744 4.00024 12.8734C3.99818 13.0724 3.91716 13.2624 3.775 13.4016C3.63285 13.5409 3.4412 13.6179 3.24222 13.6159C3.04325 13.6138 2.85324 13.5328 2.714 13.3906C2.25571 12.9235 1.99929 12.295 2 11.6406V2.64062ZM12.5 1.64062V9.14062H4.5C4.144 9.14062 3.806 9.21463 3.5 9.34863V2.64062C3.5 2.37541 3.60536 2.12105 3.79289 1.93352C3.98043 1.74598 4.23478 1.64063 4.5 1.64062H12.5ZM5 12.3906V15.6406C5 15.6871 5.01293 15.7326 5.03734 15.7721C5.06175 15.8116 5.09667 15.8435 5.1382 15.8642C5.17972 15.885 5.22621 15.8938 5.27245 15.8896C5.31869 15.8854 5.36286 15.8685 5.4 15.8406L6.85 14.7536C6.89328 14.7212 6.94591 14.7036 7 14.7036C7.05409 14.7036 7.10673 14.7212 7.15 14.7536L8.6 15.8406C8.63714 15.8685 8.68131 15.8854 8.72755 15.8896C8.77379 15.8938 8.82028 15.885 8.8618 15.8642C8.90333 15.8435 8.93826 15.8116 8.96266 15.7721C8.98707 15.7326 9 15.6871 9 15.6406V12.3906C9 12.3243 8.97366 12.2607 8.92678 12.2138C8.87989 12.167 8.81631 12.1406 8.75 12.1406H5.25C5.1837 12.1406 5.12011 12.167 5.07322 12.2138C5.02634 12.2607 5 12.3243 5 12.3906Z" fill="#57606A"/>
</svg>
