<svg width="17" height="16" viewBox="0 0 17 16" fill="none" xmlns="http://www.w3.org/2000/svg">
<path fill-rule="evenodd" clip-rule="evenodd" d="M8.90925 0.391999C8.6425 0.237288 8.33961 0.155807 8.03125 0.155807C7.72289 0.155807 7.42 0.237288 7.15325 0.391999L1.90325 3.437C1.638 3.59084 1.41783 3.81168 1.26479 4.07739C1.11175 4.3431 1.03122 4.64437 1.03125 4.951V11.049C1.03125 11.673 1.36325 12.249 1.90325 12.563L7.15325 15.608C7.42 15.7627 7.72289 15.8442 8.03125 15.8442C8.33961 15.8442 8.6425 15.7627 8.90925 15.608L14.1593 12.563C14.6993 12.25 15.0312 11.673 15.0312 11.049V4.951C15.0312 4.327 14.6993 3.751 14.1593 3.437L8.90925 0.391999ZM7.90625 1.69C7.94425 1.66806 7.98737 1.65651 8.03125 1.65651C8.07513 1.65651 8.11825 1.66806 8.15625 1.69L12.7863 4.375L8.03125 7.133L3.27625 4.375L7.90625 1.69ZM2.53125 5.677V11.049C2.53125 11.139 2.57825 11.22 2.65625 11.265L7.28125 13.948V8.432L2.53125 5.677ZM8.78125 13.948L13.4062 11.265C13.4442 11.2431 13.4757 11.2116 13.4976 11.1737C13.5196 11.1358 13.5312 11.0928 13.5312 11.049V5.677L8.78125 8.432V13.948Z" fill="#57606A"/>
</svg>
