<svg width="16" height="16" viewBox="0 0 16 16" fill="none" xmlns="http://www.w3.org/2000/svg">
<path fill-rule="evenodd" clip-rule="evenodd" d="M0 1.75C0 1.55109 0.0790176 1.36033 0.21967 1.21967C0.360322 1.07902 0.551088 1 0.75 1H5.003C6.23 1 7.32 1.59 8.003 2.501C8.35218 2.03433 8.80548 1.65563 9.32683 1.39504C9.84817 1.13446 10.4232 0.999186 11.006 1H15.251C15.4499 1 15.6407 1.07902 15.7813 1.21967C15.922 1.36033 16.001 1.55109 16.001 1.75V12.25C16.001 12.4489 15.922 12.6397 15.7813 12.7803C15.6407 12.921 15.4499 13 15.251 13H10.744C10.4485 13 10.1559 13.0582 9.88296 13.1713C9.60997 13.2843 9.36193 13.4501 9.153 13.659L8.531 14.28C8.39037 14.4205 8.19975 14.4993 8.001 14.4993C7.80225 14.4993 7.61163 14.4205 7.471 14.28L6.849 13.659C6.64007 13.4501 6.39203 13.2843 6.11904 13.1713C5.84606 13.0582 5.55348 13 5.258 13H0.75C0.551088 13 0.360322 12.921 0.21967 12.7803C0.0790176 12.6397 0 12.4489 0 12.25L0 1.75ZM8.755 4.75C8.755 4.15327 8.99205 3.58097 9.41401 3.15901C9.83597 2.73706 10.4083 2.5 11.005 2.5H14.5V11.5H10.743C10.033 11.5 9.343 11.701 8.751 12.072L8.755 4.75V4.75ZM7.251 12.074L7.255 7.001L7.253 4.748C7.25247 4.15161 7.01518 3.57983 6.59328 3.15831C6.17138 2.73678 5.59939 2.5 5.003 2.5H1.5V11.5H5.257C5.96242 11.5 6.65355 11.6989 7.251 12.074V12.074Z" fill="#57606A"/>
</svg>
