<svg width="17" height="16" viewBox="0 0 17 16" fill="none" xmlns="http://www.w3.org/2000/svg">
<path fill-rule="evenodd" clip-rule="evenodd" d="M0.453125 1.75C0.453125 0.784 1.23712 0 2.20312 0H14.7031C15.6691 0 16.4531 0.784 16.4531 1.75V14.25C16.4531 14.7141 16.2688 15.1592 15.9406 15.4874C15.6124 15.8156 15.1673 16 14.7031 16H2.20312C1.739 16 1.29388 15.8156 0.965688 15.4874C0.637499 15.1592 0.453125 14.7141 0.453125 14.25L0.453125 1.75ZM1.95312 6.5V14.25C1.95312 14.388 2.06513 14.5 2.20312 14.5H5.45312V6.5H1.95312ZM5.45312 5H1.95312V1.75C1.95312 1.6837 1.97946 1.62011 2.02635 1.57322C2.07323 1.52634 2.13682 1.5 2.20312 1.5H5.45312V5ZM6.95312 6.5V14.5H14.7031C14.7694 14.5 14.833 14.4737 14.8799 14.4268C14.9268 14.3799 14.9531 14.3163 14.9531 14.25V6.5H6.95312ZM14.9531 5H6.95312V1.5H14.7031C14.7694 1.5 14.833 1.52634 14.8799 1.57322C14.9268 1.62011 14.9531 1.6837 14.9531 1.75V5Z" fill="#57606A"/>
</svg>
