<svg width="24" height="25" viewBox="0 0 24 25" fill="none" xmlns="http://www.w3.org/2000/svg">
<path fill-rule="evenodd" clip-rule="evenodd" d="M12 0.84375C5.37 0.84375 0 6.21375 0 12.8438C0 18.1537 3.435 22.6388 8.205 24.2288C8.805 24.3338 9.03 23.9738 9.03 23.6588C9.03 23.3738 9.015 22.4288 9.015 21.4238C6 21.9788 5.22 20.6887 4.98 20.0137C4.845 19.6687 4.26 18.6037 3.75 18.3187C3.33 18.0937 2.73 17.5387 3.735 17.5237C4.68 17.5087 5.355 18.3937 5.58 18.7537C6.66 20.5687 8.385 20.0588 9.075 19.7438C9.18 18.9638 9.495 18.4387 9.84 18.1387C7.17 17.8387 4.38 16.8037 4.38 12.2137C4.38 10.9087 4.845 9.82875 5.61 8.98875C5.49 8.68875 5.07 7.45875 5.73 5.80875C5.73 5.80875 6.735 5.49375 9.03 7.03875C9.99 6.76875 11.01 6.63375 12.03 6.63375C13.05 6.63375 14.07 6.76875 15.03 7.03875C17.325 5.47875 18.33 5.80875 18.33 5.80875C18.99 7.45875 18.57 8.68875 18.45 8.98875C19.215 9.82875 19.68 10.8937 19.68 12.2137C19.68 16.8187 16.875 17.8387 14.205 18.1387C14.64 18.5137 15.015 19.2338 15.015 20.3588C15.015 21.9638 15 23.2538 15 23.6588C15 23.9738 15.225 24.3488 15.825 24.2288C18.2072 23.4245 20.2773 21.8935 21.7438 19.8512C23.2103 17.8089 23.9994 15.3581 24 12.8438C24 6.21375 18.63 0.84375 12 0.84375Z" fill="#6E7781"/>
</svg>
