<svg width="16" height="16" viewBox="0 0 16 16" fill="none" xmlns="http://www.w3.org/2000/svg">
<path fill-rule="evenodd" clip-rule="evenodd" d="M4.72001 3.22C4.86219 3.08752 5.05023 3.0154 5.24453 3.01883C5.43884 3.02225 5.62422 3.10097 5.76163 3.23838C5.89905 3.37579 5.97776 3.56118 5.98119 3.75548C5.98461 3.94978 5.91249 4.13783 5.78001 4.28L2.06001 8L5.78001 11.72C5.8537 11.7887 5.9128 11.8715 5.95379 11.9635C5.99478 12.0555 6.01683 12.1548 6.0186 12.2555C6.02038 12.3562 6.00186 12.4562 5.96413 12.5496C5.92641 12.643 5.87027 12.7278 5.79905 12.799C5.72783 12.8703 5.643 12.9264 5.54961 12.9641C5.45622 13.0018 5.35619 13.0204 5.25549 13.0186C5.15479 13.0168 5.05547 12.9948 4.96347 12.9538C4.87147 12.9128 4.78867 12.8537 4.72001 12.78L0.470011 8.53C0.329561 8.38938 0.250671 8.19875 0.250671 8C0.250671 7.80125 0.329561 7.61063 0.470011 7.47L4.72001 3.22V3.22ZM11.28 3.22C11.2113 3.14631 11.1285 3.08721 11.0365 3.04622C10.9446 3.00523 10.8452 2.98319 10.7445 2.98141C10.6438 2.97963 10.5438 2.99816 10.4504 3.03588C10.357 3.0736 10.2722 3.12974 10.201 3.20096C10.1298 3.27218 10.0736 3.35702 10.0359 3.4504C9.99817 3.54379 9.97964 3.64382 9.98142 3.74452C9.9832 3.84523 10.0052 3.94454 10.0462 4.03654C10.0872 4.12854 10.1463 4.21134 10.22 4.28L13.94 8L10.22 11.72C10.1463 11.7887 10.0872 11.8715 10.0462 11.9635C10.0052 12.0555 9.9832 12.1548 9.98142 12.2555C9.97964 12.3562 9.99817 12.4562 10.0359 12.5496C10.0736 12.643 10.1298 12.7278 10.201 12.799C10.2722 12.8703 10.357 12.9264 10.4504 12.9641C10.5438 13.0018 10.6438 13.0204 10.7445 13.0186C10.8452 13.0168 10.9446 12.9948 11.0365 12.9538C11.1285 12.9128 11.2113 12.8537 11.28 12.78L15.53 8.53C15.6705 8.38938 15.7494 8.19875 15.7494 8C15.7494 7.80125 15.6705 7.61063 15.53 7.47L11.28 3.22V3.22Z" fill="#57606A"/>
</svg>
