<svg width="17" height="17" viewBox="0 0 17 17" fill="none" xmlns="http://www.w3.org/2000/svg">
<path fill-rule="evenodd" clip-rule="evenodd" d="M5.75 3.5938C5.75 3.79272 5.67099 3.98348 5.53033 4.12413C5.38968 4.26479 5.19892 4.3438 5 4.3438C4.80109 4.3438 4.61033 4.26479 4.46967 4.12413C4.32902 3.98348 4.25 3.79272 4.25 3.5938C4.25 3.39489 4.32902 3.20412 4.46967 3.06347C4.61033 2.92282 4.80109 2.8438 5 2.8438C5.19892 2.8438 5.38968 2.92282 5.53033 3.06347C5.67099 3.20412 5.75 3.39489 5.75 3.5938V3.5938ZM5.75 5.7158C6.25042 5.53888 6.67217 5.19075 6.94073 4.73294C7.20929 4.27513 7.30735 3.73712 7.2176 3.214C7.12785 2.69088 6.85605 2.21633 6.45025 1.87422C6.04445 1.53212 5.53077 1.34448 5 1.34448C4.46924 1.34448 3.95556 1.53212 3.54976 1.87422C3.14396 2.21633 2.87216 2.69088 2.78241 3.214C2.69265 3.73712 2.79072 4.27513 3.05928 4.73294C3.32784 5.19075 3.74959 5.53888 4.25 5.7158V6.5938C4.25 7.19054 4.48706 7.76284 4.90901 8.18479C5.33097 8.60675 5.90327 8.8438 6.5 8.8438H8V10.9718C7.49932 11.1487 7.0773 11.497 6.80855 11.955C6.53981 12.413 6.44164 12.9513 6.53139 13.4747C6.62115 13.998 6.89306 14.4729 7.29905 14.8151C7.70504 15.1574 8.21897 15.3452 8.75 15.3452C9.28104 15.3452 9.79497 15.1574 10.201 14.8151C10.607 14.4729 10.8789 13.998 10.9686 13.4747C11.0584 12.9513 10.9602 12.413 10.6915 11.955C10.4227 11.497 10.0007 11.1487 9.5 10.9718V8.8438H11C11.5967 8.8438 12.169 8.60675 12.591 8.18479C13.013 7.76284 13.25 7.19054 13.25 6.5938V5.7158C13.7504 5.53888 14.1722 5.19075 14.4407 4.73294C14.7093 4.27513 14.8074 3.73712 14.7176 3.214C14.6278 2.69088 14.3561 2.21633 13.9502 1.87422C13.5444 1.53212 13.0308 1.34448 12.5 1.34448C11.9692 1.34448 11.4556 1.53212 11.0498 1.87422C10.644 2.21633 10.3722 2.69088 10.2824 3.214C10.1927 3.73712 10.2907 4.27513 10.5593 4.73294C10.8278 5.19075 11.2496 5.53888 11.75 5.7158V6.5938C11.75 6.79272 11.671 6.98348 11.5303 7.12413C11.3897 7.26479 11.1989 7.3438 11 7.3438H6.5C6.30109 7.3438 6.11033 7.26479 5.96967 7.12413C5.82902 6.98348 5.75 6.79272 5.75 6.5938V5.7158ZM9.5 13.0938C9.5 13.2927 9.42099 13.4835 9.28033 13.6241C9.13968 13.7648 8.94892 13.8438 8.75 13.8438C8.55109 13.8438 8.36033 13.7648 8.21967 13.6241C8.07902 13.4835 8 13.2927 8 13.0938C8 12.8949 8.07902 12.7041 8.21967 12.5635C8.36033 12.4228 8.55109 12.3438 8.75 12.3438C8.94892 12.3438 9.13968 12.4228 9.28033 12.5635C9.42099 12.7041 9.5 12.8949 9.5 13.0938ZM12.5 4.3438C12.6989 4.3438 12.8897 4.26479 13.0303 4.12413C13.171 3.98348 13.25 3.79272 13.25 3.5938C13.25 3.39489 13.171 3.20412 13.0303 3.06347C12.8897 2.92282 12.6989 2.8438 12.5 2.8438C12.3011 2.8438 12.1103 2.92282 11.9697 3.06347C11.829 3.20412 11.75 3.39489 11.75 3.5938C11.75 3.79272 11.829 3.98348 11.9697 4.12413C12.1103 4.26479 12.3011 4.3438 12.5 4.3438Z" fill="#57606A"/>
</svg>
