<svg width="17" height="17" viewBox="0 0 17 17" fill="none" xmlns="http://www.w3.org/2000/svg">
<g clip-path="url(#clip0_3_360)">
<path fill-rule="evenodd" clip-rule="evenodd" d="M2.89063 3.15625C2.89063 2.49321 3.15402 1.85732 3.62286 1.38848C4.0917 0.919642 4.72759 0.65625 5.39063 0.65625L14.1406 0.65625C14.3395 0.65625 14.5303 0.735268 14.671 0.87592C14.8116 1.01657 14.8906 1.20734 14.8906 1.40625V13.9062C14.8906 14.1052 14.8116 14.2959 14.671 14.4366C14.5303 14.5772 14.3395 14.6562 14.1406 14.6562H11.6406C11.4417 14.6562 11.2509 14.5772 11.1103 14.4366C10.9696 14.2959 10.8906 14.1052 10.8906 13.9062C10.8906 13.7073 10.9696 13.5166 11.1103 13.3759C11.2509 13.2353 11.4417 13.1562 11.6406 13.1562H13.3906V11.1562H5.39063C5.19371 11.1563 5.00118 11.2144 4.83719 11.3235C4.6732 11.4325 4.54504 11.5875 4.46879 11.769C4.39253 11.9506 4.37158 12.1506 4.40856 12.344C4.44553 12.5374 4.53878 12.7156 4.67663 12.8562C4.81587 12.9984 4.89293 13.1901 4.89087 13.389C4.8888 13.588 4.80778 13.778 4.66563 13.9172C4.52347 14.0565 4.33182 14.1336 4.13285 14.1315C3.93387 14.1294 3.74387 14.0484 3.60463 13.9062C3.14634 13.4391 2.88992 12.8106 2.89063 12.1562V3.15625ZM13.3906 2.15625V9.65625H5.39063C5.03463 9.65625 4.69663 9.73025 4.39063 9.86425V3.15625C4.39063 2.89103 4.49598 2.63668 4.68352 2.44914C4.87106 2.26161 5.12541 2.15625 5.39063 2.15625H13.3906ZM5.89063 12.9062V16.1562C5.89063 16.2027 5.90356 16.2482 5.92796 16.2877C5.95237 16.3272 5.9873 16.3591 6.02882 16.3799C6.07035 16.4006 6.11684 16.4094 6.16308 16.4052C6.20932 16.4011 6.25348 16.3841 6.29063 16.3562L7.74063 15.2692C7.7839 15.2368 7.83653 15.2192 7.89063 15.2192C7.94472 15.2192 7.99735 15.2368 8.04063 15.2692L9.49063 16.3562C9.52777 16.3841 9.57193 16.4011 9.61818 16.4052C9.66442 16.4094 9.7109 16.4006 9.75243 16.3799C9.79396 16.3591 9.82888 16.3272 9.85329 16.2877C9.8777 16.2482 9.89063 16.2027 9.89063 16.1562V12.9062C9.89063 12.8399 9.86429 12.7764 9.8174 12.7295C9.77052 12.6826 9.70693 12.6562 9.64063 12.6562H6.14063C6.07432 12.6562 6.01073 12.6826 5.96385 12.7295C5.91697 12.7764 5.89063 12.8399 5.89063 12.9062Z" fill="#2BBC8A"/>
</g>
<defs>
<clipPath id="clip0_3_360">
<rect width="16" height="16" fill="white" transform="translate(0.890625 0.65625)"/>
</clipPath>
</defs>
</svg>
