<svg width="16" height="20" viewBox="0 0 16 20" fill="none" xmlns="http://www.w3.org/2000/svg">
<path fill-rule="evenodd" clip-rule="evenodd" d="M4.05937 3.91497C4.05937 4.17791 3.95491 4.43008 3.76899 4.616C3.58307 4.80193 3.3309 4.90638 3.06796 4.90638C2.80502 4.90638 2.55285 4.80193 2.36693 4.616C2.181 4.43008 2.07655 4.17791 2.07655 3.91497C2.07655 3.65203 2.181 3.39987 2.36693 3.21394C2.55285 3.02802 2.80502 2.92356 3.06796 2.92356C3.3309 2.92356 3.58307 3.02802 3.76899 3.21394C3.95491 3.39987 4.05937 3.65203 4.05937 3.91497V3.91497ZM4.05937 6.71999C4.72085 6.48612 5.27835 6.02594 5.63335 5.42077C5.98835 4.81561 6.11799 4.10442 5.99935 3.41292C5.8807 2.72142 5.52142 2.09412 4.985 1.6419C4.44858 1.18968 3.76957 0.94165 3.06796 0.94165C2.36635 0.94165 1.68734 1.18968 1.15092 1.6419C0.614498 2.09412 0.255217 2.72142 0.136574 3.41292C0.0179311 4.10442 0.147566 4.81561 0.502566 5.42077C0.857566 6.02594 1.41507 6.48612 2.07655 6.71999V7.8806C2.07655 8.66941 2.38991 9.42591 2.94768 9.98369C3.50546 10.5415 4.26196 10.8548 5.05077 10.8548H7.03358V13.6678C6.37174 13.9016 5.81388 14.362 5.45863 14.9674C5.10338 15.5728 4.97361 16.2844 5.09226 16.9762C5.21091 17.6681 5.57034 18.2957 6.10701 18.7482C6.64368 19.2007 7.32303 19.4488 8.02499 19.4488C8.72695 19.4488 9.4063 19.2007 9.94298 18.7482C10.4796 18.2957 10.8391 17.6681 10.9577 16.9762C11.0764 16.2844 10.9466 15.5728 10.5913 14.9674C10.2361 14.362 9.67825 13.9016 9.0164 13.6678V10.8548H10.9992C11.788 10.8548 12.5445 10.5415 13.1023 9.98369C13.6601 9.42591 13.9734 8.66941 13.9734 7.8806V6.71999C14.6349 6.48612 15.1924 6.02594 15.5474 5.42077C15.9024 4.81561 16.0321 4.10442 15.9134 3.41292C15.7948 2.72142 15.4355 2.09412 14.8991 1.6419C14.3626 1.18968 13.6836 0.94165 12.982 0.94165C12.2804 0.94165 11.6014 1.18968 11.065 1.6419C10.5286 2.09412 10.1693 2.72142 10.0506 3.41292C9.93199 4.10442 10.0616 4.81561 10.4166 5.42077C10.7716 6.02594 11.3291 6.48612 11.9906 6.71999V7.8806C11.9906 8.14353 11.8862 8.3957 11.7002 8.58163C11.5143 8.76755 11.2621 8.872 10.9992 8.872H5.05077C4.78783 8.872 4.53567 8.76755 4.34974 8.58163C4.16382 8.3957 4.05937 8.14353 4.05937 7.8806V6.71999ZM9.0164 16.4728C9.0164 16.7357 8.91195 16.9879 8.72602 17.1738C8.5401 17.3597 8.28793 17.4642 8.02499 17.4642C7.76205 17.4642 7.50989 17.3597 7.32396 17.1738C7.13804 16.9879 7.03358 16.7357 7.03358 16.4728C7.03358 16.2098 7.13804 15.9577 7.32396 15.7718C7.50989 15.5858 7.76205 15.4814 8.02499 15.4814C8.28793 15.4814 8.5401 15.5858 8.72602 15.7718C8.91195 15.9577 9.0164 16.2098 9.0164 16.4728ZM12.982 4.90638C13.245 4.90638 13.4971 4.80193 13.6831 4.616C13.869 4.43008 13.9734 4.17791 13.9734 3.91497C13.9734 3.65203 13.869 3.39987 13.6831 3.21394C13.4971 3.02802 13.245 2.92356 12.982 2.92356C12.7191 2.92356 12.4669 3.02802 12.281 3.21394C12.0951 3.39987 11.9906 3.65203 11.9906 3.91497C11.9906 4.17791 12.0951 4.43008 12.281 4.616C12.4669 4.80193 12.7191 4.90638 12.982 4.90638Z" fill="#00000F"/>
</svg>
