<svg width="17" height="16" viewBox="0 0 17 16" fill="none" xmlns="http://www.w3.org/2000/svg">
<path fill-rule="evenodd" clip-rule="evenodd" d="M1.85938 1.75C1.85938 1.55109 1.78036 1.36032 1.63971 1.21967C1.49905 1.07902 1.30829 1 1.10938 1C0.910463 1 0.719697 1.07902 0.579045 1.21967C0.438393 1.36032 0.359375 1.55109 0.359375 1.75L0.359375 14.25C0.359375 14.664 0.695375 15 1.10938 15H15.6094C15.8083 15 15.9991 14.921 16.1397 14.7803C16.2804 14.6397 16.3594 14.4489 16.3594 14.25C16.3594 14.0511 16.2804 13.8603 16.1397 13.7197C15.9991 13.579 15.8083 13.5 15.6094 13.5H1.85938V1.75ZM16.1394 4.28C16.2719 4.13783 16.344 3.94978 16.3406 3.75548C16.3371 3.56118 16.2584 3.37579 16.121 3.23838C15.9836 3.10097 15.7982 3.02225 15.6039 3.01883C15.4096 3.0154 15.2216 3.08752 15.0794 3.22L10.3594 7.94L7.88938 5.47C7.74875 5.32955 7.55813 5.25066 7.35938 5.25066C7.16062 5.25066 6.97 5.32955 6.82937 5.47L3.57938 8.72C3.4469 8.86218 3.37477 9.05022 3.3782 9.24452C3.38163 9.43882 3.46034 9.62421 3.59775 9.76162C3.73517 9.89903 3.92055 9.97775 4.11485 9.98118C4.30915 9.9846 4.4972 9.91248 4.63938 9.78L7.35938 7.06L9.82938 9.53C9.97 9.67045 10.1606 9.74934 10.3594 9.74934C10.5581 9.74934 10.7487 9.67045 10.8894 9.53L16.1394 4.28V4.28Z" fill="#57606A"/>
</svg>
