<svg width="17" height="16" viewBox="0 0 17 16" fill="none" xmlns="http://www.w3.org/2000/svg">
<path fill-rule="evenodd" clip-rule="evenodd" d="M13.7487 6.22C13.8892 6.36062 13.9681 6.55125 13.9681 6.75C13.9681 6.94875 13.8892 7.13937 13.7487 7.28L9.49875 11.53C9.35812 11.6704 9.1675 11.7493 8.96875 11.7493C8.77 11.7493 8.57937 11.6704 8.43875 11.53L4.18875 7.28C4.05627 7.13782 3.98415 6.94977 3.98757 6.75547C3.991 6.56117 4.06971 6.37579 4.20713 6.23837C4.34454 6.10096 4.52993 6.02225 4.72423 6.01882C4.91853 6.01539 5.10657 6.08752 5.24875 6.22L8.96875 9.94L12.6887 6.22C12.8294 6.07955 13.02 6.00066 13.2187 6.00066C13.4175 6.00066 13.6081 6.07955 13.7487 6.22V6.22Z" fill="white"/>
</svg>
