<svg width="17" height="16" viewBox="0 0 17 16" fill="none" xmlns="http://www.w3.org/2000/svg">
<path fill-rule="evenodd" clip-rule="evenodd" d="M2.518 3.14301L1.302 1.92701C1.26704 1.89196 1.22245 1.86808 1.1739 1.85839C1.12534 1.84871 1.07501 1.85366 1.02927 1.87262C0.983532 1.89158 0.944455 1.92369 0.91699 1.96489C0.889526 2.00608 0.874912 2.0545 0.875 2.10401V5.75001C0.875 5.88801 0.987 6.00001 1.125 6.00001H4.771C4.82051 6.0001 4.86893 5.98549 4.91013 5.95802C4.95132 5.93056 4.98343 5.89148 5.00239 5.84575C5.02135 5.80001 5.0263 5.74967 5.01662 5.70112C5.00694 5.65256 4.98305 5.60798 4.948 5.57301L3.59 4.21501C4.47523 2.97866 5.76591 2.09179 7.23746 1.70872C8.70901 1.32564 10.2683 1.47061 11.644 2.11839C13.0197 2.76617 14.1248 3.87577 14.7669 5.25412C15.4091 6.63247 15.5477 8.19233 15.1586 9.6623C14.7695 11.1323 13.8773 12.4193 12.6374 13.2995C11.3974 14.1796 9.88812 14.5972 8.37208 14.4796C6.85605 14.3619 5.42924 13.7165 4.3399 12.6556C3.25057 11.5947 2.56766 10.1854 2.41 8.67301C2.38958 8.47503 2.29134 8.29327 2.13691 8.16771C1.98247 8.04216 1.78448 7.98309 1.5865 8.00351C1.38852 8.02394 1.20675 8.12217 1.0812 8.27661C0.955642 8.43104 0.896579 8.62903 0.917 8.82701C1.10939 10.6783 1.94115 12.4045 3.2691 13.7086C4.59706 15.0127 6.33811 15.813 8.19253 15.9718C10.047 16.1306 11.8987 15.6379 13.429 14.5786C14.9594 13.5192 16.0725 11.9595 16.5768 10.1679C17.0811 8.37635 16.9451 6.465 16.1921 4.76292C15.4391 3.06084 14.1162 1.67453 12.4513 0.842644C10.7863 0.0107588 8.88343 -0.214651 7.0702 0.205219C5.25696 0.62509 3.64684 1.66397 2.517 3.14301H2.518ZM8.625 4.00001C8.82391 4.00001 9.01468 4.07903 9.15533 4.21968C9.29598 4.36034 9.375 4.5511 9.375 4.75001V7.74201L11.403 8.55401C11.5817 8.63192 11.7231 8.77636 11.7971 8.95671C11.8711 9.13706 11.872 9.33915 11.7996 9.52016C11.7272 9.70116 11.5871 9.84685 11.4091 9.92634C11.2311 10.0058 11.0291 10.0129 10.846 9.94601L8.346 8.94601C8.20697 8.8903 8.08781 8.79422 8.00386 8.67018C7.91992 8.54613 7.87504 8.39979 7.875 8.25001V4.75001C7.875 4.5511 7.95402 4.36034 8.09467 4.21968C8.23532 4.07903 8.42609 4.00001 8.625 4.00001V4.00001Z" fill="#24292F"/>
</svg>
