<svg width="17" height="16" viewBox="0 0 17 16" fill="none" xmlns="http://www.w3.org/2000/svg">
<path fill-rule="evenodd" clip-rule="evenodd" d="M5.595 3.22C5.73718 3.08752 5.92523 3.0154 6.11953 3.01883C6.31383 3.02225 6.49921 3.10097 6.63663 3.23838C6.77404 3.37579 6.85275 3.56118 6.85618 3.75548C6.85961 3.94978 6.78748 4.13783 6.655 4.28L2.935 8L6.655 11.72C6.72869 11.7887 6.78779 11.8715 6.82878 11.9635C6.86978 12.0555 6.89182 12.1548 6.8936 12.2555C6.89537 12.3562 6.87685 12.4562 6.83913 12.5496C6.80141 12.643 6.74526 12.7278 6.67404 12.799C6.60282 12.8703 6.51799 12.9264 6.4246 12.9641C6.33121 13.0018 6.23118 13.0204 6.13048 13.0186C6.02978 13.0168 5.93047 12.9948 5.83847 12.9538C5.74647 12.9128 5.66367 12.8537 5.595 12.78L1.345 8.53C1.20455 8.38938 1.12566 8.19875 1.12566 8C1.12566 7.80125 1.20455 7.61063 1.345 7.47L5.595 3.22V3.22ZM12.155 3.22C12.0863 3.14631 12.0035 3.08721 11.9115 3.04622C11.8195 3.00523 11.7202 2.98319 11.6195 2.98141C11.5188 2.97963 11.4188 2.99816 11.3254 3.03588C11.232 3.0736 11.1472 3.12974 11.076 3.20096C11.0047 3.27218 10.9486 3.35702 10.9109 3.4504C10.8732 3.54379 10.8546 3.64382 10.8564 3.74452C10.8582 3.84523 10.8802 3.94454 10.9212 4.03654C10.9622 4.12854 11.0213 4.21134 11.095 4.28L14.815 8L11.095 11.72C11.0213 11.7887 10.9622 11.8715 10.9212 11.9635C10.8802 12.0555 10.8582 12.1548 10.8564 12.2555C10.8546 12.3562 10.8732 12.4562 10.9109 12.5496C10.9486 12.643 11.0047 12.7278 11.076 12.799C11.1472 12.8703 11.232 12.9264 11.3254 12.9641C11.4188 13.0018 11.5188 13.0204 11.6195 13.0186C11.7202 13.0168 11.8195 12.9948 11.9115 12.9538C12.0035 12.9128 12.0863 12.8537 12.155 12.78L16.405 8.53C16.5455 8.38938 16.6243 8.19875 16.6243 8C16.6243 7.80125 16.5455 7.61063 16.405 7.47L12.155 3.22V3.22Z" fill="#57606A"/>
</svg>
