<svg width="17" height="16" viewBox="0 0 17 16" fill="none" xmlns="http://www.w3.org/2000/svg">
<path fill-rule="evenodd" clip-rule="evenodd" d="M8.95311 0.25C9.09312 0.24991 9.23036 0.289014 9.3493 0.362887C9.46824 0.43676 9.56413 0.542452 9.62611 0.668L11.5081 4.483L15.7181 5.095C15.8566 5.11511 15.9866 5.17355 16.0936 5.26372C16.2006 5.35388 16.2803 5.47218 16.3235 5.60523C16.3668 5.73829 16.372 5.8808 16.3385 6.01665C16.3051 6.1525 16.2342 6.27628 16.1341 6.374L13.0881 9.344L13.8071 13.536C13.8308 13.6739 13.8155 13.8157 13.7628 13.9454C13.7101 14.0751 13.6222 14.1874 13.509 14.2697C13.3958 14.352 13.2618 14.401 13.1222 14.4111C12.9826 14.4212 12.843 14.3921 12.7191 14.327L8.95311 12.347L5.18711 14.327C5.06329 14.392 4.92377 14.4211 4.7843 14.411C4.64482 14.4009 4.51095 14.352 4.39779 14.2699C4.28463 14.1877 4.1967 14.0755 4.14392 13.946C4.09114 13.8165 4.07562 13.6749 4.09911 13.537L4.81911 9.343L1.77111 6.374C1.67067 6.27632 1.59961 6.15247 1.56596 6.01647C1.53231 5.88047 1.53743 5.73777 1.58073 5.60453C1.62403 5.47129 1.70379 5.35284 1.81096 5.26261C1.91813 5.17238 2.04844 5.11397 2.18711 5.094L6.39711 4.483L8.28011 0.668C8.34209 0.542452 8.43797 0.43676 8.55691 0.362887C8.67585 0.289014 8.81309 0.24991 8.95311 0.25V0.25ZM8.95311 2.695L7.56811 5.5C7.51432 5.6089 7.43489 5.70311 7.33665 5.77453C7.23841 5.84595 7.12429 5.89244 7.00411 5.91L3.90711 6.36L6.14711 8.544C6.23426 8.62886 6.29946 8.73365 6.33709 8.84933C6.37472 8.96501 6.38365 9.0881 6.36311 9.208L5.83511 12.292L8.60411 10.836C8.71174 10.7794 8.83151 10.7499 8.95311 10.7499C9.0747 10.7499 9.19448 10.7794 9.30211 10.836L12.0721 12.292L11.5421 9.208C11.5216 9.0881 11.5305 8.96501 11.5681 8.84933C11.6058 8.73365 11.671 8.62886 11.7581 8.544L13.9981 6.361L10.9021 5.911C10.7819 5.89344 10.6678 5.84695 10.5696 5.77553C10.4713 5.70411 10.3919 5.6099 10.3381 5.501L8.95311 2.694V2.695Z" fill="#57606A"/>
</svg>
