<svg width="17" height="16" viewBox="0 0 17 16" fill="none" xmlns="http://www.w3.org/2000/svg">
<path fill-rule="evenodd" clip-rule="evenodd" d="M5.92188 3.25001C5.92188 3.44892 5.84286 3.63969 5.70221 3.78034C5.56156 3.92099 5.37079 4.00001 5.17188 4.00001C4.97297 4.00001 4.7822 3.92099 4.64155 3.78034C4.5009 3.63969 4.42188 3.44892 4.42188 3.25001C4.42188 3.05109 4.5009 2.86033 4.64155 2.71968C4.7822 2.57902 4.97297 2.50001 5.17188 2.50001C5.37079 2.50001 5.56156 2.57902 5.70221 2.71968C5.84286 2.86033 5.92188 3.05109 5.92188 3.25001V3.25001ZM5.92188 5.37201C6.42229 5.19509 6.84405 4.84696 7.1126 4.38915C7.38116 3.93134 7.47923 3.39333 7.38948 2.87021C7.29972 2.34709 7.02793 1.87253 6.62212 1.53043C6.21632 1.18832 5.70265 1.00069 5.17188 1.00069C4.64111 1.00069 4.12744 1.18832 3.72163 1.53043C3.31583 1.87253 3.04404 2.34709 2.95428 2.87021C2.86453 3.39333 2.9626 3.93134 3.23116 4.38915C3.49971 4.84696 3.92147 5.19509 4.42188 5.37201V6.25001C4.42188 6.84674 4.65893 7.41904 5.08089 7.841C5.50285 8.26295 6.07514 8.50001 6.67188 8.50001H8.17188V10.628C7.67119 10.8049 7.24917 11.1532 6.98043 11.6112C6.71168 12.0692 6.61351 12.6075 6.70327 13.1309C6.79302 13.6543 7.06493 14.1291 7.47092 14.4714C7.87691 14.8136 8.39085 15.0014 8.92188 15.0014C9.45291 15.0014 9.96685 14.8136 10.3728 14.4714C10.7788 14.1291 11.0507 13.6543 11.1405 13.1309C11.2302 12.6075 11.1321 12.0692 10.8633 11.6112C10.5946 11.1532 10.1726 10.8049 9.67188 10.628V8.50001H11.1719C11.7686 8.50001 12.3409 8.26295 12.7629 7.841C13.1848 7.41904 13.4219 6.84674 13.4219 6.25001V5.37201C13.9223 5.19509 14.344 4.84696 14.6126 4.38915C14.8812 3.93134 14.9792 3.39333 14.8895 2.87021C14.7997 2.34709 14.5279 1.87253 14.1221 1.53043C13.7163 1.18832 13.2026 1.00069 12.6719 1.00069C12.1411 1.00069 11.6274 1.18832 11.2216 1.53043C10.8158 1.87253 10.544 2.34709 10.4543 2.87021C10.3645 3.39333 10.4626 3.93134 10.7312 4.38915C10.9997 4.84696 11.4215 5.19509 11.9219 5.37201V6.25001C11.9219 6.44892 11.8429 6.63969 11.7022 6.78034C11.5616 6.92099 11.3708 7.00001 11.1719 7.00001H6.67188C6.47297 7.00001 6.2822 6.92099 6.14155 6.78034C6.0009 6.63969 5.92188 6.44892 5.92188 6.25001V5.37201ZM9.67188 12.75C9.67188 12.9489 9.59286 13.1397 9.45221 13.2803C9.31156 13.421 9.12079 13.5 8.92188 13.5C8.72297 13.5 8.5322 13.421 8.39155 13.2803C8.2509 13.1397 8.17188 12.9489 8.17188 12.75C8.17188 12.5511 8.2509 12.3603 8.39155 12.2197C8.5322 12.079 8.72297 12 8.92188 12C9.12079 12 9.31156 12.079 9.45221 12.2197C9.59286 12.3603 9.67188 12.5511 9.67188 12.75ZM12.6719 4.00001C12.8708 4.00001 13.0616 3.92099 13.2022 3.78034C13.3429 3.63969 13.4219 3.44892 13.4219 3.25001C13.4219 3.05109 13.3429 2.86033 13.2022 2.71968C13.0616 2.57902 12.8708 2.50001 12.6719 2.50001C12.473 2.50001 12.2822 2.57902 12.1416 2.71968C12.0009 2.86033 11.9219 3.05109 11.9219 3.25001C11.9219 3.44892 12.0009 3.63969 12.1416 3.78034C12.2822 3.92099 12.473 4.00001 12.6719 4.00001Z" fill="#57606A"/>
</svg>
