<svg width="17" height="16" viewBox="0 0 17 16" fill="none" xmlns="http://www.w3.org/2000/svg">
<path fill-rule="evenodd" clip-rule="evenodd" d="M13.03 6.22C13.1704 6.36062 13.2493 6.55125 13.2493 6.75C13.2493 6.94875 13.1704 7.13937 13.03 7.28L8.78 11.53C8.63937 11.6704 8.44875 11.7493 8.25 11.7493C8.05125 11.7493 7.86062 11.6704 7.72 11.53L3.47 7.28C3.33752 7.13782 3.2654 6.94977 3.26882 6.75547C3.27225 6.56117 3.35096 6.37579 3.48838 6.23837C3.62579 6.10096 3.81118 6.02225 4.00548 6.01882C4.19978 6.01539 4.38782 6.08752 4.53 6.22L8.25 9.94L11.97 6.22C12.1106 6.07955 12.3012 6.00066 12.5 6.00066C12.6987 6.00066 12.8894 6.07955 13.03 6.22V6.22Z" fill="white"/>
</svg>
