<svg width="17" height="16" viewBox="0 0 17 16" fill="none" xmlns="http://www.w3.org/2000/svg">
<path fill-rule="evenodd" clip-rule="evenodd" d="M2.37738 3.14301L1.16138 1.92701C1.12641 1.89196 1.08182 1.86808 1.03327 1.85839C0.984717 1.84871 0.93438 1.85366 0.888644 1.87262C0.842907 1.89158 0.80383 1.92369 0.776365 1.96489C0.748901 2.00608 0.734287 2.0545 0.734375 2.10401V5.75001C0.734375 5.88801 0.846375 6.00001 0.984375 6.00001H4.63038C4.67989 6.0001 4.72831 5.98549 4.7695 5.95802C4.8107 5.93056 4.84281 5.89148 4.86177 5.84575C4.88073 5.80001 4.88568 5.74967 4.87599 5.70112C4.86631 5.65256 4.84243 5.60798 4.80738 5.57301L3.44938 4.21501C4.33461 2.97866 5.62528 2.09179 7.09683 1.70872C8.56838 1.32564 10.1277 1.47061 11.5034 2.11839C12.8791 2.76617 13.9842 3.87577 14.6263 5.25412C15.2685 6.63247 15.407 8.19233 15.0179 9.6623C14.6289 11.1323 13.7367 12.4193 12.4968 13.2995C11.2568 14.1796 9.74749 14.5972 8.23146 14.4796C6.71542 14.3619 5.28861 13.7165 4.19928 12.6556C3.10994 11.5947 2.42703 10.1854 2.26938 8.67301C2.24895 8.47503 2.15072 8.29327 1.99628 8.16771C1.84185 8.04216 1.64386 7.98309 1.44588 8.00351C1.24789 8.02394 1.06613 8.12217 0.940573 8.27661C0.815017 8.43104 0.755954 8.62903 0.776375 8.82701C0.968764 10.6783 1.80053 12.4045 3.12848 13.7086C4.45643 15.0127 6.19748 15.813 8.0519 15.9718C9.90633 16.1306 11.7581 15.6379 13.2884 14.5786C14.8187 13.5192 15.9319 11.9595 16.4362 10.1679C16.9405 8.37635 16.8045 6.465 16.0514 4.76292C15.2984 3.06084 13.9756 1.67453 12.3106 0.842644C10.6457 0.0107588 8.7428 -0.214651 6.92957 0.205219C5.11634 0.62509 3.50621 1.66397 2.37638 3.14301H2.37738ZM8.48438 4.00001C8.68329 4.00001 8.87405 4.07903 9.0147 4.21968C9.15536 4.36034 9.23438 4.5511 9.23438 4.75001V7.74201L11.2624 8.55401C11.4411 8.63192 11.5824 8.77636 11.6565 8.95671C11.7305 9.13706 11.7314 9.33915 11.659 9.52016C11.5866 9.70116 11.4465 9.84685 11.2685 9.92634C11.0905 10.0058 10.8885 10.0129 10.7054 9.94601L8.20538 8.94601C8.06634 8.8903 7.94718 8.79422 7.86324 8.67018C7.77929 8.54613 7.73441 8.39979 7.73438 8.25001V4.75001C7.73438 4.5511 7.81339 4.36034 7.95405 4.21968C8.0947 4.07903 8.28546 4.00001 8.48438 4.00001V4.00001Z" fill="#24292F"/>
</svg>
