<svg width="16" height="17" viewBox="0 0 16 17" fill="none" xmlns="http://www.w3.org/2000/svg">
<path fill-rule="evenodd" clip-rule="evenodd" d="M7.775 3.82187C7.64252 3.96405 7.57039 4.15209 7.57382 4.34639C7.57725 4.54069 7.65596 4.72608 7.79337 4.86349C7.93079 5.00091 8.11617 5.07962 8.31047 5.08305C8.50477 5.08647 8.69282 5.01435 8.835 4.88187L10.085 3.63187C10.2708 3.44605 10.4914 3.29865 10.7342 3.19808C10.977 3.09752 11.2372 3.04576 11.5 3.04576C11.7628 3.04576 12.023 3.09752 12.2658 3.19808C12.5086 3.29865 12.7292 3.44605 12.915 3.63187C13.1008 3.81769 13.2482 4.03829 13.3488 4.28108C13.4493 4.52386 13.5011 4.78408 13.5011 5.04687C13.5011 5.30966 13.4493 5.56988 13.3488 5.81266C13.2482 6.05545 13.1008 6.27605 12.915 6.46187L10.415 8.96187C10.2292 9.14782 10.0087 9.29534 9.76588 9.39599C9.52308 9.49664 9.26283 9.54844 9 9.54844C8.73716 9.54844 8.47691 9.49664 8.23411 9.39599C7.99132 9.29534 7.77074 9.14782 7.585 8.96187C7.44282 8.82939 7.25477 8.75727 7.06047 8.7607C6.86617 8.76412 6.68079 8.84284 6.54337 8.98025C6.40596 9.11766 6.32725 9.30305 6.32382 9.49735C6.32039 9.69165 6.39252 9.8797 6.525 10.0219C6.85001 10.3469 7.23586 10.6048 7.66052 10.7807C8.08518 10.9566 8.54034 11.0471 9 11.0471C9.45965 11.0471 9.91481 10.9566 10.3395 10.7807C10.7641 10.6048 11.15 10.3469 11.475 10.0219L13.975 7.52187C14.6314 6.86546 15.0002 5.97518 15.0002 5.04687C15.0002 4.11857 14.6314 3.22828 13.975 2.57187C13.3186 1.91546 12.4283 1.54669 11.5 1.54669C10.5717 1.54669 9.68141 1.91546 9.02499 2.57187L7.775 3.82187V3.82187ZM3.085 13.4619C2.89904 13.2761 2.75152 13.0555 2.65088 12.8128C2.55023 12.57 2.49842 12.3097 2.49842 12.0469C2.49842 11.784 2.55023 11.5238 2.65088 11.281C2.75152 11.0382 2.89904 10.8176 3.085 10.6319L5.585 8.13187C5.77074 7.94592 5.99132 7.7984 6.23411 7.69775C6.47691 7.5971 6.73716 7.5453 7 7.5453C7.26283 7.5453 7.52308 7.5971 7.76588 7.69775C8.00867 7.7984 8.22925 7.94592 8.415 8.13187C8.55717 8.26435 8.74522 8.33647 8.93952 8.33305C9.13382 8.32962 9.3192 8.25091 9.45662 8.11349C9.59403 7.97608 9.67274 7.79069 9.67617 7.59639C9.6796 7.40209 9.60748 7.21405 9.475 7.07187C9.14999 6.74683 8.76413 6.48899 8.33947 6.31307C7.91481 6.13716 7.45965 6.04662 7 6.04662C6.54034 6.04662 6.08518 6.13716 5.66052 6.31307C5.23586 6.48899 4.85001 6.74683 4.525 7.07187L2.025 9.57187C1.36858 10.2283 0.999817 11.1186 0.999817 12.0469C0.999817 12.9752 1.36858 13.8655 2.025 14.5219C2.68141 15.1783 3.57169 15.547 4.5 15.547C5.4283 15.547 6.31858 15.1783 6.975 14.5219L8.225 13.2719C8.35748 13.1297 8.4296 12.9416 8.42617 12.7473C8.42274 12.553 8.34403 12.3677 8.20662 12.2302C8.0692 12.0928 7.88382 12.0141 7.68952 12.0107C7.49522 12.0073 7.30717 12.0794 7.165 12.2119L5.915 13.4619C5.72925 13.6478 5.50867 13.7953 5.26588 13.896C5.02308 13.9966 4.76283 14.0484 4.5 14.0484C4.23716 14.0484 3.97691 13.9966 3.73411 13.896C3.49132 13.7953 3.27074 13.6478 3.085 13.4619V13.4619Z" fill="#24292F"/>
</svg>
