<svg width="17" height="16" viewBox="0 0 17 16" fill="none" xmlns="http://www.w3.org/2000/svg">
<path fill-rule="evenodd" clip-rule="evenodd" d="M8.26388 0.132994C8.61056 0.022136 8.98319 0.022136 9.32987 0.132994L14.5799 1.81299C14.9332 1.92599 15.2415 2.14835 15.4603 2.44798C15.679 2.74761 15.7969 3.10901 15.7969 3.47999V6.99999C15.7969 8.56599 15.4769 10.182 14.4939 11.682C13.5109 13.18 11.9089 14.495 9.46187 15.537C9.25157 15.6264 9.02539 15.6725 8.79688 15.6725C8.56836 15.6725 8.34218 15.6264 8.13188 15.537C5.68488 14.495 4.08287 13.18 3.09987 11.682C2.11687 10.182 1.79688 8.56599 1.79688 6.99999V3.47999C1.79684 3.10901 1.91471 2.74761 2.13346 2.44798C2.35221 2.14835 2.66052 1.92599 3.01388 1.81299L8.26388 0.132994V0.132994ZM8.87387 1.56199C8.82413 1.546 8.77062 1.546 8.72087 1.56199L3.47088 3.24199C3.42039 3.2581 3.37633 3.28984 3.34506 3.33262C3.31378 3.37539 3.29691 3.427 3.29688 3.47999V6.99999C3.29688 8.35799 3.57187 9.66599 4.35387 10.86C5.13787 12.054 6.47487 13.2 8.71987 14.157C8.74427 14.1672 8.77044 14.1724 8.79688 14.1724C8.82331 14.1724 8.84948 14.1672 8.87387 14.157C11.1189 13.201 12.4559 12.053 13.2399 10.859C14.0219 9.66599 14.2969 8.35999 14.2969 6.99999V3.47999C14.2966 3.42717 14.2797 3.37579 14.2484 3.33321C14.2171 3.29063 14.1732 3.25905 14.1229 3.24299L8.87288 1.56299L8.87387 1.56199ZM9.79688 10.5C9.79688 10.7652 9.69152 11.0196 9.50398 11.2071C9.31645 11.3946 9.06209 11.5 8.79688 11.5C8.53166 11.5 8.2773 11.3946 8.08977 11.2071C7.90223 11.0196 7.79688 10.7652 7.79688 10.5C7.79688 10.2348 7.90223 9.98042 8.08977 9.79289C8.2773 9.60535 8.53166 9.49999 8.79688 9.49999C9.06209 9.49999 9.31645 9.60535 9.50398 9.79289C9.69152 9.98042 9.79688 10.2348 9.79688 10.5V10.5ZM9.54688 4.74999C9.54688 4.55108 9.46786 4.36032 9.3272 4.21966C9.18655 4.07901 8.99579 3.99999 8.79688 3.99999C8.59796 3.99999 8.4072 4.07901 8.26654 4.21966C8.12589 4.36032 8.04688 4.55108 8.04688 4.74999V7.74999C8.04688 7.94891 8.12589 8.13967 8.26654 8.28032C8.4072 8.42098 8.59796 8.49999 8.79688 8.49999C8.99579 8.49999 9.18655 8.42098 9.3272 8.28032C9.46786 8.13967 9.54688 7.94891 9.54688 7.74999V4.74999Z" fill="#57606A"/>
</svg>
