<svg width="16" height="17" viewBox="0 0 16 17" fill="none" xmlns="http://www.w3.org/2000/svg">
<path fill-rule="evenodd" clip-rule="evenodd" d="M7.775 3.77518C7.64252 3.91735 7.57039 4.1054 7.57382 4.2997C7.57725 4.494 7.65596 4.67939 7.79337 4.8168C7.93079 4.95421 8.11617 5.03293 8.31047 5.03635C8.50477 5.03978 8.69282 4.96766 8.835 4.83518L10.085 3.58518C10.2708 3.39936 10.4914 3.25196 10.7342 3.15139C10.977 3.05083 11.2372 2.99907 11.5 2.99907C11.7628 2.99907 12.023 3.05083 12.2658 3.15139C12.5086 3.25196 12.7292 3.39936 12.915 3.58518C13.1008 3.771 13.2482 3.9916 13.3488 4.23439C13.4493 4.47717 13.5011 4.73739 13.5011 5.00018C13.5011 5.26297 13.4493 5.52319 13.3488 5.76597C13.2482 6.00876 13.1008 6.22936 12.915 6.41518L10.415 8.91518C10.2292 9.10113 10.0087 9.24865 9.76588 9.3493C9.52308 9.44995 9.26283 9.50175 9 9.50175C8.73716 9.50175 8.47691 9.44995 8.23411 9.3493C7.99132 9.24865 7.77074 9.10113 7.585 8.91518C7.44282 8.7827 7.25477 8.71058 7.06047 8.714C6.86617 8.71743 6.68079 8.79614 6.54337 8.93356C6.40596 9.07097 6.32725 9.25635 6.32382 9.45066C6.32039 9.64496 6.39252 9.833 6.525 9.97518C6.85001 10.3002 7.23586 10.5581 7.66052 10.734C8.08518 10.9099 8.54034 11.0004 9 11.0004C9.45965 11.0004 9.91481 10.9099 10.3395 10.734C10.7641 10.5581 11.15 10.3002 11.475 9.97518L13.975 7.47518C14.6314 6.81877 15.0002 5.92848 15.0002 5.00018C15.0002 4.07187 14.6314 3.18159 13.975 2.52518C13.3186 1.86877 12.4283 1.5 11.5 1.5C10.5717 1.5 9.68141 1.86877 9.02499 2.52518L7.775 3.77518V3.77518ZM3.085 13.4152C2.89904 13.2294 2.75152 13.0089 2.65088 12.7661C2.55023 12.5233 2.49842 12.263 2.49842 12.0002C2.49842 11.7373 2.55023 11.4771 2.65088 11.2343C2.75152 10.9915 2.89904 10.7709 3.085 10.5852L5.585 8.08518C5.77074 7.89923 5.99132 7.75171 6.23411 7.65106C6.47691 7.55041 6.73716 7.49861 7 7.49861C7.26283 7.49861 7.52308 7.55041 7.76588 7.65106C8.00867 7.75171 8.22925 7.89923 8.415 8.08518C8.55717 8.21766 8.74522 8.28978 8.93952 8.28635C9.13382 8.28292 9.3192 8.20421 9.45662 8.0668C9.59403 7.92939 9.67274 7.744 9.67617 7.5497C9.6796 7.3554 9.60748 7.16735 9.475 7.02518C9.14999 6.70014 8.76413 6.4423 8.33947 6.26638C7.91481 6.09047 7.45965 5.99993 7 5.99993C6.54034 5.99993 6.08518 6.09047 5.66052 6.26638C5.23586 6.4423 4.85001 6.70014 4.525 7.02518L2.025 9.52518C1.36858 10.1816 0.999817 11.0719 0.999817 12.0002C0.999817 12.9285 1.36858 13.8188 2.025 14.4752C2.68141 15.1316 3.57169 15.5004 4.5 15.5004C5.4283 15.5004 6.31858 15.1316 6.975 14.4752L8.225 13.2252C8.35748 13.083 8.4296 12.895 8.42617 12.7007C8.42274 12.5064 8.34403 12.321 8.20662 12.1836C8.0692 12.0461 7.88382 11.9674 7.68952 11.964C7.49522 11.9606 7.30717 12.0327 7.165 12.1652L5.915 13.4152C5.72925 13.6011 5.50867 13.7486 5.26588 13.8493C5.02308 13.9499 4.76283 14.0018 4.5 14.0018C4.23716 14.0018 3.97691 13.9499 3.73411 13.8493C3.49132 13.7486 3.27074 13.6011 3.085 13.4152V13.4152Z" fill="#24292F"/>
</svg>
