<svg width="16" height="17" viewBox="0 0 16 17" fill="none" xmlns="http://www.w3.org/2000/svg">
<path fill-rule="evenodd" clip-rule="evenodd" d="M0 2.67188C0 2.47297 0.0790176 2.2822 0.21967 2.14155C0.360322 2.0009 0.551088 1.92188 0.75 1.92188H5.003C6.23 1.92188 7.32 2.51188 8.003 3.42288C8.35218 2.95621 8.80548 2.5775 9.32683 2.31692C9.84817 2.05633 10.4232 1.92106 11.006 1.92188H15.251C15.4499 1.92188 15.6407 2.0009 15.7813 2.14155C15.922 2.2822 16.001 2.47297 16.001 2.67188V13.1719C16.001 13.3708 15.922 13.5616 15.7813 13.7022C15.6407 13.8429 15.4499 13.9219 15.251 13.9219H10.744C10.4485 13.9219 10.1559 13.9801 9.88296 14.0931C9.60997 14.2062 9.36193 14.3719 9.153 14.5809L8.531 15.2019C8.39037 15.3423 8.19975 15.4212 8.001 15.4212C7.80225 15.4212 7.61163 15.3423 7.471 15.2019L6.849 14.5809C6.64007 14.3719 6.39203 14.2062 6.11904 14.0931C5.84606 13.9801 5.55348 13.9219 5.258 13.9219H0.75C0.551088 13.9219 0.360322 13.8429 0.21967 13.7022C0.0790176 13.5616 0 13.3708 0 13.1719L0 2.67188ZM8.755 5.67188C8.755 5.07514 8.99205 4.50285 9.41401 4.08089C9.83597 3.65893 10.4083 3.42188 11.005 3.42188H14.5V12.4219H10.743C10.033 12.4219 9.343 12.6229 8.751 12.9939L8.755 5.67188V5.67188ZM7.251 12.9959L7.255 7.92288L7.253 5.66988C7.25247 5.07349 7.01518 4.50171 6.59328 4.08018C6.17138 3.65866 5.59939 3.42188 5.003 3.42188H1.5V12.4219H5.257C5.96242 12.4219 6.65355 12.6208 7.251 12.9959V12.9959Z" fill="#57606A"/>
</svg>
