<svg width="16" height="17" viewBox="0 0 16 17" fill="none" xmlns="http://www.w3.org/2000/svg">
<path fill-rule="evenodd" clip-rule="evenodd" d="M7.775 3.71256C7.64252 3.85473 7.57039 4.04278 7.57382 4.23708C7.57725 4.43138 7.65596 4.61677 7.79337 4.75418C7.93079 4.89159 8.11617 4.9703 8.31047 4.97373C8.50477 4.97716 8.69282 4.90504 8.835 4.77256L10.085 3.52256C10.2708 3.33674 10.4914 3.18934 10.7342 3.08877C10.977 2.9882 11.2372 2.93644 11.5 2.93644C11.7628 2.93644 12.023 2.9882 12.2658 3.08877C12.5086 3.18934 12.7292 3.33674 12.915 3.52256C13.1008 3.70838 13.2482 3.92898 13.3488 4.17176C13.4493 4.41455 13.5011 4.67477 13.5011 4.93756C13.5011 5.20035 13.4493 5.46056 13.3488 5.70335C13.2482 5.94614 13.1008 6.16674 12.915 6.35256L10.415 8.85256C10.2292 9.03851 10.0087 9.18603 9.76588 9.28668C9.52308 9.38732 9.26283 9.43913 9 9.43913C8.73716 9.43913 8.47691 9.38732 8.23411 9.28668C7.99132 9.18603 7.77074 9.03851 7.585 8.85256C7.44282 8.72008 7.25477 8.64795 7.06047 8.65138C6.86617 8.65481 6.68079 8.73352 6.54337 8.87093C6.40596 9.00835 6.32725 9.19373 6.32382 9.38803C6.32039 9.58233 6.39252 9.77038 6.525 9.91256C6.85001 10.2376 7.23586 10.4954 7.66052 10.6714C8.08518 10.8473 8.54034 10.9378 9 10.9378C9.45965 10.9378 9.91481 10.8473 10.3395 10.6714C10.7641 10.4954 11.15 10.2376 11.475 9.91256L13.975 7.41256C14.6314 6.75615 15.0002 5.86586 15.0002 4.93756C15.0002 4.00925 14.6314 3.11897 13.975 2.46256C13.3186 1.80615 12.4283 1.43738 11.5 1.43738C10.5717 1.43738 9.68141 1.80615 9.02499 2.46256L7.775 3.71256V3.71256ZM3.085 13.3526C2.89904 13.1668 2.75152 12.9462 2.65088 12.7034C2.55023 12.4606 2.49842 12.2004 2.49842 11.9376C2.49842 11.6747 2.55023 11.4145 2.65088 11.1717C2.75152 10.9289 2.89904 10.7083 3.085 10.5226L5.585 8.02256C5.77074 7.8366 5.99132 7.68909 6.23411 7.58844C6.47691 7.48779 6.73716 7.43598 7 7.43598C7.26283 7.43598 7.52308 7.48779 7.76588 7.58844C8.00867 7.68909 8.22925 7.8366 8.415 8.02256C8.55717 8.15504 8.74522 8.22716 8.93952 8.22373C9.13382 8.2203 9.3192 8.14159 9.45662 8.00418C9.59403 7.86677 9.67274 7.68138 9.67617 7.48708C9.6796 7.29278 9.60748 7.10473 9.475 6.96256C9.14999 6.63751 8.76413 6.37967 8.33947 6.20376C7.91481 6.02785 7.45965 5.9373 7 5.9373C6.54034 5.9373 6.08518 6.02785 5.66052 6.20376C5.23586 6.37967 4.85001 6.63751 4.525 6.96256L2.025 9.46256C1.36858 10.119 0.999817 11.0093 0.999817 11.9376C0.999817 12.8659 1.36858 13.7561 2.025 14.4126C2.68141 15.069 3.57169 15.4377 4.5 15.4377C5.4283 15.4377 6.31858 15.069 6.975 14.4126L8.225 13.1626C8.35748 13.0204 8.4296 12.8323 8.42617 12.638C8.42274 12.4437 8.34403 12.2583 8.20662 12.1209C8.0692 11.9835 7.88382 11.9048 7.68952 11.9014C7.49522 11.898 7.30717 11.9701 7.165 12.1026L5.915 13.3526C5.72925 13.5385 5.50867 13.686 5.26588 13.7867C5.02308 13.8873 4.76283 13.9391 4.5 13.9391C4.23716 13.9391 3.97691 13.8873 3.73411 13.7867C3.49132 13.686 3.27074 13.5385 3.085 13.3526V13.3526Z" fill="#24292F"/>
</svg>
