<svg width="16" height="17" viewBox="0 0 16 17" fill="none" xmlns="http://www.w3.org/2000/svg">
<path fill-rule="evenodd" clip-rule="evenodd" d="M5 4.17187C5 4.37078 4.92099 4.56154 4.78033 4.7022C4.63968 4.84285 4.44892 4.92187 4.25 4.92187C4.05109 4.92187 3.86033 4.84285 3.71967 4.7022C3.57902 4.56154 3.5 4.37078 3.5 4.17187C3.5 3.97295 3.57902 3.78219 3.71967 3.64154C3.86033 3.50088 4.05109 3.42187 4.25 3.42187C4.44892 3.42187 4.63968 3.50088 4.78033 3.64154C4.92099 3.78219 5 3.97295 5 4.17187V4.17187ZM5 6.29387C5.50042 6.11695 5.92217 5.76882 6.19073 5.31101C6.45929 4.8532 6.55735 4.31519 6.4676 3.79207C6.37785 3.26895 6.10605 2.79439 5.70025 2.45229C5.29445 2.11018 4.78077 1.92255 4.25 1.92255C3.71924 1.92255 3.20556 2.11018 2.79976 2.45229C2.39396 2.79439 2.12216 3.26895 2.03241 3.79207C1.94265 4.31519 2.04072 4.8532 2.30928 5.31101C2.57784 5.76882 2.99959 6.11695 3.5 6.29387V7.17187C3.5 7.7686 3.73706 8.3409 4.15901 8.76286C4.58097 9.18481 5.15327 9.42187 5.75 9.42187H7.25V11.5499C6.74932 11.7268 6.3273 12.075 6.05855 12.5331C5.78981 12.9911 5.69164 13.5293 5.78139 14.0527C5.87115 14.5761 6.14306 15.0509 6.54905 15.3932C6.95504 15.7355 7.46897 15.9232 8 15.9232C8.53104 15.9232 9.04497 15.7355 9.45096 15.3932C9.85695 15.0509 10.1289 14.5761 10.2186 14.0527C10.3084 13.5293 10.2102 12.9911 9.94146 12.5331C9.67271 12.075 9.25069 11.7268 8.75 11.5499V9.42187H10.25C10.8467 9.42187 11.419 9.18481 11.841 8.76286C12.263 8.3409 12.5 7.7686 12.5 7.17187V6.29387C13.0004 6.11695 13.4222 5.76882 13.6907 5.31101C13.9593 4.8532 14.0574 4.31519 13.9676 3.79207C13.8778 3.26895 13.6061 2.79439 13.2002 2.45229C12.7944 2.11018 12.2808 1.92255 11.75 1.92255C11.2192 1.92255 10.7056 2.11018 10.2998 2.45229C9.89396 2.79439 9.62216 3.26895 9.53241 3.79207C9.44265 4.31519 9.54072 4.8532 9.80928 5.31101C10.0778 5.76882 10.4996 6.11695 11 6.29387V7.17187C11 7.37078 10.921 7.56154 10.7803 7.7022C10.6397 7.84285 10.4489 7.92187 10.25 7.92187H5.75C5.55109 7.92187 5.36033 7.84285 5.21967 7.7022C5.07902 7.56154 5 7.37078 5 7.17187V6.29387ZM8.75 13.6719C8.75 13.8708 8.67099 14.0615 8.53033 14.2022C8.38968 14.3428 8.19892 14.4219 8 14.4219C7.80109 14.4219 7.61033 14.3428 7.46967 14.2022C7.32902 14.0615 7.25 13.8708 7.25 13.6719C7.25 13.473 7.32902 13.2822 7.46967 13.1415C7.61033 13.0009 7.80109 12.9219 8 12.9219C8.19892 12.9219 8.38968 13.0009 8.53033 13.1415C8.67099 13.2822 8.75 13.473 8.75 13.6719ZM11.75 4.92187C11.9489 4.92187 12.1397 4.84285 12.2803 4.7022C12.421 4.56154 12.5 4.37078 12.5 4.17187C12.5 3.97295 12.421 3.78219 12.2803 3.64154C12.1397 3.50088 11.9489 3.42187 11.75 3.42187C11.5511 3.42187 11.3603 3.50088 11.2197 3.64154C11.079 3.78219 11 3.97295 11 4.17187C11 4.37078 11.079 4.56154 11.2197 4.7022C11.3603 4.84285 11.5511 4.92187 11.75 4.92187Z" fill="#57606A"/>
</svg>
