<svg width="16" height="17" viewBox="0 0 16 17" fill="none" xmlns="http://www.w3.org/2000/svg">
<path fill-rule="evenodd" clip-rule="evenodd" d="M7.775 3.52506C7.64252 3.66723 7.57039 3.85528 7.57382 4.04958C7.57725 4.24388 7.65596 4.42927 7.79337 4.56668C7.93079 4.70409 8.11617 4.7828 8.31047 4.78623C8.50477 4.78966 8.69282 4.71754 8.835 4.58506L10.085 3.33506C10.2708 3.14924 10.4914 3.00184 10.7342 2.90127C10.977 2.8007 11.2372 2.74894 11.5 2.74894C11.7628 2.74894 12.023 2.8007 12.2658 2.90127C12.5086 3.00184 12.7292 3.14924 12.915 3.33506C13.1008 3.52088 13.2482 3.74148 13.3488 3.98426C13.4493 4.22705 13.5011 4.48727 13.5011 4.75006C13.5011 5.01285 13.4493 5.27306 13.3488 5.51585C13.2482 5.75864 13.1008 5.97924 12.915 6.16506L10.415 8.66506C10.2292 8.85101 10.0087 8.99853 9.76588 9.09918C9.52308 9.19982 9.26283 9.25163 9 9.25163C8.73716 9.25163 8.47691 9.19982 8.23411 9.09918C7.99132 8.99853 7.77074 8.85101 7.585 8.66506C7.44282 8.53258 7.25477 8.46045 7.06047 8.46388C6.86617 8.46731 6.68079 8.54602 6.54337 8.68343C6.40596 8.82085 6.32725 9.00623 6.32382 9.20053C6.32039 9.39483 6.39252 9.58288 6.525 9.72506C6.85001 10.0501 7.23586 10.3079 7.66052 10.4839C8.08518 10.6598 8.54034 10.7503 9 10.7503C9.45965 10.7503 9.91481 10.6598 10.3395 10.4839C10.7641 10.3079 11.15 10.0501 11.475 9.72506L13.975 7.22506C14.6314 6.56865 15.0002 5.67836 15.0002 4.75006C15.0002 3.82175 14.6314 2.93147 13.975 2.27506C13.3186 1.61865 12.4283 1.24988 11.5 1.24988C10.5717 1.24988 9.68141 1.61865 9.02499 2.27506L7.775 3.52506V3.52506ZM3.085 13.1651C2.89904 12.9793 2.75152 12.7587 2.65088 12.5159C2.55023 12.2731 2.49842 12.0129 2.49842 11.7501C2.49842 11.4872 2.55023 11.227 2.65088 10.9842C2.75152 10.7414 2.89904 10.5208 3.085 10.3351L5.585 7.83506C5.77074 7.6491 5.99132 7.50159 6.23411 7.40094C6.47691 7.30029 6.73716 7.24848 7 7.24848C7.26283 7.24848 7.52308 7.30029 7.76588 7.40094C8.00867 7.50159 8.22925 7.6491 8.415 7.83506C8.55717 7.96754 8.74522 8.03966 8.93952 8.03623C9.13382 8.0328 9.3192 7.95409 9.45662 7.81668C9.59403 7.67927 9.67274 7.49388 9.67617 7.29958C9.6796 7.10528 9.60748 6.91723 9.475 6.77506C9.14999 6.45001 8.76413 6.19217 8.33947 6.01626C7.91481 5.84035 7.45965 5.7498 7 5.7498C6.54034 5.7498 6.08518 5.84035 5.66052 6.01626C5.23586 6.19217 4.85001 6.45001 4.525 6.77506L2.025 9.27506C1.36858 9.93147 0.999817 10.8218 0.999817 11.7501C0.999817 12.6784 1.36858 13.5686 2.025 14.2251C2.68141 14.8815 3.57169 15.2502 4.5 15.2502C5.4283 15.2502 6.31858 14.8815 6.975 14.2251L8.225 12.9751C8.35748 12.8329 8.4296 12.6448 8.42617 12.4505C8.42274 12.2562 8.34403 12.0708 8.20662 11.9334C8.0692 11.796 7.88382 11.7173 7.68952 11.7139C7.49522 11.7105 7.30717 11.7826 7.165 11.9151L5.915 13.1651C5.72925 13.351 5.50867 13.4985 5.26588 13.5992C5.02308 13.6998 4.76283 13.7516 4.5 13.7516C4.23716 13.7516 3.97691 13.6998 3.73411 13.5992C3.49132 13.4985 3.27074 13.351 3.085 13.1651V13.1651Z" fill="#24292F"/>
</svg>
