<svg width="16" height="17" viewBox="0 0 16 17" fill="none" xmlns="http://www.w3.org/2000/svg">
<path fill-rule="evenodd" clip-rule="evenodd" d="M7.775 3.58768C7.64252 3.72985 7.57039 3.9179 7.57382 4.1122C7.57725 4.3065 7.65596 4.49189 7.79337 4.6293C7.93079 4.76671 8.11617 4.84543 8.31047 4.84885C8.50477 4.85228 8.69282 4.78016 8.835 4.64768L10.085 3.39768C10.2708 3.21186 10.4914 3.06446 10.7342 2.96389C10.977 2.86333 11.2372 2.81157 11.5 2.81157C11.7628 2.81157 12.023 2.86333 12.2658 2.96389C12.5086 3.06446 12.7292 3.21186 12.915 3.39768C13.1008 3.5835 13.2482 3.8041 13.3488 4.04689C13.4493 4.28967 13.5011 4.54989 13.5011 4.81268C13.5011 5.07547 13.4493 5.33569 13.3488 5.57847C13.2482 5.82126 13.1008 6.04186 12.915 6.22768L10.415 8.72768C10.2292 8.91363 10.0087 9.06115 9.76588 9.1618C9.52308 9.26245 9.26283 9.31425 9 9.31425C8.73716 9.31425 8.47691 9.26245 8.23411 9.1618C7.99132 9.06115 7.77074 8.91363 7.585 8.72768C7.44282 8.5952 7.25477 8.52308 7.06047 8.5265C6.86617 8.52993 6.68079 8.60864 6.54337 8.74606C6.40596 8.88347 6.32725 9.06885 6.32382 9.26316C6.32039 9.45746 6.39252 9.6455 6.525 9.78768C6.85001 10.1127 7.23586 10.3706 7.66052 10.5465C8.08518 10.7224 8.54034 10.8129 9 10.8129C9.45965 10.8129 9.91481 10.7224 10.3395 10.5465C10.7641 10.3706 11.15 10.1127 11.475 9.78768L13.975 7.28768C14.6314 6.63127 15.0002 5.74098 15.0002 4.81268C15.0002 3.88437 14.6314 2.99409 13.975 2.33768C13.3186 1.68127 12.4283 1.3125 11.5 1.3125C10.5717 1.3125 9.68141 1.68127 9.02499 2.33768L7.775 3.58768V3.58768ZM3.085 13.2277C2.89904 13.0419 2.75152 12.8214 2.65088 12.5786C2.55023 12.3358 2.49842 12.0755 2.49842 11.8127C2.49842 11.5498 2.55023 11.2896 2.65088 11.0468C2.75152 10.804 2.89904 10.5834 3.085 10.3977L5.585 7.89768C5.77074 7.71173 5.99132 7.56421 6.23411 7.46356C6.47691 7.36291 6.73716 7.31111 7 7.31111C7.26283 7.31111 7.52308 7.36291 7.76588 7.46356C8.00867 7.56421 8.22925 7.71173 8.415 7.89768C8.55717 8.03016 8.74522 8.10228 8.93952 8.09885C9.13382 8.09542 9.3192 8.01671 9.45662 7.8793C9.59403 7.74189 9.67274 7.5565 9.67617 7.3622C9.6796 7.1679 9.60748 6.97985 9.475 6.83768C9.14999 6.51264 8.76413 6.2548 8.33947 6.07888C7.91481 5.90297 7.45965 5.81243 7 5.81243C6.54034 5.81243 6.08518 5.90297 5.66052 6.07888C5.23586 6.2548 4.85001 6.51264 4.525 6.83768L2.025 9.33768C1.36858 9.99409 0.999817 10.8844 0.999817 11.8127C0.999817 12.741 1.36858 13.6313 2.025 14.2877C2.68141 14.9441 3.57169 15.3129 4.5 15.3129C5.4283 15.3129 6.31858 14.9441 6.975 14.2877L8.225 13.0377C8.35748 12.8955 8.4296 12.7075 8.42617 12.5132C8.42274 12.3189 8.34403 12.1335 8.20662 11.9961C8.0692 11.8586 7.88382 11.7799 7.68952 11.7765C7.49522 11.7731 7.30717 11.8452 7.165 11.9777L5.915 13.2277C5.72925 13.4136 5.50867 13.5611 5.26588 13.6618C5.02308 13.7624 4.76283 13.8143 4.5 13.8143C4.23716 13.8143 3.97691 13.7624 3.73411 13.6618C3.49132 13.5611 3.27074 13.4136 3.085 13.2277V13.2277Z" fill="#24292F"/>
</svg>
