<svg width="17" height="16" viewBox="0 0 17 16" fill="none" xmlns="http://www.w3.org/2000/svg">
<path fill-rule="evenodd" clip-rule="evenodd" d="M12.9207 6.22C13.0611 6.36062 13.14 6.55125 13.14 6.75C13.14 6.94875 13.0611 7.13937 12.9207 7.28L8.67065 11.53C8.53003 11.6704 8.33941 11.7493 8.14065 11.7493C7.9419 11.7493 7.75128 11.6704 7.61065 11.53L3.36065 7.28C3.22817 7.13782 3.15605 6.94977 3.15948 6.75547C3.16291 6.56117 3.24162 6.37579 3.37903 6.23837C3.51645 6.10096 3.70183 6.02225 3.89613 6.01882C4.09043 6.01539 4.27848 6.08752 4.42065 6.22L8.14065 9.94L11.8607 6.22C12.0013 6.07955 12.1919 6.00066 12.3907 6.00066C12.5894 6.00066 12.78 6.07955 12.9207 6.22V6.22Z" fill="white"/>
</svg>
