<svg width="16" height="17" viewBox="0 0 16 17" fill="none" xmlns="http://www.w3.org/2000/svg">
<path fill-rule="evenodd" clip-rule="evenodd" d="M7.775 3.38437C7.64252 3.52655 7.57039 3.71459 7.57382 3.90889C7.57725 4.10319 7.65596 4.28858 7.79337 4.42599C7.93079 4.56341 8.11617 4.64212 8.31047 4.64555C8.50477 4.64897 8.69282 4.57685 8.835 4.44437L10.085 3.19437C10.2708 3.00855 10.4914 2.86115 10.7342 2.76058C10.977 2.66002 11.2372 2.60826 11.5 2.60826C11.7628 2.60826 12.023 2.66002 12.2658 2.76058C12.5086 2.86115 12.7292 3.00855 12.915 3.19437C13.1008 3.38019 13.2482 3.60079 13.3488 3.84358C13.4493 4.08636 13.5011 4.34658 13.5011 4.60937C13.5011 4.87216 13.4493 5.13238 13.3488 5.37516C13.2482 5.61795 13.1008 5.83855 12.915 6.02437L10.415 8.52437C10.2292 8.71032 10.0087 8.85784 9.76588 8.95849C9.52308 9.05914 9.26283 9.11094 9 9.11094C8.73716 9.11094 8.47691 9.05914 8.23411 8.95849C7.99132 8.85784 7.77074 8.71032 7.585 8.52437C7.44282 8.39189 7.25477 8.31977 7.06047 8.3232C6.86617 8.32662 6.68079 8.40534 6.54337 8.54275C6.40596 8.68016 6.32725 8.86555 6.32382 9.05985C6.32039 9.25415 6.39252 9.4422 6.525 9.58437C6.85001 9.90941 7.23586 10.1673 7.66052 10.3432C8.08518 10.5191 8.54034 10.6096 9 10.6096C9.45965 10.6096 9.91481 10.5191 10.3395 10.3432C10.7641 10.1673 11.15 9.90941 11.475 9.58437L13.975 7.08437C14.6314 6.42796 15.0002 5.53768 15.0002 4.60937C15.0002 3.68107 14.6314 2.79078 13.975 2.13437C13.3186 1.47796 12.4283 1.10919 11.5 1.10919C10.5717 1.10919 9.68141 1.47796 9.02499 2.13437L7.775 3.38437V3.38437ZM3.085 13.0244C2.89904 12.8386 2.75152 12.618 2.65088 12.3753C2.55023 12.1325 2.49842 11.8722 2.49842 11.6094C2.49842 11.3465 2.55023 11.0863 2.65088 10.8435C2.75152 10.6007 2.89904 10.3801 3.085 10.1944L5.585 7.69437C5.77074 7.50842 5.99132 7.3609 6.23411 7.26025C6.47691 7.1596 6.73716 7.1078 7 7.1078C7.26283 7.1078 7.52308 7.1596 7.76588 7.26025C8.00867 7.3609 8.22925 7.50842 8.415 7.69437C8.55717 7.82685 8.74522 7.89897 8.93952 7.89555C9.13382 7.89212 9.3192 7.81341 9.45662 7.67599C9.59403 7.53858 9.67274 7.35319 9.67617 7.15889C9.6796 6.96459 9.60748 6.77655 9.475 6.63437C9.14999 6.30933 8.76413 6.05149 8.33947 5.87557C7.91481 5.69966 7.45965 5.60912 7 5.60912C6.54034 5.60912 6.08518 5.69966 5.66052 5.87557C5.23586 6.05149 4.85001 6.30933 4.525 6.63437L2.025 9.13437C1.36858 9.79078 0.999817 10.6811 0.999817 11.6094C0.999817 12.5377 1.36858 13.428 2.025 14.0844C2.68141 14.7408 3.57169 15.1095 4.5 15.1095C5.4283 15.1095 6.31858 14.7408 6.975 14.0844L8.225 12.8344C8.35748 12.6922 8.4296 12.5041 8.42617 12.3098C8.42274 12.1155 8.34403 11.9302 8.20662 11.7927C8.0692 11.6553 7.88382 11.5766 7.68952 11.5732C7.49522 11.5698 7.30717 11.6419 7.165 11.7744L5.915 13.0244C5.72925 13.2103 5.50867 13.3578 5.26588 13.4585C5.02308 13.5591 4.76283 13.6109 4.5 13.6109C4.23716 13.6109 3.97691 13.5591 3.73411 13.4585C3.49132 13.3578 3.27074 13.2103 3.085 13.0244V13.0244Z" fill="#24292F"/>
</svg>
