<svg width="17" height="16" viewBox="0 0 17 16" fill="none" xmlns="http://www.w3.org/2000/svg">
<path d="M8.21874 16C8.70599 16.0002 9.17655 15.8225 9.54205 15.5002C9.90754 15.178 10.1428 14.7334 10.2037 14.25C10.2207 14.113 10.1067 14 9.96874 14H6.46874C6.33074 14 6.21674 14.113 6.23374 14.25C6.29465 14.7334 6.52994 15.178 6.89544 15.5002C7.26093 15.8225 7.73149 16.0002 8.21874 16Z" fill="#57606A"/>
<path fill-rule="evenodd" clip-rule="evenodd" d="M8.21874 1.5C7.29048 1.5 6.40024 1.86875 5.74386 2.52513C5.08748 3.1815 4.71874 4.07174 4.71874 5V7.947C4.71874 8.293 4.61674 8.63 4.42474 8.917L2.72174 11.473C2.71977 11.476 2.71873 11.4794 2.71874 11.483L2.71974 11.489C2.71974 11.491 2.72174 11.493 2.72374 11.495C2.72543 11.4967 2.72747 11.4981 2.72974 11.499L2.73674 11.5H13.7007L13.7077 11.499C13.71 11.4981 13.7121 11.4968 13.7137 11.495C13.7155 11.4933 13.7169 11.4913 13.7177 11.489L13.7187 11.482C13.7188 11.4784 13.7178 11.4749 13.7157 11.472L12.0127 8.918C11.8212 8.63075 11.7189 8.29326 11.7187 7.948V5C11.7187 4.07174 11.35 3.1815 10.6936 2.52513C10.0372 1.86875 9.14699 1.5 8.21874 1.5V1.5ZM3.21874 5C3.21874 3.67392 3.74552 2.40215 4.6832 1.46447C5.62088 0.526784 6.89265 0 8.21874 0C9.54482 0 10.8166 0.526784 11.7543 1.46447C12.692 2.40215 13.2187 3.67392 13.2187 5V7.947C13.2187 7.997 13.2337 8.045 13.2607 8.086L14.9637 10.641C15.1159 10.8696 15.2031 11.1352 15.2163 11.4095C15.2294 11.6837 15.1679 11.9564 15.0383 12.1985C14.9087 12.4406 14.7158 12.643 14.4803 12.7841C14.2447 12.9253 13.9753 12.9999 13.7007 13H2.73674C2.46199 13 2.1924 12.9254 1.9567 12.7842C1.72101 12.643 1.52806 12.4405 1.39842 12.1983C1.26878 11.956 1.20732 11.6831 1.22058 11.4087C1.23384 11.1343 1.32134 10.8686 1.47374 10.64L3.17674 8.086C3.20418 8.04484 3.2188 7.99647 3.21874 7.947V5Z" fill="#57606A"/>
</svg>
