<svg width="24" height="25" viewBox="0 0 24 25" fill="none" xmlns="http://www.w3.org/2000/svg">
<path fill-rule="evenodd" clip-rule="evenodd" d="M12 0.03125C5.37 0.03125 0 5.40125 0 12.0312C0 17.3412 3.435 21.8263 8.205 23.4163C8.805 23.5213 9.03 23.1613 9.03 22.8463C9.03 22.5613 9.015 21.6163 9.015 20.6113C6 21.1663 5.22 19.8762 4.98 19.2012C4.845 18.8562 4.26 17.7912 3.75 17.5062C3.33 17.2812 2.73 16.7262 3.735 16.7112C4.68 16.6962 5.355 17.5812 5.58 17.9412C6.66 19.7562 8.385 19.2463 9.075 18.9313C9.18 18.1513 9.495 17.6262 9.84 17.3262C7.17 17.0262 4.38 15.9912 4.38 11.4012C4.38 10.0962 4.845 9.01625 5.61 8.17625C5.49 7.87625 5.07 6.64625 5.73 4.99625C5.73 4.99625 6.735 4.68125 9.03 6.22625C9.99 5.95625 11.01 5.82125 12.03 5.82125C13.05 5.82125 14.07 5.95625 15.03 6.22625C17.325 4.66625 18.33 4.99625 18.33 4.99625C18.99 6.64625 18.57 7.87625 18.45 8.17625C19.215 9.01625 19.68 10.0812 19.68 11.4012C19.68 16.0062 16.875 17.0262 14.205 17.3262C14.64 17.7012 15.015 18.4213 15.015 19.5463C15.015 21.1513 15 22.4413 15 22.8463C15 23.1613 15.225 23.5363 15.825 23.4163C18.2072 22.612 20.2773 21.081 21.7438 19.0387C23.2103 16.9964 23.9994 14.5456 24 12.0312C24 5.40125 18.63 0.03125 12 0.03125Z" fill="#6E7781"/>
</svg>
