<svg width="16" height="17" viewBox="0 0 16 17" fill="none" xmlns="http://www.w3.org/2000/svg">
<path fill-rule="evenodd" clip-rule="evenodd" d="M7.775 3.29062C7.64252 3.4328 7.57039 3.62084 7.57382 3.81514C7.57725 4.00944 7.65596 4.19483 7.79337 4.33224C7.93079 4.46966 8.11617 4.54837 8.31047 4.5518C8.50477 4.55522 8.69282 4.4831 8.835 4.35062L10.085 3.10062C10.2708 2.9148 10.4914 2.7674 10.7342 2.66683C10.977 2.56627 11.2372 2.51451 11.5 2.51451C11.7628 2.51451 12.023 2.56627 12.2658 2.66683C12.5086 2.7674 12.7292 2.9148 12.915 3.10062C13.1008 3.28644 13.2482 3.50704 13.3488 3.74983C13.4493 3.99261 13.5011 4.25283 13.5011 4.51562C13.5011 4.77841 13.4493 5.03863 13.3488 5.28141C13.2482 5.5242 13.1008 5.7448 12.915 5.93062L10.415 8.43062C10.2292 8.61657 10.0087 8.76409 9.76588 8.86474C9.52308 8.96539 9.26283 9.01719 9 9.01719C8.73716 9.01719 8.47691 8.96539 8.23411 8.86474C7.99132 8.76409 7.77074 8.61657 7.585 8.43062C7.44282 8.29814 7.25477 8.22602 7.06047 8.22945C6.86617 8.23287 6.68079 8.31159 6.54337 8.449C6.40596 8.58641 6.32725 8.7718 6.32382 8.9661C6.32039 9.1604 6.39252 9.34845 6.525 9.49062C6.85001 9.81566 7.23586 10.0735 7.66052 10.2494C8.08518 10.4253 8.54034 10.5159 9 10.5159C9.45965 10.5159 9.91481 10.4253 10.3395 10.2494C10.7641 10.0735 11.15 9.81566 11.475 9.49062L13.975 6.99062C14.6314 6.33421 15.0002 5.44393 15.0002 4.51562C15.0002 3.58732 14.6314 2.69703 13.975 2.04062C13.3186 1.38421 12.4283 1.01544 11.5 1.01544C10.5717 1.01544 9.68141 1.38421 9.02499 2.04062L7.775 3.29062V3.29062ZM3.085 12.9306C2.89904 12.7449 2.75152 12.5243 2.65088 12.2815C2.55023 12.0387 2.49842 11.7785 2.49842 11.5156C2.49842 11.2528 2.55023 10.9925 2.65088 10.7497C2.75152 10.5069 2.89904 10.2864 3.085 10.1006L5.585 7.60062C5.77074 7.41467 5.99132 7.26715 6.23411 7.1665C6.47691 7.06585 6.73716 7.01405 7 7.01405C7.26283 7.01405 7.52308 7.06585 7.76588 7.1665C8.00867 7.26715 8.22925 7.41467 8.415 7.60062C8.55717 7.7331 8.74522 7.80522 8.93952 7.8018C9.13382 7.79837 9.3192 7.71966 9.45662 7.58224C9.59403 7.44483 9.67274 7.25944 9.67617 7.06514C9.6796 6.87084 9.60748 6.6828 9.475 6.54062C9.14999 6.21558 8.76413 5.95774 8.33947 5.78182C7.91481 5.60591 7.45965 5.51537 7 5.51537C6.54034 5.51537 6.08518 5.60591 5.66052 5.78182C5.23586 5.95774 4.85001 6.21558 4.525 6.54062L2.025 9.04062C1.36858 9.69703 0.999817 10.5873 0.999817 11.5156C0.999817 12.4439 1.36858 13.3342 2.025 13.9906C2.68141 14.647 3.57169 15.0158 4.5 15.0158C5.4283 15.0158 6.31858 14.647 6.975 13.9906L8.225 12.7406C8.35748 12.5984 8.4296 12.4104 8.42617 12.2161C8.42274 12.0218 8.34403 11.8364 8.20662 11.699C8.0692 11.5616 7.88382 11.4829 7.68952 11.4794C7.49522 11.476 7.30717 11.5481 7.165 11.6806L5.915 12.9306C5.72925 13.1166 5.50867 13.2641 5.26588 13.3647C5.02308 13.4654 4.76283 13.5172 4.5 13.5172C4.23716 13.5172 3.97691 13.4654 3.73411 13.3647C3.49132 13.2641 3.27074 13.1166 3.085 12.9306V12.9306Z" fill="#24292F"/>
</svg>
