<svg width="17" height="16" viewBox="0 0 17 16" fill="none" xmlns="http://www.w3.org/2000/svg">
<path fill-rule="evenodd" clip-rule="evenodd" d="M5.59375 3.25001C5.59375 3.44892 5.51474 3.63969 5.37408 3.78034C5.23343 3.92099 5.04267 4.00001 4.84375 4.00001C4.64484 4.00001 4.45408 3.92099 4.31342 3.78034C4.17277 3.63969 4.09375 3.44892 4.09375 3.25001C4.09375 3.05109 4.17277 2.86033 4.31342 2.71968C4.45408 2.57902 4.64484 2.50001 4.84375 2.50001C5.04267 2.50001 5.23343 2.57902 5.37408 2.71968C5.51474 2.86033 5.59375 3.05109 5.59375 3.25001V3.25001ZM5.59375 5.37201C6.09417 5.19509 6.51592 4.84696 6.78448 4.38915C7.05304 3.93134 7.1511 3.39333 7.06135 2.87021C6.9716 2.34709 6.6998 1.87253 6.294 1.53043C5.8882 1.18832 5.37452 1.00069 4.84375 1.00069C4.31299 1.00069 3.79931 1.18832 3.39351 1.53043C2.98771 1.87253 2.71591 2.34709 2.62616 2.87021C2.5364 3.39333 2.63447 3.93134 2.90303 4.38915C3.17159 4.84696 3.59334 5.19509 4.09375 5.37201V6.25001C4.09375 6.84674 4.33081 7.41904 4.75276 7.841C5.17472 8.26295 5.74702 8.50001 6.34375 8.50001H7.84375V10.628C7.34307 10.8049 6.92105 11.1532 6.6523 11.6112C6.38356 12.0692 6.28539 12.6075 6.37514 13.1309C6.4649 13.6543 6.73681 14.1291 7.1428 14.4714C7.54879 14.8136 8.06272 15.0014 8.59375 15.0014C9.12479 15.0014 9.63872 14.8136 10.0447 14.4714C10.4507 14.1291 10.7226 13.6543 10.8124 13.1309C10.9021 12.6075 10.804 12.0692 10.5352 11.6112C10.2665 11.1532 9.84444 10.8049 9.34375 10.628V8.50001H10.8438C11.4405 8.50001 12.0128 8.26295 12.4347 7.841C12.8567 7.41904 13.0938 6.84674 13.0938 6.25001V5.37201C13.5942 5.19509 14.0159 4.84696 14.2845 4.38915C14.553 3.93134 14.6511 3.39333 14.5614 2.87021C14.4716 2.34709 14.1998 1.87253 13.794 1.53043C13.3882 1.18832 12.8745 1.00069 12.3438 1.00069C11.813 1.00069 11.2993 1.18832 10.8935 1.53043C10.4877 1.87253 10.2159 2.34709 10.1262 2.87021C10.0364 3.39333 10.1345 3.93134 10.403 4.38915C10.6716 4.84696 11.0933 5.19509 11.5938 5.37201V6.25001C11.5938 6.44892 11.5147 6.63969 11.3741 6.78034C11.2334 6.92099 11.0427 7.00001 10.8438 7.00001H6.34375C6.14484 7.00001 5.95408 6.92099 5.81342 6.78034C5.67277 6.63969 5.59375 6.44892 5.59375 6.25001V5.37201ZM9.34375 12.75C9.34375 12.9489 9.26474 13.1397 9.12408 13.2803C8.98343 13.421 8.79267 13.5 8.59375 13.5C8.39484 13.5 8.20408 13.421 8.06342 13.2803C7.92277 13.1397 7.84375 12.9489 7.84375 12.75C7.84375 12.5511 7.92277 12.3603 8.06342 12.2197C8.20408 12.079 8.39484 12 8.59375 12C8.79267 12 8.98343 12.079 9.12408 12.2197C9.26474 12.3603 9.34375 12.5511 9.34375 12.75ZM12.3438 4.00001C12.5427 4.00001 12.7334 3.92099 12.8741 3.78034C13.0147 3.63969 13.0938 3.44892 13.0938 3.25001C13.0938 3.05109 13.0147 2.86033 12.8741 2.71968C12.7334 2.57902 12.5427 2.50001 12.3438 2.50001C12.1448 2.50001 11.9541 2.57902 11.8134 2.71968C11.6728 2.86033 11.5938 3.05109 11.5938 3.25001C11.5938 3.44892 11.6728 3.63969 11.8134 3.78034C11.9541 3.92099 12.1448 4.00001 12.3438 4.00001Z" fill="#57606A"/>
</svg>
