<svg width="17" height="16" viewBox="0 0 17 16" fill="none" xmlns="http://www.w3.org/2000/svg">
<path fill-rule="evenodd" clip-rule="evenodd" d="M8.51562 0.25C8.65564 0.24991 8.79288 0.289014 8.91182 0.362887C9.03076 0.43676 9.12664 0.542452 9.18862 0.668L11.0706 4.483L15.2806 5.095C15.4191 5.11511 15.5492 5.17355 15.6562 5.26372C15.7631 5.35388 15.8428 5.47218 15.886 5.60523C15.9293 5.73829 15.9345 5.8808 15.901 6.01665C15.8676 6.1525 15.7968 6.27628 15.6966 6.374L12.6506 9.344L13.3696 13.536C13.3933 13.6739 13.378 13.8157 13.3253 13.9454C13.2726 14.0751 13.1847 14.1874 13.0715 14.2697C12.9583 14.352 12.8243 14.401 12.6847 14.4111C12.5452 14.4212 12.4055 14.3921 12.2816 14.327L8.51562 12.347L4.74962 14.327C4.62581 14.392 4.48629 14.4211 4.34681 14.411C4.20734 14.4009 4.07346 14.352 3.9603 14.2699C3.84715 14.1877 3.75921 14.0755 3.70643 13.946C3.65366 13.8165 3.63813 13.6749 3.66162 13.537L4.38162 9.343L1.33362 6.374C1.23319 6.27632 1.16212 6.15247 1.12847 6.01647C1.09483 5.88047 1.09994 5.73777 1.14325 5.60453C1.18655 5.47129 1.26631 5.35284 1.37348 5.26261C1.48065 5.17238 1.61095 5.11397 1.74962 5.094L5.95962 4.483L7.84262 0.668C7.9046 0.542452 8.00049 0.43676 8.11943 0.362887C8.23836 0.289014 8.37561 0.24991 8.51562 0.25V0.25ZM8.51562 2.695L7.13062 5.5C7.07684 5.6089 6.99741 5.70311 6.89917 5.77453C6.80092 5.84595 6.6868 5.89244 6.56662 5.91L3.46962 6.36L5.70962 8.544C5.79677 8.62886 5.86198 8.73365 5.89961 8.84933C5.93724 8.96501 5.94616 9.0881 5.92562 9.208L5.39762 12.292L8.16662 10.836C8.27425 10.7794 8.39402 10.7499 8.51562 10.7499C8.63722 10.7499 8.75699 10.7794 8.86462 10.836L11.6346 12.292L11.1046 9.208C11.0841 9.0881 11.093 8.96501 11.1306 8.84933C11.1683 8.73365 11.2335 8.62886 11.3206 8.544L13.5606 6.361L10.4646 5.911C10.3444 5.89344 10.2303 5.84695 10.1321 5.77553C10.0338 5.70411 9.95441 5.6099 9.90062 5.501L8.51562 2.694V2.695Z" fill="#57606A"/>
</svg>
