<svg width="17" height="16" viewBox="0 0 17 16" fill="none" xmlns="http://www.w3.org/2000/svg">
<path fill-rule="evenodd" clip-rule="evenodd" d="M8.62498 0.25C8.76499 0.24991 8.90224 0.289014 9.02118 0.362887C9.14012 0.43676 9.236 0.542452 9.29798 0.668L11.18 4.483L15.39 5.095C15.5284 5.11511 15.6585 5.17355 15.7655 5.26372C15.8725 5.35388 15.9521 5.47218 15.9954 5.60523C16.0387 5.73829 16.0439 5.8808 16.0104 6.01665C15.9769 6.1525 15.9061 6.27628 15.806 6.374L12.76 9.344L13.479 13.536C13.5027 13.6739 13.4873 13.8157 13.4347 13.9454C13.382 14.0751 13.2941 14.1874 13.1809 14.2697C13.0677 14.352 12.9337 14.401 12.7941 14.4111C12.6545 14.4212 12.5149 14.3921 12.391 14.327L8.62498 12.347L4.85898 14.327C4.73517 14.392 4.59565 14.4211 4.45617 14.411C4.3167 14.4009 4.18282 14.352 4.06966 14.2699C3.95651 14.1877 3.86857 14.0755 3.81579 13.946C3.76302 13.8165 3.74749 13.6749 3.77098 13.537L4.49098 9.343L1.44298 6.374C1.34255 6.27632 1.27148 6.15247 1.23783 6.01647C1.20419 5.88047 1.2093 5.73777 1.25261 5.60453C1.29591 5.47129 1.37566 5.35284 1.48284 5.26261C1.59001 5.17238 1.72031 5.11397 1.85898 5.094L6.06898 4.483L7.95198 0.668C8.01396 0.542452 8.10985 0.43676 8.22879 0.362887C8.34772 0.289014 8.48497 0.24991 8.62498 0.25V0.25ZM8.62498 2.695L7.23998 5.5C7.1862 5.6089 7.10677 5.70311 7.00853 5.77453C6.91028 5.84595 6.79616 5.89244 6.67598 5.91L3.57898 6.36L5.81898 8.544C5.90613 8.62886 5.97134 8.73365 6.00897 8.84933C6.0466 8.96501 6.05552 9.0881 6.03498 9.208L5.50698 12.292L8.27598 10.836C8.38361 10.7794 8.50338 10.7499 8.62498 10.7499C8.74658 10.7499 8.86635 10.7794 8.97398 10.836L11.744 12.292L11.214 9.208C11.1934 9.0881 11.2024 8.96501 11.24 8.84933C11.2776 8.73365 11.3428 8.62886 11.43 8.544L13.67 6.361L10.574 5.911C10.4538 5.89344 10.3397 5.84695 10.2414 5.77553C10.1432 5.70411 10.0638 5.6099 10.01 5.501L8.62498 2.694V2.695Z" fill="#57606A"/>
</svg>
