<svg width="17" height="16" viewBox="0 0 17 16" fill="none" xmlns="http://www.w3.org/2000/svg">
<path fill-rule="evenodd" clip-rule="evenodd" d="M2.26563 2.5C2.26563 1.83696 2.52902 1.20107 2.99786 0.732233C3.4667 0.263392 4.10259 0 4.76563 0L13.5156 0C13.7145 0 13.9053 0.0790176 14.046 0.21967C14.1866 0.360322 14.2656 0.551088 14.2656 0.75V13.25C14.2656 13.4489 14.1866 13.6397 14.046 13.7803C13.9053 13.921 13.7145 14 13.5156 14H11.0156C10.8167 14 10.6259 13.921 10.4853 13.7803C10.3446 13.6397 10.2656 13.4489 10.2656 13.25C10.2656 13.0511 10.3446 12.8603 10.4853 12.7197C10.6259 12.579 10.8167 12.5 11.0156 12.5H12.7656V10.5H4.76563C4.56871 10.5 4.37618 10.5582 4.21219 10.6672C4.0482 10.7762 3.92004 10.9312 3.84379 11.1128C3.76753 11.2943 3.74658 11.4943 3.78356 11.6878C3.82053 11.8812 3.91378 12.0594 4.05163 12.2C4.19087 12.3422 4.26793 12.5338 4.26587 12.7328C4.2638 12.9318 4.18278 13.1218 4.04063 13.261C3.89847 13.4002 3.70682 13.4773 3.50785 13.4752C3.30887 13.4732 3.11887 13.3922 2.97963 13.25C2.52134 12.7829 2.26492 12.1544 2.26563 11.5V2.5ZM12.7656 1.5V9H4.76563C4.40963 9 4.07163 9.074 3.76563 9.208V2.5C3.76563 2.23478 3.87098 1.98043 4.05852 1.79289C4.24606 1.60536 4.50041 1.5 4.76563 1.5H12.7656ZM5.26563 12.25V15.5C5.26563 15.5464 5.27856 15.5919 5.30296 15.6314C5.32737 15.6709 5.3623 15.7028 5.40382 15.7236C5.44535 15.7444 5.49184 15.7532 5.53808 15.749C5.58432 15.7448 5.62848 15.7279 5.66563 15.7L7.11563 14.613C7.1589 14.5805 7.21153 14.563 7.26563 14.563C7.31972 14.563 7.37235 14.5805 7.41563 14.613L8.86563 15.7C8.90277 15.7279 8.94693 15.7448 8.99318 15.749C9.03942 15.7532 9.0859 15.7444 9.12743 15.7236C9.16896 15.7028 9.20388 15.6709 9.22829 15.6314C9.2527 15.5919 9.26563 15.5464 9.26563 15.5V12.25C9.26563 12.1837 9.23929 12.1201 9.1924 12.0732C9.14552 12.0263 9.08193 12 9.01563 12H5.51563C5.44932 12 5.38573 12.0263 5.33885 12.0732C5.29197 12.1201 5.26563 12.1837 5.26563 12.25Z" fill="#57606A"/>
</svg>
