<svg width="34" height="29" viewBox="0 0 34 29" fill="none" xmlns="http://www.w3.org/2000/svg">
<g filter="url(#filter0_di_3_3115)">
<path d="M0 0H28C31.3137 0 34 2.68629 34 6V22C34 25.3137 31.3137 28 28 28H0V0Z" fill="#F6F8FA" shape-rendering="crispEdges"/>
<path d="M13.427 14.427L16.823 17.823C16.8462 17.8463 16.8738 17.8648 16.9042 17.8774C16.9346 17.89 16.9671 17.8964 17 17.8964C17.0329 17.8964 17.0655 17.89 17.0958 17.8774C17.1262 17.8648 17.1538 17.8463 17.177 17.823L20.573 14.427C20.6081 14.392 20.632 14.3474 20.6416 14.2989C20.6513 14.2503 20.6464 14.2 20.6274 14.1543C20.6085 14.1085 20.5763 14.0695 20.5352 14.042C20.494 14.0145 20.4455 13.9999 20.396 14H13.604C13.5545 13.9999 13.5061 14.0145 13.4649 14.042C13.4237 14.0695 13.3916 14.1085 13.3726 14.1543C13.3537 14.2 13.3487 14.2503 13.3584 14.2989C13.3681 14.3474 13.392 14.392 13.427 14.427V14.427Z" fill="#8C959F"/>
<path d="M0.5 0.5H28C31.0376 0.5 33.5 2.96243 33.5 6V22C33.5 25.0376 31.0376 27.5 28 27.5H0.5V0.5Z" stroke="#1B1F24" stroke-opacity="0.15" shape-rendering="crispEdges"/>
</g>
<defs>
<filter id="filter0_di_3_3115" x="0" y="0" width="34" height="29" filterUnits="userSpaceOnUse" color-interpolation-filters="sRGB">
<feFlood flood-opacity="0" result="BackgroundImageFix"/>
<feColorMatrix in="SourceAlpha" type="matrix" values="0 0 0 0 0 0 0 0 0 0 0 0 0 0 0 0 0 0 127 0" result="hardAlpha"/>
<feOffset dy="1"/>
<feComposite in2="hardAlpha" operator="out"/>
<feColorMatrix type="matrix" values="0 0 0 0 0.105882 0 0 0 0 0.121569 0 0 0 0 0.141176 0 0 0 0.04 0"/>
<feBlend mode="normal" in2="BackgroundImageFix" result="effect1_dropShadow_3_3115"/>
<feBlend mode="normal" in="SourceGraphic" in2="effect1_dropShadow_3_3115" result="shape"/>
<feColorMatrix in="SourceAlpha" type="matrix" values="0 0 0 0 0 0 0 0 0 0 0 0 0 0 0 0 0 0 127 0" result="hardAlpha"/>
<feOffset dy="1"/>
<feComposite in2="hardAlpha" operator="arithmetic" k2="-1" k3="1"/>
<feColorMatrix type="matrix" values="0 0 0 0 1 0 0 0 0 1 0 0 0 0 1 0 0 0 0.25 0"/>
<feBlend mode="normal" in2="shape" result="effect2_innerShadow_3_3115"/>
</filter>
</defs>
</svg>
